<svg width="208" height="61" viewBox="0 0 208 61" fill="none" xmlns="http://www.w3.org/2000/svg">
<path d="M191.392 0.955517H16.9861C16.3504 0.955517 15.7223 0.955517 15.0883 0.958517C14.5575 0.961517 14.031 0.970232 13.4951 0.977567C12.331 0.98942 11.1696 1.07803 10.021 1.24263C8.8741 1.41081 7.76309 1.72789 6.72558 2.18313C5.68934 2.64222 4.74249 3.23876 3.9194 3.95111C3.09198 4.66145 2.40226 5.48252 1.87677 6.38273C1.34983 7.28115 0.98444 8.24389 0.793235 9.2377C0.600211 10.2302 0.496343 11.2342 0.482564 12.2407C0.466475 12.7006 0.464776 13.162 0.456299 13.622V48.2932C0.464776 48.7589 0.466475 49.2101 0.482564 49.676C0.496348 50.6824 0.600215 51.6864 0.793235 52.6789C0.983912 53.6732 1.34932 54.6365 1.87677 55.5353C2.40202 56.4326 3.09184 57.2503 3.9194 57.9567C4.73937 58.6722 5.68683 59.2692 6.72558 59.7248C7.76308 60.1812 8.87398 60.5002 10.021 60.671C11.1698 60.8342 12.3311 60.9229 13.4951 60.9362C14.031 60.9464 14.5575 60.9522 15.0883 60.9522C15.7223 60.9552 16.3505 60.9552 16.9861 60.9552H191.392C192.015 60.9552 192.648 60.9552 193.271 60.9522C193.8 60.9522 194.341 60.9464 194.87 60.9362C196.031 60.9236 197.191 60.8349 198.337 60.671C199.488 60.499 200.603 60.1801 201.645 59.7248C202.683 59.2689 203.629 58.672 204.449 57.9567C205.274 57.2476 205.965 56.4304 206.497 55.5353C207.021 54.6359 207.383 53.6727 207.57 52.6789C207.764 51.6862 207.871 50.6825 207.892 49.676C207.899 49.2101 207.899 48.7589 207.899 48.2932C207.913 47.7482 207.913 47.2063 207.913 46.6525V15.2596C207.913 14.7103 207.913 14.1654 207.899 13.622C207.899 13.162 207.899 12.7006 207.892 12.2406C207.871 11.2341 207.764 10.2303 207.57 9.23764C207.382 8.2444 207.02 7.28174 206.497 6.38267C205.427 4.57829 203.73 3.10954 201.645 2.18299C200.603 1.72886 199.488 1.41188 198.337 1.2425C197.191 1.07717 196.031 0.988529 194.87 0.977357C194.341 0.970037 193.8 0.961247 193.271 0.958322C192.648 0.955322 192.015 0.955322 191.392 0.955322V0.955517Z" fill="#A6A6A6"/>
<path d="M15.0967 59.6428C14.5685 59.6428 14.053 59.6369 13.529 59.6267C12.4433 59.6145 11.3602 59.5327 10.2885 59.3821C9.28923 59.2332 8.32118 58.9562 7.41631 58.5602C6.51974 58.1676 5.70199 57.6527 4.9944 57.0353C4.27656 56.4252 3.67893 55.7176 3.22518 54.9406C2.76644 54.1585 2.44896 53.3201 2.28381 52.4548C2.10546 51.525 2.00896 50.5848 1.99515 49.6423C1.98416 49.326 1.96977 48.2727 1.96977 48.2727V13.622C1.96977 13.622 1.9851 12.5849 1.99524 12.2802C2.00846 11.3392 2.10439 10.4005 2.28221 9.47212C2.44767 8.60441 2.76539 7.76366 3.22438 6.97899C3.67646 6.20246 4.27077 5.49434 4.98429 4.88207C5.697 4.26399 6.51736 3.74646 7.41546 3.34838C8.31825 2.9537 9.28447 2.67866 10.2817 2.53247C11.357 2.38032 12.4438 2.29806 13.5332 2.28638L15.0976 2.26807H193.263L194.846 2.28712C195.925 2.29822 197.002 2.37974 198.068 2.531C199.075 2.67903 200.051 2.95599 200.964 3.35277C202.764 4.15504 204.228 5.42429 205.151 6.98265C205.603 7.7619 205.916 8.59579 206.079 9.45601C206.259 10.392 206.36 11.3381 206.38 12.2868C206.385 12.7116 206.385 13.1679 206.385 13.622C206.399 14.1845 206.399 14.7199 206.399 15.2597V46.6525C206.399 47.1975 206.399 47.7292 206.385 48.2653C206.385 48.7531 206.385 49.2 206.379 49.6599C206.358 50.5916 206.259 51.5209 206.082 52.4401C205.921 53.3117 205.605 54.1566 205.146 54.9451C204.689 55.7137 204.095 56.4152 203.385 57.0236C202.677 57.6443 201.858 58.1622 200.959 58.5574C200.049 58.9564 199.074 59.2344 198.068 59.3821C196.996 59.5335 195.913 59.6153 194.827 59.6267C194.319 59.6369 193.788 59.6428 193.271 59.6428L191.392 59.6458L15.0967 59.6428Z" fill="black"/>
<path d="M46.087 30.6336C46.1057 29.3816 46.49 28.154 47.2043 27.0651C47.9186 25.9762 48.9397 25.0612 50.1725 24.4055C49.3893 23.4378 48.3562 22.6413 47.155 22.0795C45.9539 21.5177 44.6179 21.2059 43.2532 21.169C40.342 20.9046 37.5197 22.6762 36.0362 22.6762C34.5239 22.6762 32.2398 21.1952 29.7803 21.239C28.1893 21.2835 26.6388 21.6838 25.2799 22.4009C23.9209 23.1179 22.7998 24.1274 22.0258 25.3308C18.6729 30.3534 21.1738 37.7349 24.3856 41.7948C25.9925 43.7829 27.8706 46.0035 30.3279 45.9248C32.7326 45.8385 33.6307 44.5981 36.5334 44.5981C39.4091 44.5981 40.2517 45.9248 42.7589 45.8747C45.3393 45.8385 46.965 43.8778 48.5156 41.871C49.6701 40.4545 50.5586 38.8889 51.148 37.2323C49.6489 36.6837 48.3696 35.7654 47.4696 34.592C46.5696 33.4185 46.0888 32.0418 46.087 30.6336Z" fill="white"/>
<path d="M41.3512 18.4991C42.7581 17.0378 43.4513 15.1595 43.2834 13.2632C41.134 13.4585 39.1485 14.3473 37.7226 15.7526C37.0254 16.4391 36.4915 17.2377 36.1512 18.1029C35.811 18.968 35.6712 19.8827 35.7398 20.7946C36.8149 20.8042 37.8785 20.6026 38.8505 20.205C39.8225 19.8073 40.6775 19.2241 41.3512 18.4991Z" fill="white"/>
<path d="M81.8874 41.9433H74.5069L72.7345 46.978H69.6084L76.5991 28.3511H79.847L86.8377 46.978H83.6583L81.8874 41.9433ZM75.2713 39.6201H81.1216L78.2376 31.4492H78.1569L75.2713 39.6201Z" fill="white"/>
<path d="M101.935 40.1885C101.935 44.4087 99.5871 47.1201 96.0438 47.1201C95.1463 47.1653 94.2536 46.9664 93.4681 46.5462C92.6825 46.126 92.0359 45.5014 91.6022 44.7441H91.5351V51.4706H88.6374V33.3975H91.4423V35.6563H91.4956C91.9492 34.9026 92.6068 34.2813 93.3983 33.8586C94.1898 33.4358 95.0857 33.2274 95.9906 33.2554C99.5734 33.2554 101.935 35.98 101.935 40.1885ZM98.9567 40.1885C98.9567 37.439 97.4797 35.6314 95.2262 35.6314C93.0122 35.6314 91.523 37.4771 91.523 40.1885C91.523 42.9248 93.0122 44.7573 95.2262 44.7573C97.4797 44.7573 98.9567 42.9629 98.9567 40.1885Z" fill="white"/>
<path d="M117.473 40.1885C117.473 44.4087 115.125 47.1201 111.581 47.1201C110.684 47.1653 109.791 46.9664 109.006 46.5462C108.22 46.126 107.573 45.5014 107.14 44.7441H107.073V51.4706H104.175V33.3975H106.98V35.6563H107.033C107.487 34.9026 108.144 34.2813 108.936 33.8586C109.727 33.4358 110.623 33.2274 111.528 33.2554C115.111 33.2554 117.473 35.98 117.473 40.1885ZM114.494 40.1885C114.494 37.439 113.017 35.6314 110.764 35.6314C108.55 35.6314 107.06 37.4771 107.06 40.1885C107.06 42.9248 108.55 44.7573 110.764 44.7573C113.017 44.7573 114.494 42.9629 114.494 40.1885H114.494Z" fill="white"/>
<path d="M127.742 41.7879C127.956 43.635 129.822 44.8478 132.371 44.8478C134.813 44.8478 136.57 43.635 136.57 41.9694C136.57 40.5236 135.511 39.6579 133.001 39.0647L130.492 38.4831C126.936 37.6569 125.286 36.0573 125.286 33.4616C125.286 30.2478 128.197 28.0403 132.331 28.0403C136.423 28.0403 139.227 30.2478 139.322 33.4616H136.397C136.222 31.6028 134.624 30.4807 132.29 30.4807C129.956 30.4807 128.358 31.616 128.358 33.2683C128.358 34.5852 129.379 35.3601 131.874 35.9533L134.008 36.4572C137.98 37.361 139.631 38.8962 139.631 41.6207C139.631 45.1056 136.745 47.2882 132.156 47.2882C127.862 47.2882 124.963 45.1568 124.776 41.7877L127.742 41.7879Z" fill="white"/>
<path d="M145.885 30.1833V33.3972H148.569V35.6047H145.885V43.0915C145.885 44.2545 146.422 44.7965 147.602 44.7965C147.921 44.7912 148.239 44.7697 148.555 44.732V46.9264C148.025 47.0217 147.485 47.0649 146.946 47.0553C144.088 47.0553 142.973 46.0225 142.973 43.3888V35.6047H140.921V33.3972H142.973V30.1833H145.885Z" fill="white"/>
<path d="M150.124 40.1882C150.124 35.9153 152.74 33.2302 156.819 33.2302C160.912 33.2302 163.516 35.9152 163.516 40.1882C163.516 44.4728 160.926 47.1462 156.819 47.1462C152.714 47.1462 150.124 44.4728 150.124 40.1882ZM160.563 40.1882C160.563 37.2571 159.167 35.5271 156.819 35.5271C154.471 35.5271 153.076 37.2702 153.076 40.1882C153.076 43.131 154.471 44.8478 156.819 44.8478C159.167 44.8478 160.563 43.131 160.563 40.1882H160.563Z" fill="white"/>
<path d="M165.905 33.3974H168.669V35.7089H168.736C168.923 34.987 169.362 34.349 169.981 33.9021C170.599 33.4553 171.358 33.2269 172.131 33.2553C172.465 33.2542 172.798 33.2891 173.124 33.3593V35.9667C172.703 35.8428 172.263 35.7859 171.822 35.7982C171.401 35.7818 170.981 35.8532 170.592 36.0076C170.202 36.1619 169.852 36.3955 169.565 36.6923C169.278 36.9891 169.062 37.3422 168.93 37.7272C168.798 38.1122 168.755 38.52 168.803 38.9227V46.9778H165.905L165.905 33.3974Z" fill="white"/>
<path d="M186.484 42.989C186.094 45.4543 183.599 47.1462 180.405 47.1462C176.299 47.1462 173.75 44.4992 173.75 40.2526C173.75 35.9929 176.312 33.2302 180.284 33.2302C184.189 33.2302 186.645 35.8113 186.645 39.9289V40.884H176.675V41.0524C176.629 41.5522 176.694 42.0557 176.866 42.5295C177.038 43.0032 177.312 43.4364 177.671 43.8002C178.03 44.1641 178.466 44.4502 178.949 44.6397C179.432 44.8291 179.951 44.9176 180.472 44.8991C181.157 44.9608 181.844 44.8082 182.432 44.4641C183.019 44.1199 183.475 43.6026 183.733 42.9889L186.484 42.989ZM176.689 38.9358H183.746C183.772 38.4864 183.701 38.0367 183.538 37.6148C183.375 37.193 183.123 36.8082 182.798 36.4846C182.473 36.1609 182.081 35.9054 181.649 35.7341C181.216 35.5628 180.751 35.4793 180.284 35.489C179.812 35.4863 179.344 35.5735 178.907 35.7456C178.471 35.9177 178.074 36.1713 177.74 36.4918C177.405 36.8122 177.14 37.1932 176.96 37.6127C176.78 38.0321 176.687 38.4818 176.689 38.9358V38.9358Z" fill="white"/>
<path d="M74.7601 12.7919C75.3016 12.75 75.845 12.8382 76.3511 13.0504C76.8572 13.2625 77.3133 13.5933 77.6866 14.0187C78.0599 14.4441 78.3411 14.9537 78.5098 15.5106C78.6786 16.0675 78.7307 16.6579 78.6624 17.2391C78.6624 20.0985 77.2304 21.7421 74.7601 21.7421H71.7645V12.7919H74.7601ZM73.0526 20.4763H74.6162C75.0032 20.5013 75.3904 20.4328 75.7498 20.2759C76.1091 20.119 76.4315 19.8776 76.6935 19.5692C76.9555 19.2609 77.1504 18.8934 77.2642 18.4934C77.378 18.0935 77.4077 17.6713 77.3512 17.2574C77.4036 16.8451 77.3709 16.4255 77.2554 16.0285C77.1398 15.6315 76.9444 15.267 76.683 14.9611C76.4216 14.6552 76.1008 14.4155 75.7434 14.2591C75.3861 14.1028 75.0012 14.0336 74.6162 14.0567H73.0526V20.4763Z" fill="white"/>
<path d="M85.7204 19.9183C85.5526 20.5356 85.189 21.0696 84.6933 21.4268C84.1975 21.7841 83.6011 21.9418 83.0085 21.8724C82.5962 21.8842 82.1864 21.7989 81.8077 21.6226C81.4289 21.4464 81.0903 21.1832 80.8152 20.8515C80.5401 20.5198 80.3352 20.1275 80.2148 19.7017C80.0943 19.276 80.0611 18.8271 80.1175 18.3861C80.0625 17.9438 80.0963 17.4939 80.2165 17.0669C80.3368 16.6399 80.5406 16.2457 80.8142 15.9111C81.0878 15.5765 81.4249 15.3092 81.8025 15.1274C82.1801 14.9456 82.5896 14.8535 83.0031 14.8573C84.7445 14.8573 85.7951 16.1413 85.7951 18.2623V18.7274H81.3757V18.8021C81.3564 19.05 81.3853 19.2995 81.4605 19.5346C81.5357 19.7697 81.6556 19.9853 81.8126 20.1675C81.9695 20.3497 82.16 20.4945 82.3718 20.5926C82.5836 20.6907 82.812 20.7399 83.0425 20.7371C83.338 20.7754 83.6373 20.718 83.9024 20.5722C84.1676 20.4264 84.3865 20.1988 84.5315 19.9183L85.7204 19.9183ZM81.3756 17.7416H84.5368C84.5524 17.5149 84.5238 17.2872 84.453 17.0731C84.3822 16.859 84.2707 16.6633 84.1256 16.4985C83.9805 16.3337 83.8051 16.2035 83.6106 16.1163C83.4161 16.029 83.2068 15.9866 82.9963 15.9918C82.7826 15.9889 82.5707 16.0322 82.3728 16.1192C82.1749 16.2061 81.9952 16.3349 81.8441 16.4979C81.6931 16.661 81.5739 16.8551 81.4934 17.0686C81.413 17.2822 81.373 17.511 81.3757 17.7416H81.3756Z" fill="white"/>
<path d="M89.7408 14.8572C91.1483 14.8572 92.0686 15.564 92.1894 16.7549H91.0044C90.8905 16.259 90.4412 15.9426 89.7408 15.9426C89.0513 15.9426 88.5274 16.2957 88.5274 16.823C88.5274 17.2265 88.8437 17.4807 89.5223 17.6484L90.562 17.9084C91.7523 18.2065 92.3102 18.7588 92.3102 19.7512C92.3102 21.0227 91.2122 21.8723 89.7177 21.8723C88.2287 21.8723 87.2583 21.1464 87.1483 19.9497H88.3848C88.4914 20.2345 88.6835 20.4725 88.9304 20.6253C89.1773 20.7782 89.4646 20.8371 89.7462 20.7927C90.5158 20.7927 91.0628 20.4207 91.0628 19.8808C91.0628 19.478 90.7696 19.2172 90.1426 19.0561L89.0513 18.7829C87.8609 18.479 87.3099 17.9026 87.3099 16.8977C87.3099 15.7002 88.3265 14.8572 89.7408 14.8572Z" fill="white"/>
<path d="M98.0718 17.195C97.9931 16.8448 97.8007 16.5366 97.5296 16.3262C97.2584 16.1158 96.9264 16.0171 96.5937 16.0481C95.5595 16.0481 94.927 16.9035 94.927 18.3427C94.927 19.8069 95.5649 20.6814 96.5937 20.6814C96.9232 20.7226 97.2552 20.6325 97.5274 20.428C97.7996 20.2235 97.9932 19.9187 98.0718 19.571H99.273C99.1936 20.255 98.8697 20.8784 98.3705 21.3083C97.8712 21.7382 97.2361 21.9406 96.6005 21.8723C96.182 21.8866 95.7657 21.802 95.3807 21.6245C94.9957 21.4469 94.6512 21.1808 94.3715 20.8446C94.0917 20.5084 93.8834 20.1104 93.7611 19.6782C93.6388 19.2461 93.6054 18.7903 93.6633 18.3428C93.6083 17.8986 93.6438 17.4468 93.7673 17.0189C93.8908 16.591 94.0994 16.1974 94.3784 15.8654C94.6574 15.5335 95.0002 15.2714 95.3829 15.0972C95.7655 14.9231 96.1787 14.8412 96.5937 14.8572C97.2345 14.7935 97.873 15.0022 98.3734 15.4388C98.8738 15.8754 99.1966 16.5055 99.273 17.1951L98.0718 17.195Z" fill="white"/>
<path d="M100.499 19.832C100.499 18.6162 101.338 17.9153 102.827 17.8157L104.522 17.7102V17.1272C104.522 16.4138 104.085 16.011 103.24 16.011C102.551 16.011 102.073 16.2842 101.936 16.7617H100.74C100.867 15.6016 101.878 14.8574 103.298 14.8574C104.867 14.8574 105.752 15.7004 105.752 17.1272V21.7422H104.563V20.7929H104.465C104.266 21.1334 103.988 21.411 103.658 21.5973C103.327 21.7836 102.957 21.872 102.585 21.8534C102.322 21.8829 102.057 21.8527 101.805 21.7646C101.554 21.6766 101.323 21.5327 101.126 21.3422C100.93 21.1518 100.772 20.919 100.664 20.6589C100.556 20.3988 100.5 20.1171 100.499 19.832ZM104.522 19.2549V18.6902L102.993 18.7956C102.132 18.8579 101.741 19.1743 101.741 19.7697C101.741 20.3776 102.229 20.7314 102.901 20.7314C103.098 20.7529 103.297 20.7315 103.486 20.6683C103.675 20.6052 103.85 20.5017 104.002 20.3639C104.153 20.2261 104.277 20.057 104.366 19.8664C104.455 19.6759 104.508 19.4679 104.522 19.2549ZM102.556 13.8584L103.999 11.7249H105.447L103.832 13.8584H102.556Z" fill="white"/>
<path d="M107.686 14.9875H108.875V16.0232H108.967C109.1 15.6637 109.335 15.3589 109.639 15.1527C109.942 14.9465 110.299 14.8495 110.657 14.8755C110.842 14.8728 111.026 14.8915 111.208 14.9311V16.2466C110.981 16.1944 110.75 16.1674 110.518 16.1661C110.315 16.1463 110.109 16.1728 109.916 16.2438C109.722 16.3147 109.544 16.4287 109.394 16.5782C109.243 16.7277 109.123 16.9096 109.042 17.1121C108.961 17.3146 108.919 17.5332 108.921 17.7539V21.7419H107.686L107.686 14.9875Z" fill="white"/>
<path d="M112.343 22.4176H113.607C113.711 22.9076 114.234 23.224 115.067 23.224C116.096 23.224 116.706 22.6967 116.706 21.8039V20.5075H116.613C116.42 20.8704 116.137 21.1684 115.796 21.3686C115.455 21.5688 115.069 21.6635 114.682 21.642C113.084 21.642 112.096 20.309 112.096 18.2868C112.096 16.2273 113.095 14.8752 114.694 14.8752C115.091 14.8603 115.485 14.9635 115.831 15.1735C116.178 15.3835 116.464 15.6923 116.659 16.0661H116.757V14.9873H117.941V21.7972C117.941 23.3419 116.82 24.3219 115.05 24.3219C113.486 24.322 112.474 23.5653 112.343 22.4176ZM116.729 18.2802C116.729 16.9347 116.084 16.0727 115.032 16.0727C113.969 16.0727 113.372 16.9348 113.372 18.2802C113.372 19.6264 113.969 20.4885 115.032 20.4885C116.091 20.4884 116.729 19.633 116.729 18.2802H116.729Z" fill="white"/>
<path d="M119.552 19.8317C119.552 18.6159 120.391 17.915 121.88 17.8154L123.575 17.7099V17.1269C123.575 16.4136 123.138 16.0107 122.294 16.0107C121.604 16.0107 121.126 16.2839 120.989 16.7615H119.794C119.92 15.6013 120.931 14.8572 122.351 14.8572C123.92 14.8572 124.805 15.7002 124.805 17.1269V21.7419H123.616V20.7927H123.518C123.32 21.1332 123.041 21.4107 122.711 21.5971C122.381 21.7834 122.01 21.8717 121.638 21.8532C121.375 21.8827 121.11 21.8524 120.859 21.7644C120.607 21.6763 120.376 21.5324 120.179 21.342C119.983 21.1515 119.826 20.9187 119.717 20.6586C119.609 20.3985 119.553 20.1168 119.552 19.8317ZM123.575 19.2546V18.6899L122.047 18.7954C121.185 18.8576 120.794 19.174 120.794 19.7695C120.794 20.3774 121.283 20.7311 121.954 20.7311C122.151 20.7526 122.35 20.7312 122.539 20.6681C122.728 20.6049 122.904 20.5014 123.055 20.3636C123.206 20.2259 123.33 20.0567 123.419 19.8662C123.509 19.6756 123.562 19.4677 123.575 19.2546Z" fill="white"/>
<path d="M126.796 12.3506H128.031V21.7416H126.796V12.3506Z" fill="white"/>
<path d="M129.748 18.3617C129.709 17.9178 129.756 17.47 129.886 17.0469C130.017 16.6238 130.227 16.2348 130.505 15.9048C130.783 15.5748 131.122 15.3112 131.5 15.1308C131.878 14.9504 132.286 14.8572 132.699 14.8572C133.113 14.8572 133.521 14.9504 133.899 15.1308C134.277 15.3112 134.616 15.5748 134.893 15.9048C135.171 16.2348 135.382 16.6238 135.513 17.0469C135.643 17.47 135.69 17.9178 135.651 18.3617C135.691 18.806 135.644 19.2545 135.514 19.6783C135.384 20.1021 135.174 20.4918 134.896 20.8224C134.618 21.153 134.279 21.4172 133.9 21.598C133.522 21.7788 133.113 21.8722 132.699 21.8722C132.286 21.8722 131.877 21.7788 131.498 21.598C131.12 21.4172 130.781 21.153 130.503 20.8224C130.225 20.4918 130.015 20.1021 129.884 19.6783C129.754 19.2545 129.708 18.806 129.748 18.3617ZM134.38 18.3617C134.38 16.8976 133.771 16.0414 132.701 16.0414C131.628 16.0414 131.024 16.8976 131.024 18.3617C131.024 19.8376 131.628 20.6871 132.701 20.6871C133.771 20.6871 134.38 19.8317 134.38 18.3617H134.38Z" fill="white"/>
<path d="M145.996 19.9183C145.828 20.5356 145.465 21.0696 144.969 21.4268C144.473 21.7841 143.877 21.9418 143.284 21.8724C142.872 21.8842 142.462 21.7989 142.084 21.6226C141.705 21.4464 141.366 21.1832 141.091 20.8515C140.816 20.5198 140.611 20.1275 140.491 19.7017C140.37 19.276 140.337 18.8271 140.393 18.3861C140.338 17.9438 140.372 17.4939 140.492 17.0669C140.613 16.6399 140.816 16.2457 141.09 15.9111C141.364 15.5765 141.701 15.3092 142.078 15.1274C142.456 14.9456 142.865 14.8535 143.279 14.8573C145.02 14.8573 146.071 16.1413 146.071 18.2623V18.7274H141.652V18.8021C141.632 19.05 141.661 19.2995 141.736 19.5346C141.812 19.7697 141.931 19.9853 142.088 20.1675C142.245 20.3497 142.436 20.4945 142.648 20.5926C142.859 20.6907 143.088 20.7399 143.318 20.7371C143.614 20.7754 143.913 20.718 144.178 20.5722C144.443 20.4264 144.662 20.1988 144.807 19.9183L145.996 19.9183ZM141.652 17.7416H144.813C144.828 17.5149 144.8 17.2872 144.729 17.0731C144.658 16.859 144.546 16.6633 144.401 16.4985C144.256 16.3337 144.081 16.2035 143.886 16.1163C143.692 16.029 143.483 15.9866 143.272 15.9918C143.058 15.9889 142.846 16.0322 142.649 16.1191C142.451 16.2061 142.271 16.3349 142.12 16.4979C141.969 16.661 141.85 16.855 141.769 17.0686C141.689 17.2822 141.649 17.511 141.652 17.7416H141.652Z" fill="white"/>
<path d="M147.73 14.9876H148.919V16.0606H149.011C149.167 15.6752 149.432 15.3522 149.766 15.1365C150.101 14.9208 150.49 14.8231 150.879 14.8572C151.183 14.8325 151.489 14.8821 151.773 15.0022C152.058 15.1224 152.313 15.31 152.521 15.5513C152.729 15.7925 152.884 16.0812 152.975 16.396C153.066 16.7107 153.089 17.0434 153.045 17.3694V21.7419H151.81V17.7041C151.81 16.6187 151.373 16.0789 150.459 16.0789C150.252 16.0685 150.046 16.1065 149.854 16.1902C149.662 16.274 149.489 16.4015 149.347 16.5641C149.206 16.7267 149.098 16.9204 149.032 17.1321C148.966 17.3438 148.943 17.5684 148.965 17.7906V21.7419H147.73V14.9876Z" fill="white"/>
<path d="M163.643 19.9183C163.475 20.5356 163.111 21.0696 162.615 21.4268C162.12 21.7841 161.523 21.9418 160.931 21.8724C160.518 21.8842 160.109 21.7989 159.73 21.6226C159.351 21.4464 159.012 21.1832 158.737 20.8515C158.462 20.5198 158.257 20.1275 158.137 19.7017C158.016 19.276 157.983 18.8271 158.04 18.3861C157.985 17.9438 158.019 17.4939 158.139 17.0669C158.259 16.6399 158.463 16.2457 158.736 15.9111C159.01 15.5765 159.347 15.3092 159.725 15.1274C160.102 14.9456 160.512 14.8535 160.925 14.8573C162.667 14.8573 163.717 16.1413 163.717 18.2623V18.7274H159.298V18.8021C159.278 19.05 159.307 19.2995 159.383 19.5346C159.458 19.7697 159.578 19.9853 159.735 20.1675C159.892 20.3497 160.082 20.4945 160.294 20.5926C160.506 20.6907 160.734 20.7399 160.965 20.7371C161.26 20.7754 161.559 20.718 161.825 20.5722C162.09 20.4264 162.309 20.1988 162.454 19.9183L163.643 19.9183ZM159.298 17.7416H162.459C162.475 17.5149 162.446 17.2872 162.375 17.0731C162.304 16.859 162.193 16.6633 162.048 16.4985C161.903 16.3337 161.727 16.2035 161.533 16.1163C161.338 16.029 161.129 15.9866 160.918 15.9918C160.705 15.9889 160.493 16.0322 160.295 16.1191C160.097 16.2061 159.917 16.3348 159.766 16.4979C159.615 16.661 159.496 16.855 159.416 17.0686C159.335 17.2822 159.295 17.511 159.298 17.7416H159.298Z" fill="white"/>
<path d="M165.433 12.3506H166.668V21.7416H165.433V12.3506Z" fill="white"/>
</svg>
