<svg width="208" height="61" viewBox="0 0 208 61" fill="none" xmlns="http://www.w3.org/2000/svg">
<path d="M199.773 60.9548H7.68357C3.45761 60.9548 0 57.5799 0 53.4549V8.45525C0 4.33028 3.45761 0.955311 7.68357 0.955311H199.773C203.999 0.955311 207.456 4.33028 207.456 8.45525V53.4549C207.456 57.5799 203.999 60.9548 199.773 60.9548Z" fill="black"/>
<path d="M199.773 0.955555H7.68357C3.45761 0.955555 0 4.33053 0 8.45549V53.4551C0 57.5801 3.45761 60.9551 7.68357 60.9551H199.773C203.999 60.9551 207.456 57.5801 207.456 53.4551V8.45549C207.456 4.33053 203.999 0.955555 199.773 0.955555ZM199.773 2.15554C203.332 2.15554 206.227 4.98152 206.227 8.45549V53.4551C206.227 56.9291 203.332 59.7551 199.773 59.7551H7.68357C4.12454 59.7551 1.22938 56.9291 1.22938 53.4551V8.45549C1.22938 4.98152 4.12454 2.15554 7.68357 2.15554H199.773Z" fill="#A6A6A6"/>
<path d="M164.33 45.9549H167.197V27.2035H164.33V45.9549ZM190.157 33.958L186.87 42.0879H186.772L183.36 33.958H180.271L185.387 45.3204L182.472 51.6414H185.461L193.346 33.958H190.157ZM173.896 43.8249C172.955 43.8249 171.646 43.3674 171.646 42.2319C171.646 40.7859 173.276 40.2309 174.685 40.2309C175.946 40.2309 176.54 40.4964 177.306 40.8579C177.083 42.5949 175.551 43.8249 173.896 43.8249ZM174.241 33.5485C172.165 33.5485 170.014 34.441 169.126 36.4195L171.67 37.456C172.214 36.4195 173.227 36.0805 174.291 36.0805C175.773 36.0805 177.281 36.949 177.306 38.494V38.6859C176.786 38.3965 175.675 37.963 174.315 37.963C171.572 37.963 168.778 39.4344 168.778 42.1839C168.778 44.6934 171.028 46.3104 173.548 46.3104C175.477 46.3104 176.54 45.4659 177.207 44.4759H177.306V45.9234H180.073V38.734C180.073 35.4055 177.528 33.5485 174.241 33.5485ZM156.52 36.241H152.442V29.8135H156.52C158.664 29.8135 159.881 31.546 159.881 33.0265C159.881 34.48 158.664 36.241 156.52 36.241ZM156.446 27.2035H149.576V45.9549H152.442V38.8509H156.446C159.624 38.8509 162.748 36.604 162.748 33.0265C162.748 29.449 159.624 27.2035 156.446 27.2035ZM118.98 43.8279C116.999 43.8279 115.341 42.2094 115.341 39.9864C115.341 37.7395 116.999 36.0955 118.98 36.0955C120.936 36.0955 122.469 37.7395 122.469 39.9864C122.469 42.2094 120.936 43.8279 118.98 43.8279ZM122.273 35.008H122.173C121.529 34.2595 120.292 33.583 118.732 33.583C115.464 33.583 112.469 36.385 112.469 39.9864C112.469 43.5624 115.464 46.3419 118.732 46.3419C120.292 46.3419 121.529 45.6654 122.173 44.8914H122.273V45.8109C122.273 48.2514 120.936 49.5564 118.781 49.5564C117.023 49.5564 115.934 48.3234 115.488 47.2839L112.988 48.2994C113.706 49.9914 115.613 52.0688 118.781 52.0688C122.148 52.0688 124.996 50.1354 124.996 45.4239V33.9685H122.273V35.008ZM126.977 45.9549H129.849V27.202H126.977V45.9549ZM134.081 39.7689C134.007 37.3045 136.037 36.0475 137.497 36.0475C138.637 36.0475 139.602 36.6025 139.923 37.4005L134.081 39.7689ZM142.994 37.642C142.45 36.217 140.79 33.583 137.399 33.583C134.032 33.583 131.235 36.1675 131.235 39.9624C131.235 43.5384 134.007 46.3419 137.72 46.3419C140.716 46.3419 142.45 44.5539 143.167 43.5144L140.939 42.0639C140.197 43.1274 139.181 43.8279 137.72 43.8279C136.26 43.8279 135.22 43.1754 134.551 41.8959L143.29 38.3665L142.994 37.642ZM73.3684 35.5405V38.2465H80.0024C79.8042 39.7689 79.2848 40.8804 78.4934 41.6529C77.5268 42.5964 76.0162 43.6359 73.3684 43.6359C69.2823 43.6359 66.089 40.4214 66.089 36.4345C66.089 32.446 69.2823 29.233 73.3684 29.233C75.5721 29.233 77.181 30.079 78.3689 31.1665L80.3251 29.257C78.6655 27.7105 76.4634 26.5255 73.3684 26.5255C67.7732 26.5255 63.0694 30.973 63.0694 36.4345C63.0694 41.8959 67.7732 46.3419 73.3684 46.3419C76.3881 46.3419 78.6655 45.3744 80.4481 43.5624C82.2814 41.7744 82.8499 39.2619 82.8499 37.231C82.8499 36.6025 82.8008 36.0235 82.7009 35.5405H73.3684ZM90.3937 43.8279C88.4128 43.8279 86.704 42.2334 86.704 39.9624C86.704 37.666 88.4128 36.0955 90.3937 36.0955C92.3729 36.0955 94.0818 37.666 94.0818 39.9624C94.0818 42.2334 92.3729 43.8279 90.3937 43.8279ZM90.3937 33.583C86.7778 33.583 83.8319 36.265 83.8319 39.9624C83.8319 43.6359 86.7778 46.3419 90.3937 46.3419C94.008 46.3419 96.9539 43.6359 96.9539 39.9624C96.9539 36.265 94.008 33.583 90.3937 33.583ZM104.705 43.8279C102.724 43.8279 101.015 42.2334 101.015 39.9624C101.015 37.666 102.724 36.0955 104.705 36.0955C106.686 36.0955 108.393 37.666 108.393 39.9624C108.393 42.2334 106.686 43.8279 104.705 43.8279ZM104.705 33.583C101.091 33.583 98.1448 36.265 98.1448 39.9624C98.1448 43.6359 101.091 46.3419 104.705 46.3419C108.319 46.3419 111.265 43.6359 111.265 39.9624C111.265 36.265 108.319 33.583 104.705 33.583Z" fill="white"/>
<path d="M16.0354 12.2625C15.5898 12.7245 15.3255 13.4415 15.3255 14.37V47.5438C15.3255 48.4738 15.5898 49.1893 16.0354 49.6513L16.1492 49.7593L35.189 31.1759V30.9569V30.7364L16.1492 12.153L16.0354 12.2625Z" fill="url(#paint0_linear_29_782)"/>
<path d="M35.1881 30.7366V30.9571V31.1761L41.5332 37.374L41.6777 37.2945L49.1968 33.1246C51.3436 31.9321 51.3436 29.9821 49.1968 28.7926L41.6777 24.6212L41.5348 24.5416L35.1881 30.7366Z" fill="url(#paint1_linear_29_782)"/>
<path d="M16.0354 49.6513C16.7438 50.3818 17.9132 50.4733 19.2302 49.7443L41.6785 37.2929L35.189 30.957L16.0354 49.6513Z" fill="url(#paint2_linear_29_782)"/>
<path d="M16.0354 12.2625L35.189 30.9568L41.6785 24.6208L19.2302 12.171C18.6124 11.8275 18.027 11.6655 17.5075 11.6655C16.9174 11.6655 16.4119 11.874 16.0354 12.2625Z" fill="url(#paint3_linear_29_782)"/>
<g opacity="0.199997">
<g opacity="0.199997">
<path opacity="0.199997" d="M41.5357 37.1532L19.2303 49.5236C17.9825 50.2166 16.8668 50.1701 16.1507 49.5401L16.037 49.6526L16.1507 49.7606V49.7591C16.8668 50.3891 17.9825 50.4356 19.2303 49.7426L41.6786 37.2927L41.5357 37.1532Z" fill="black"/>
</g>
</g>
<g opacity="0.119995">
<g opacity="0.119995">
<path opacity="0.119995" d="M16.0372 49.4331C15.59 48.9711 15.3257 48.2541 15.3257 47.3257V47.5447C15.3257 48.4731 15.59 49.1901 16.0372 49.6521L16.1525 49.5411L16.0372 49.4331Z" fill="black"/>
</g>
</g>
<g opacity="0.119995">
<g opacity="0.119995">
<path opacity="0.119995" d="M49.1975 32.9033L41.5355 37.1527L41.6784 37.2922L49.1975 33.1223C50.2717 32.5268 50.808 31.7423 50.808 30.9578C50.7174 31.6673 50.1718 32.3633 49.1975 32.9033Z" fill="black"/>
</g>
</g>
<g opacity="0.25">
<g opacity="0.25">
<path opacity="0.25" d="M19.2299 12.3904L49.1973 29.0103C50.1716 29.5503 50.7187 30.2463 50.8078 30.9573C50.8094 30.1728 50.2715 29.3868 49.1973 28.7913L19.2299 12.1714C17.0816 10.9804 15.3251 11.9689 15.3251 14.3704V14.5894C15.3251 12.1894 17.0816 11.1994 19.2299 12.3904Z" fill="white"/>
</g>
</g>
<path d="M64.6203 19.3496H66.2554C67.3203 19.3496 68.164 19.0526 68.7864 18.4571C69.4087 17.8616 69.7192 17.0276 69.7192 15.9551C69.7192 14.8916 69.4087 14.0606 68.7864 13.4606C68.164 12.8621 67.3203 12.5621 66.2554 12.5621H64.6203V19.3496ZM63.4371 20.4551V11.4551H66.2554C67.6723 11.4551 68.8063 11.8721 69.6562 12.7061C70.506 13.5401 70.9301 14.6231 70.9301 15.9551C70.9301 17.2886 70.506 18.3716 69.6562 19.2041C68.8063 20.0396 67.6723 20.4551 66.2554 20.4551H63.4371Z" fill="white"/>
<path d="M64.6203 19.3496H66.2554C67.3203 19.3496 68.164 19.0526 68.7864 18.4571C69.4087 17.8616 69.7192 17.0276 69.7192 15.9551C69.7192 14.8916 69.4087 14.0606 68.7864 13.4606C68.164 12.8621 67.3203 12.5621 66.2554 12.5621H64.6203V19.3496ZM63.4371 20.4551V11.4551H66.2554C67.6723 11.4551 68.8063 11.8721 69.6562 12.7061C70.506 13.5401 70.9301 14.6231 70.9301 15.9551C70.9301 17.2886 70.506 18.3716 69.6562 19.2041C68.8063 20.0396 67.6723 20.4551 66.2554 20.4551H63.4371Z" stroke="white" stroke-width="0.266667" stroke-miterlimit="10"/>
<path d="M72.5928 11.4557H73.7776V20.4556H72.5928V11.4557Z" fill="white" stroke="white" stroke-width="0.266667" stroke-miterlimit="10"/>
<path d="M78.4899 20.6558C77.8199 20.6558 77.1668 20.4428 76.5275 20.0153C75.8867 19.5878 75.4671 18.9893 75.2704 18.2168L76.3523 17.7908C76.4814 18.2843 76.7442 18.7013 77.1437 19.0403C77.5448 19.3793 77.992 19.5503 78.4899 19.5503C79.0047 19.5503 79.4457 19.4183 79.8099 19.1543C80.1756 18.8903 80.357 18.5318 80.357 18.0788C80.357 17.5763 80.1756 17.1893 79.8099 16.9163C79.4457 16.6448 78.8679 16.3913 78.078 16.1558C77.262 15.9053 76.6443 15.5798 76.2232 15.1823C75.8037 14.7833 75.5916 14.2748 75.5916 13.6538C75.5916 13.0088 75.8544 12.4478 76.3784 11.9708C76.9024 11.4938 77.5847 11.2538 78.4253 11.2538C79.2075 11.2538 79.8422 11.4443 80.3308 11.8253C80.8211 12.2078 81.1392 12.6233 81.2836 13.0763L80.2033 13.5158C80.1249 13.2323 79.9344 12.9668 79.6301 12.7238C79.3258 12.4823 78.9324 12.3608 78.4514 12.3608C77.9966 12.3608 77.6078 12.4838 77.2866 12.7313C76.9639 12.9788 76.8025 13.2863 76.8025 13.6538C76.8025 13.9898 76.9516 14.2733 77.2467 14.5028C77.5448 14.7338 77.9797 14.9408 78.5544 15.1253C79.0093 15.2678 79.3888 15.4058 79.6946 15.5408C79.9989 15.6743 80.3093 15.8528 80.6213 16.0748C80.9348 16.2968 81.1699 16.5728 81.3297 16.9043C81.488 17.2358 81.5679 17.6183 81.5679 18.0548C81.5679 18.4898 81.4757 18.8798 81.2913 19.2233C81.1069 19.5668 80.861 19.8398 80.5567 20.0408C80.2509 20.2418 79.9252 20.3948 79.5717 20.4983C79.2198 20.6033 78.8587 20.6558 78.4899 20.6558Z" fill="white"/>
<path d="M78.4899 20.6558C77.8199 20.6558 77.1668 20.4428 76.5275 20.0153C75.8867 19.5878 75.4671 18.9893 75.2704 18.2168L76.3523 17.7908C76.4814 18.2843 76.7442 18.7013 77.1437 19.0403C77.5448 19.3793 77.992 19.5503 78.4899 19.5503C79.0047 19.5503 79.4457 19.4183 79.8099 19.1543C80.1756 18.8903 80.357 18.5318 80.357 18.0788C80.357 17.5763 80.1756 17.1893 79.8099 16.9163C79.4457 16.6448 78.8679 16.3913 78.078 16.1558C77.262 15.9053 76.6443 15.5798 76.2232 15.1823C75.8037 14.7833 75.5916 14.2748 75.5916 13.6538C75.5916 13.0088 75.8544 12.4478 76.3784 11.9708C76.9024 11.4938 77.5847 11.2538 78.4253 11.2538C79.2075 11.2538 79.8422 11.4443 80.3308 11.8253C80.8211 12.2078 81.1392 12.6233 81.2836 13.0763L80.2033 13.5158C80.1249 13.2323 79.9344 12.9668 79.6301 12.7238C79.3258 12.4823 78.9324 12.3608 78.4514 12.3608C77.9966 12.3608 77.6078 12.4838 77.2866 12.7313C76.9639 12.9788 76.8025 13.2863 76.8025 13.6538C76.8025 13.9898 76.9516 14.2733 77.2467 14.5028C77.5448 14.7338 77.9797 14.9408 78.5544 15.1253C79.0093 15.2678 79.3888 15.4058 79.6946 15.5408C79.9989 15.6743 80.3093 15.8528 80.6213 16.0748C80.9348 16.2968 81.1699 16.5728 81.3297 16.9043C81.488 17.2358 81.5679 17.6183 81.5679 18.0548C81.5679 18.4898 81.4757 18.8798 81.2913 19.2233C81.1069 19.5668 80.861 19.8398 80.5567 20.0408C80.2509 20.2418 79.9252 20.3948 79.5717 20.4983C79.2198 20.6033 78.8587 20.6558 78.4899 20.6558Z" stroke="white" stroke-width="0.266667" stroke-miterlimit="10"/>
<path d="M84.4517 15.7036H86.4356C86.9335 15.7036 87.333 15.5416 87.6327 15.2146C87.9339 14.8876 88.083 14.5276 88.083 14.1331C88.083 13.7386 87.9339 13.3786 87.6327 13.0516C87.333 12.7246 86.9335 12.5611 86.4356 12.5611H84.4517V15.7036ZM84.4517 20.4556H83.2669V11.4557H86.4095C87.1901 11.4557 87.8678 11.7092 88.4379 12.2162C89.0096 12.7231 89.2939 13.3621 89.2939 14.1331C89.2939 14.9041 89.0096 15.5431 88.4379 16.0486C87.8678 16.5571 87.1901 16.8106 86.4095 16.8106H84.4517V20.4556Z" fill="white"/>
<path d="M84.4517 15.7036H86.4356C86.9335 15.7036 87.333 15.5416 87.6327 15.2146C87.9339 14.8876 88.083 14.5276 88.083 14.1331C88.083 13.7386 87.9339 13.3786 87.6327 13.0516C87.333 12.7246 86.9335 12.5611 86.4356 12.5611H84.4517V15.7036ZM84.4517 20.4556H83.2669V11.4557H86.4095C87.1901 11.4557 87.8678 11.7092 88.4379 12.2162C89.0096 12.7231 89.2939 13.3621 89.2939 14.1331C89.2939 14.9041 89.0096 15.5431 88.4379 16.0486C87.8678 16.5571 87.1901 16.8106 86.4095 16.8106H84.4517V20.4556Z" stroke="white" stroke-width="0.266667" stroke-miterlimit="10"/>
<path d="M92.4416 18.5388C93.1239 19.2138 93.9583 19.5497 94.9464 19.5497C95.933 19.5497 96.769 19.2138 97.4513 18.5388C98.1336 17.8638 98.4762 17.0028 98.4762 15.9558C98.4762 14.9088 98.1336 14.0463 97.4513 13.3728C96.769 12.6978 95.933 12.3603 94.9464 12.3603C93.9583 12.3603 93.1239 12.6978 92.4416 13.3728C91.7608 14.0463 91.4181 14.9088 91.4181 15.9558C91.4181 17.0028 91.7608 17.8638 92.4416 18.5388ZM98.3272 19.2918C97.4205 20.2022 96.2941 20.6567 94.9464 20.6567C93.5987 20.6567 92.4723 20.2022 91.5672 19.2918C90.6605 18.3828 90.2087 17.2713 90.2087 15.9558C90.2087 14.6403 90.6605 13.5273 91.5672 12.6183C92.4723 11.7093 93.5987 11.2533 94.9464 11.2533C96.2864 11.2533 97.4098 11.7108 98.321 12.6243C99.2308 13.5378 99.6856 14.6478 99.6856 15.9558C99.6856 17.2713 99.2323 18.3828 98.3272 19.2918Z" fill="white"/>
<path d="M92.4416 18.5388C93.1239 19.2138 93.9583 19.5497 94.9464 19.5497C95.933 19.5497 96.769 19.2138 97.4513 18.5388C98.1336 17.8638 98.4762 17.0028 98.4762 15.9558C98.4762 14.9088 98.1336 14.0463 97.4513 13.3728C96.769 12.6978 95.933 12.3603 94.9464 12.3603C93.9583 12.3603 93.1239 12.6978 92.4416 13.3728C91.7608 14.0463 91.4181 14.9088 91.4181 15.9558C91.4181 17.0028 91.7608 17.8638 92.4416 18.5388ZM98.3272 19.2918C97.4205 20.2022 96.2941 20.6567 94.9464 20.6567C93.5987 20.6567 92.4723 20.2022 91.5672 19.2918C90.6605 18.3828 90.2087 17.2713 90.2087 15.9558C90.2087 14.6403 90.6605 13.5273 91.5672 12.6183C92.4723 11.7093 93.5987 11.2533 94.9464 11.2533C96.2864 11.2533 97.4098 11.7108 98.321 12.6243C99.2308 13.5378 99.6856 14.6478 99.6856 15.9558C99.6856 17.2713 99.2323 18.3828 98.3272 19.2918Z" stroke="white" stroke-width="0.266667" stroke-miterlimit="10"/>
<path d="M101.348 20.4556V11.4557H102.79L107.272 18.4561H107.323L107.272 16.7221V11.4557H108.457V20.4556H107.22L102.533 13.1146H102.481L102.533 14.8501V20.4556H101.348Z" fill="white"/>
<path d="M101.348 20.4556V11.4557H102.79L107.272 18.4561H107.323L107.272 16.7221V11.4557H108.457V20.4556H107.22L102.533 13.1146H102.481L102.533 14.8501V20.4556H101.348Z" stroke="white" stroke-width="0.266667" stroke-miterlimit="10"/>
<path d="M110.568 11.4557H111.753V20.4556H110.568V11.4557Z" fill="white" stroke="white" stroke-width="0.266667" stroke-miterlimit="10"/>
<path d="M115.048 19.3496H117.431C117.886 19.3496 118.255 19.1936 118.538 18.8831C118.822 18.5741 118.963 18.2351 118.963 17.8661C118.963 17.4971 118.817 17.1596 118.525 16.8536C118.234 16.5491 117.851 16.3946 117.379 16.3946H115.048V19.3496ZM115.048 15.3146H117.198C117.645 15.3146 118.005 15.1706 118.275 14.8811C118.544 14.5916 118.679 14.2751 118.679 13.9316C118.679 13.5881 118.549 13.2731 118.286 12.9896C118.025 12.7046 117.68 12.5621 117.252 12.5621H115.048V15.3146ZM113.863 20.4551V11.4551H117.198C117.92 11.4551 118.544 11.6891 119.073 12.1526C119.601 12.6191 119.865 13.2026 119.865 13.9061C119.865 14.3336 119.752 14.7116 119.523 15.0386C119.297 15.3656 118.993 15.6116 118.615 15.7796V15.8291C119.069 15.9806 119.443 16.2401 119.736 16.6091C120.027 16.9781 120.174 17.4056 120.174 17.8916C120.174 18.6296 119.896 19.2401 119.343 19.7261C118.79 20.2121 118.135 20.4551 117.379 20.4551H113.863Z" fill="white"/>
<path d="M115.048 19.3496H117.431C117.886 19.3496 118.255 19.1936 118.538 18.8831C118.822 18.5741 118.963 18.2351 118.963 17.8661C118.963 17.4971 118.817 17.1596 118.525 16.8536C118.234 16.5491 117.851 16.3946 117.379 16.3946H115.048V19.3496ZM115.048 15.3146H117.198C117.645 15.3146 118.005 15.1706 118.275 14.8811C118.544 14.5916 118.679 14.2751 118.679 13.9316C118.679 13.5881 118.549 13.2731 118.286 12.9896C118.025 12.7046 117.68 12.5621 117.252 12.5621H115.048V15.3146ZM113.863 20.4551V11.4551H117.198C117.92 11.4551 118.544 11.6891 119.073 12.1526C119.601 12.6191 119.865 13.2026 119.865 13.9061C119.865 14.3336 119.752 14.7116 119.523 15.0386C119.297 15.3656 118.993 15.6116 118.615 15.7796V15.8291C119.069 15.9806 119.443 16.2401 119.736 16.6091C120.027 16.9781 120.174 17.4056 120.174 17.8916C120.174 18.6296 119.896 19.2401 119.343 19.7261C118.79 20.2121 118.135 20.4551 117.379 20.4551H113.863Z" stroke="white" stroke-width="0.266667" stroke-miterlimit="10"/>
<path d="M121.771 20.4556V11.4557H122.954V19.3501H126.947V20.4556H121.771Z" fill="white"/>
<path d="M121.771 20.4556V11.4557H122.954V19.3501H126.947V20.4556H121.771Z" stroke="white" stroke-width="0.266667" stroke-miterlimit="10"/>
<path d="M133.825 12.5614H129.627V15.4143H133.412V16.4958H129.627V19.3488H133.825V20.4558H128.442V11.4559H133.825V12.5614Z" fill="white"/>
<path d="M133.825 12.5614H129.627V15.4143H133.412V16.4958H129.627V19.3488H133.825V20.4558H128.442V11.4559H133.825V12.5614Z" stroke="white" stroke-width="0.266667" stroke-miterlimit="10"/>
<path d="M144.153 12.5614H139.954V15.4143H143.739V16.4958H139.954V19.3488H144.153V20.4558H138.77V11.4559H144.153V12.5614Z" fill="white"/>
<path d="M144.153 12.5614H139.954V15.4143H143.739V16.4958H139.954V19.3488H144.153V20.4558H138.77V11.4559H144.153V12.5614Z" stroke="white" stroke-width="0.266667" stroke-miterlimit="10"/>
<path d="M146.006 20.4556V11.4557H147.447L151.928 18.4561H151.98L151.928 16.7221V11.4557H153.115V20.4556H151.878L147.189 13.1146H147.138L147.189 14.8501V20.4556H146.006Z" fill="white"/>
<path d="M146.006 20.4556V11.4557H147.447L151.928 18.4561H151.98L151.928 16.7221V11.4557H153.115V20.4556H151.878L147.189 13.1146H147.138L147.189 14.8501V20.4556H146.006Z" stroke="white" stroke-width="0.266667" stroke-miterlimit="10"/>
<defs>
<linearGradient id="paint0_linear_29_782" x1="33.4998" y1="14.0201" x2="8.33371" y2="39.8023" gradientUnits="userSpaceOnUse">
<stop stop-color="#00A0FF"/>
<stop offset="0.00657445" stop-color="#00A1FF"/>
<stop offset="0.2601" stop-color="#00BEFF"/>
<stop offset="0.5122" stop-color="#00D2FF"/>
<stop offset="0.7604" stop-color="#00DFFF"/>
<stop offset="1" stop-color="#00E3FF"/>
</linearGradient>
<linearGradient id="paint1_linear_29_782" x1="51.9927" y1="30.9578" x2="14.809" y2="30.9578" gradientUnits="userSpaceOnUse">
<stop stop-color="#FFE000"/>
<stop offset="0.4087" stop-color="#FFBD00"/>
<stop offset="0.7754" stop-color="#FFA500"/>
<stop offset="1" stop-color="#FF9C00"/>
</linearGradient>
<linearGradient id="paint2_linear_29_782" x1="38.1517" y1="34.3996" x2="4.02453" y2="69.3623" gradientUnits="userSpaceOnUse">
<stop stop-color="#FF3A44"/>
<stop offset="1" stop-color="#C31162"/>
</linearGradient>
<linearGradient id="paint3_linear_29_782" x1="11.2137" y1="1.21983" x2="26.4528" y2="16.8322" gradientUnits="userSpaceOnUse">
<stop stop-color="#32A071"/>
<stop offset="0.0685" stop-color="#2DA771"/>
<stop offset="0.4762" stop-color="#15CF74"/>
<stop offset="0.8009" stop-color="#06E775"/>
<stop offset="1" stop-color="#00F076"/>
</linearGradient>
</defs>
</svg>
