<svg width="40" height="40" viewBox="0 0 40 40" fill="none" xmlns="http://www.w3.org/2000/svg">
<path d="M9.52961 0.151096C8.65104 0.305691 7.18715 0.787003 6.39743 1.19571C3.15846 2.84891 0.825167 6.0823 0.248218 9.7248C0.0442138 11.0146 0.0442138 28.9636 0.248218 30.2533C0.629929 32.6514 1.72127 34.8132 3.44256 36.5663C4.77337 37.9381 6.10457 38.7828 7.87925 39.3914C9.45869 39.9274 9.98225 39.9727 15.2704 39.9727H19.9908V32.5694V25.1665H17.5507H15.1106V21.9874V18.8082H17.5507H19.9908V16.7736C19.9908 15.6564 20.035 14.321 20.0797 13.8033C20.4259 10.3061 22.1384 7.69022 24.7471 6.67293C25.8296 6.25525 26.4508 6.19161 29.5563 6.18223H32.4131V9.3524V12.5226L30.5763 12.5589C28.9439 12.5952 28.6777 12.6225 28.2338 12.795C27.2931 13.1764 26.7696 13.7397 26.4592 14.7207C26.2994 15.2114 26.2552 15.5928 26.2197 17.0551L26.1842 18.8082H29.281H32.3864L31.7653 21.9874L31.1441 25.1665H28.6773H26.2018V32.5788V40L27.8701 39.9457C29.0678 39.9094 29.7424 39.8458 30.2835 39.7186C32.4928 39.1826 34.2496 38.1926 35.829 36.5667C37.4085 34.9588 38.3492 33.224 38.917 30.8897C39.1034 30.1359 39.1034 29.936 39.1301 20.4255C39.1656 9.65261 39.1656 9.74357 38.5887 7.95372C37.9854 6.12798 37.1602 4.76521 35.8382 3.41181C34.1077 1.64073 32.0051 0.532478 29.6627 0.141716C28.4645 -0.0487709 10.6919 -0.0487709 9.52961 0.151096Z" fill="white"/>
</svg>
