<svg width="608" height="462" viewBox="0 0 608 462" fill="none" xmlns="http://www.w3.org/2000/svg">
<path d="M473.349 267.093C547.061 267.093 606.816 207.302 606.816 133.547C606.816 59.7908 547.061 0 473.349 0C399.637 0 339.882 59.7908 339.882 133.547C339.882 207.302 399.637 267.093 473.349 267.093Z" fill="#D7F4FC"/>
<path d="M607.5 248.104V227.77C607.5 225.85 607.122 223.948 606.388 222.175C605.653 220.401 604.577 218.789 603.22 217.431C601.864 216.074 600.253 214.997 598.48 214.262C596.707 213.527 594.807 213.149 592.888 213.149H552.486C548.611 213.149 544.894 211.609 542.154 208.867C539.414 206.125 537.875 202.407 537.875 198.529V178.195C537.875 170.12 555.588 163.575 563.657 163.575H565.286C569.161 163.575 572.878 162.034 575.618 159.292C578.358 156.551 579.897 152.832 579.897 148.954V128.62C579.897 124.743 578.358 121.024 575.618 118.282C572.878 115.54 569.161 114 565.286 114H71.6156C69.6968 114 67.7967 114.378 66.024 115.113C64.2512 115.848 62.6405 116.925 61.2837 118.282C59.9269 119.64 58.8506 121.252 58.1163 123.025C57.382 124.799 57.004 126.7 57.004 128.62V148.954C57.004 150.874 57.382 152.776 58.1163 154.549C58.8506 156.323 59.9269 157.935 61.2837 159.292C62.6405 160.65 64.2512 161.727 66.024 162.462C67.7967 163.196 69.6968 163.575 71.6156 163.575C73.5344 163.575 75.4344 163.953 77.2072 164.688C78.9799 165.422 80.5907 166.499 81.9475 167.857C83.3043 169.214 84.3806 170.826 85.1149 172.6C85.8492 174.374 86.2271 176.275 86.2271 178.195V198.529C86.2271 202.407 84.6877 206.125 81.9475 208.867C79.2073 211.609 75.4908 213.149 71.6156 213.149H15.1115C11.2363 213.149 7.5198 214.69 4.77961 217.431C2.03942 220.173 0.5 223.892 0.5 227.77V248.104C0.5 251.981 2.03942 255.7 4.77961 258.442C7.5198 261.184 11.2363 262.724 15.1115 262.724H37.2829C39.2017 262.724 41.1017 263.102 42.8745 263.837C44.6472 264.572 46.258 265.648 47.6148 267.006C48.9716 268.364 50.0479 269.975 50.7821 271.749C51.5164 273.523 51.8944 275.424 51.8944 277.344V297.678C51.8944 301.556 50.355 305.275 47.6148 308.017C44.8746 310.758 41.1581 312.299 37.2829 312.299H37.2292C33.354 312.299 29.6375 313.839 26.8974 316.581C24.1572 319.323 22.6177 323.041 22.6177 326.919V347.253C22.6177 351.131 24.1572 354.849 26.8974 357.591C29.6376 360.333 33.3541 361.873 37.2293 361.873H40.437C44.3122 361.873 48.0287 363.414 50.7689 366.155C53.5091 368.897 55.0485 372.616 55.0485 376.494V396.828C55.0485 398.748 54.6706 400.649 53.9363 402.423C53.202 404.197 52.1257 405.808 50.7689 407.166C49.4121 408.523 47.8013 409.6 46.0286 410.335C44.2558 411.07 42.3558 411.448 40.437 411.448H21.3066C17.4314 411.448 13.7149 412.988 10.9747 415.73C8.23452 418.472 6.69509 422.191 6.69507 426.068V446.402C6.69507 450.28 8.2345 453.999 10.9747 456.74C13.7149 459.482 17.4314 461.023 21.3066 461.023H561.959C565.834 461.023 569.551 459.482 572.291 456.74C575.031 453.999 576.57 450.28 576.57 446.402V426.068C576.57 422.191 575.031 418.472 572.291 415.73C569.551 412.988 565.834 411.448 561.959 411.448H549.29C547.371 411.448 545.471 411.07 543.699 410.335C541.926 409.6 540.315 408.523 538.958 407.166C537.601 405.808 536.525 404.196 535.791 402.423C535.057 400.649 534.679 398.748 534.679 396.828V376.493C534.679 372.616 536.218 368.897 538.958 366.155C541.698 363.414 545.415 361.873 549.29 361.873H579.162C583.037 361.873 586.754 360.333 589.494 357.591C592.234 354.849 593.774 351.131 593.774 347.253V326.919C593.774 324.999 593.396 323.098 592.661 321.324C591.927 319.55 590.851 317.938 589.494 316.581C588.137 315.223 586.526 314.146 584.754 313.412C582.981 312.677 581.081 312.299 579.162 312.299H570.1C568.182 312.299 566.282 311.921 564.509 311.186C562.736 310.451 561.125 309.374 559.768 308.017C558.412 306.659 557.335 305.047 556.601 303.273C555.867 301.5 555.489 299.598 555.489 297.678V277.344C555.489 273.467 557.028 269.748 559.768 267.006C562.509 264.264 566.225 262.724 570.1 262.724H592.888C594.807 262.724 596.707 262.346 598.48 261.611C600.253 260.876 601.864 259.799 603.22 258.442C604.577 257.084 605.653 255.472 606.388 253.699C607.122 251.925 607.5 250.024 607.5 248.104Z" fill="#D7F4FC"/>
<path d="M459.351 132.513C402.426 131.549 345.677 115.297 294.201 84.9542C242.772 115.297 186.023 131.549 129.087 132.513C117.483 256.454 154.971 405.592 294.201 461C433.478 405.592 470.825 256.454 459.351 132.513V132.513Z" fill="#217A92"/>
<path d="M420.57 165.497C377.012 164.76 333.589 152.324 294.201 129.107C254.849 152.324 211.427 164.76 167.86 165.497C158.981 260.334 187.666 374.45 294.201 416.847C400.772 374.45 429.349 260.334 420.57 165.497Z" fill="#D7F4FC"/>
<path d="M476.641 210.87C521.77 210.87 558.355 174.264 558.355 129.107C558.355 83.9501 521.77 47.3433 476.641 47.3433C431.511 47.3433 394.926 83.9501 394.926 129.107C394.926 174.264 431.511 210.87 476.641 210.87Z" fill="#EE781D"/>
<path d="M479.004 161.13H436.036C435.207 161.13 434.392 160.911 433.673 160.496C432.955 160.081 432.359 159.485 431.944 158.766C431.529 158.047 431.311 157.232 431.311 156.402C431.311 155.572 431.529 154.757 431.944 154.038L453.428 116.804L474.912 79.5698C475.327 78.851 475.923 78.2542 476.642 77.8392C477.36 77.4242 478.175 77.2057 479.004 77.2057C479.834 77.2057 480.649 77.4242 481.367 77.8392C482.085 78.2542 482.682 78.851 483.097 79.5698L504.581 116.804L526.065 154.038C526.48 154.757 526.698 155.572 526.698 156.402C526.698 157.232 526.48 158.047 526.065 158.766C525.65 159.485 525.054 160.081 524.335 160.496C523.617 160.911 522.802 161.13 521.973 161.13L479.004 161.13Z" fill="#F9AE2B"/>
<path d="M481.369 99.5587C481.369 98.2524 480.31 97.1935 479.005 97.1935C477.699 97.1935 476.641 98.2524 476.641 99.5587V134.819C476.641 136.125 477.699 137.184 479.005 137.184C480.31 137.184 481.369 136.125 481.369 134.819V99.5587Z" fill="#217A92"/>
<path d="M484.632 149.046C484.94 145.936 482.67 143.165 479.562 142.857C476.454 142.549 473.684 144.821 473.377 147.931C473.069 151.041 475.339 153.812 478.447 154.12C481.555 154.428 484.325 152.156 484.632 149.046Z" fill="#217A92"/>
<path d="M273.116 253.746V225.024C273.116 222.144 273.687 219.293 274.795 216.635C275.902 213.977 277.526 211.564 279.57 209.538C281.615 207.511 284.041 205.909 286.708 204.826C289.375 203.743 292.23 203.199 295.108 203.225H297.502C300.38 203.197 303.236 203.741 305.903 204.824C308.57 205.907 310.997 207.508 313.042 209.535C315.087 211.562 316.71 213.975 317.818 216.633C318.925 219.292 319.495 222.144 319.494 225.024V234.7C319.499 235.349 319.758 235.969 320.215 236.429C320.673 236.89 321.292 237.152 321.94 237.16L333.522 237.213C333.846 237.214 334.167 237.152 334.466 237.028C334.766 236.905 335.038 236.724 335.268 236.496C335.498 236.267 335.68 235.996 335.805 235.696C335.929 235.397 335.994 235.076 335.994 234.752V226.625C335.995 221.64 335.014 216.703 333.107 212.097C331.199 207.491 328.403 203.307 324.878 199.784C321.352 196.26 317.168 193.467 312.562 191.563C307.957 189.66 303.022 188.684 298.04 188.691H294.57C289.589 188.686 284.656 189.664 280.052 191.569C275.449 193.473 271.266 196.267 267.742 199.79C264.219 203.313 261.423 207.496 259.517 212.101C257.61 216.705 256.628 221.641 256.629 226.625V254.513L273.116 253.746Z" fill="#EE781D"/>
<path d="M341.473 336.334C344.372 336.327 347.15 335.172 349.2 333.121C351.25 331.07 352.405 328.29 352.412 325.389V263.139C352.405 260.239 351.25 257.459 349.2 255.408C347.15 253.357 344.372 252.201 341.473 252.194H251.15C248.251 252.201 245.473 253.357 243.423 255.408C241.373 257.459 240.218 260.239 240.211 263.139V325.389C240.218 328.29 241.373 331.07 243.423 333.121C245.473 335.172 248.251 336.327 251.15 336.334H341.473Z" fill="#F9AE2B"/>
<path d="M296.312 273.546C293.206 273.557 290.231 274.796 288.035 276.994C285.84 279.191 284.602 282.169 284.592 285.276C284.646 287.04 285.103 288.769 285.929 290.328C286.755 291.888 287.928 293.237 289.357 294.272V308.036C289.357 309.882 290.089 311.652 291.394 312.957C292.698 314.262 294.467 314.995 296.312 314.995C298.156 314.995 299.925 314.262 301.229 312.957C302.534 311.652 303.266 309.882 303.266 308.036V294.272C304.693 293.235 305.864 291.885 306.69 290.326C307.515 288.767 307.974 287.04 308.031 285.276C308.021 282.169 306.783 279.191 304.588 276.994C302.392 274.796 299.417 273.557 296.312 273.546Z" fill="#EE781D"/>
<path d="M73.6129 240.251H107.485" stroke="#B9D4DB" stroke-width="3" stroke-miterlimit="10"/>
<path d="M73.6129 250.02H107.485" stroke="#B9D4DB" stroke-width="3" stroke-miterlimit="10"/>
<path d="M73.6129 259.789H107.485" stroke="#B9D4DB" stroke-width="3" stroke-miterlimit="10"/>
<path d="M548.23 31.2645H582.103" stroke="#B9D4DB" stroke-width="3" stroke-miterlimit="10"/>
<path d="M548.23 41.0332H582.103" stroke="#B9D4DB" stroke-width="3" stroke-miterlimit="10"/>
<path d="M548.23 50.8019H582.103" stroke="#B9D4DB" stroke-width="3" stroke-miterlimit="10"/>
<path d="M484.66 277.294H518.532" stroke="#B9D4DB" stroke-width="3" stroke-miterlimit="10"/>
<path d="M484.66 287.062H518.532" stroke="#B9D4DB" stroke-width="3" stroke-miterlimit="10"/>
<path d="M484.66 296.831H518.532" stroke="#B9D4DB" stroke-width="3" stroke-miterlimit="10"/>
<path d="M189.359 97.8312C198.873 97.8312 206.585 90.1142 206.585 80.5948C206.585 71.0754 198.873 63.3584 189.359 63.3584C179.846 63.3584 172.133 71.0754 172.133 80.5948C172.133 90.1142 179.846 97.8312 189.359 97.8312Z" fill="#B9D4DB"/>
<path d="M193.674 54.689C198.629 54.689 202.646 50.6694 202.646 45.7109C202.646 40.7524 198.629 36.7327 193.674 36.7327C188.718 36.7327 184.701 40.7524 184.701 45.7109C184.701 50.6694 188.718 54.689 193.674 54.689Z" fill="#B9D4DB"/>
<path d="M225.255 51.8455C228.113 51.8455 230.431 49.5268 230.431 46.6666C230.431 43.8064 228.113 41.4878 225.255 41.4878C222.396 41.4878 220.078 43.8064 220.078 46.6666C220.078 49.5268 222.396 51.8455 225.255 51.8455Z" fill="#B9D4DB"/>
<path d="M228.326 87.8196C235.178 87.8196 240.733 82.2613 240.733 75.4047C240.733 68.5482 235.178 62.9898 228.326 62.9898C221.473 62.9898 215.918 68.5482 215.918 75.4047C215.918 82.2613 221.473 87.8196 228.326 87.8196Z" fill="#B9D4DB"/>
<path d="M436.519 440.606C446.033 440.606 453.745 432.889 453.745 423.369C453.745 413.85 446.033 406.133 436.519 406.133C427.005 406.133 419.293 413.85 419.293 423.369C419.293 432.889 427.005 440.606 436.519 440.606Z" fill="#B9D4DB"/>
<path d="M412.43 406.763C417.385 406.763 421.403 402.744 421.403 397.785C421.403 392.827 417.385 388.807 412.43 388.807C407.474 388.807 403.457 392.827 403.457 397.785C403.457 402.744 407.474 406.763 412.43 406.763Z" fill="#B9D4DB"/>
<path d="M433.318 379.245C436.177 379.245 438.495 376.926 438.495 374.066C438.495 371.206 436.177 368.887 433.318 368.887C430.46 368.887 428.142 371.206 428.142 374.066C428.142 376.926 430.46 379.245 433.318 379.245Z" fill="#B9D4DB"/>
<path d="M457.391 402.453C464.244 402.453 469.799 396.895 469.799 390.038C469.799 383.181 464.244 377.623 457.391 377.623C450.539 377.623 444.984 383.181 444.984 390.038C444.984 396.895 450.539 402.453 457.391 402.453Z" fill="#B9D4DB"/>
<path d="M105.695 413.478C115.208 413.478 122.921 405.761 122.921 396.241C122.921 386.722 115.208 379.005 105.695 379.005C96.1809 379.005 88.4685 386.722 88.4685 396.241C88.4685 405.761 96.1809 413.478 105.695 413.478Z" fill="#B9D4DB"/>
<path d="M81.6055 379.635C86.561 379.635 90.5783 375.616 90.5783 370.657C90.5783 365.699 86.561 361.679 81.6055 361.679C76.65 361.679 72.6327 365.699 72.6327 370.657C72.6327 375.616 76.65 379.635 81.6055 379.635Z" fill="#B9D4DB"/>
<path d="M102.494 352.116C105.353 352.116 107.67 349.798 107.67 346.938C107.67 344.077 105.353 341.759 102.494 341.759C99.6352 341.759 97.3177 344.077 97.3177 346.938C97.3177 349.798 99.6352 352.116 102.494 352.116Z" fill="#B9D4DB"/>
<path d="M126.567 375.325C133.419 375.325 138.974 369.766 138.974 362.91C138.974 356.053 133.419 350.495 126.567 350.495C119.714 350.495 114.159 356.053 114.159 362.91C114.159 369.766 119.714 375.325 126.567 375.325Z" fill="#B9D4DB"/>
</svg>
