<svg width="120" height="120" viewBox="0 0 120 120" fill="none" xmlns="http://www.w3.org/2000/svg">
<circle cx="60" cy="60" r="60" fill="white"/>
<path d="M59.7478 74.9472C58.6243 74.9472 57.6833 74.589 56.9246 73.8724C56.1633 73.1584 55.7826 72.2727 55.7826 71.2153V44.4386L48.2488 51.436C47.5218 52.1202 46.6138 52.4785 45.5247 52.5108C44.4329 52.5407 43.4905 52.1824 42.6975 51.436C41.9706 50.7518 41.6071 49.881 41.6071 48.8236C41.6071 47.7663 41.9706 46.8955 42.6975 46.2113L56.9722 32.7763C57.3687 32.4031 57.7983 32.1381 58.2609 31.9814C58.7235 31.8271 59.2191 31.75 59.7478 31.75C60.2765 31.75 60.7722 31.8271 61.2348 31.9814C61.6974 32.1381 62.1269 32.4031 62.5234 32.7763L76.7981 46.2113C77.5251 46.8955 77.9044 47.7501 77.9361 48.7751C77.9705 49.8027 77.5912 50.6896 76.7981 51.436C76.0712 52.1202 75.146 52.4623 74.0225 52.4623C72.899 52.4623 71.9738 52.1202 71.2469 51.436L63.713 44.4386V71.2153C63.713 72.2727 63.3337 73.1584 62.575 73.8724C61.8137 74.589 60.8713 74.9472 59.7478 74.9472ZM43.8871 89.875C42.7636 89.875 41.8212 89.5167 41.0599 88.8002C40.3012 88.0862 39.9219 87.2004 39.9219 86.1431C39.9219 85.0857 40.3012 84.2 41.0599 83.4859C41.8212 82.7694 42.7636 82.4111 43.8871 82.4111H75.6086C76.732 82.4111 77.6731 82.7694 78.4318 83.4859C79.1931 84.2 79.5738 85.0857 79.5738 86.1431C79.5738 87.2004 79.1931 88.0862 78.4318 88.8002C77.6731 89.5167 76.732 89.875 75.6086 89.875H43.8871Z" fill="#217A92"/>
</svg>
