<svg width="120" height="120" viewBox="0 0 120 120" fill="none" xmlns="http://www.w3.org/2000/svg">
<circle cx="60" cy="60" r="60" fill="white"/>
<g filter="url(#filter0_b_188_626)">
<path d="M71.8285 39.3749C71.8282 37.1755 72.6497 35.0462 74.1492 33.3592C75.6487 31.6723 77.7308 30.5353 80.0312 30.1472C82.3316 29.759 84.7038 30.1444 86.7327 31.2359C88.7616 32.3274 90.3181 34.0555 91.1299 36.1179C91.9416 38.1803 91.9569 40.4456 91.1731 42.5176C90.3892 44.5895 88.8562 46.3361 86.8421 47.4518C84.8281 48.5674 82.4613 48.9811 80.1559 48.6205C77.8505 48.2599 75.7532 47.1479 74.231 45.479L47.4644 57.1774C48.0797 59.0125 48.0797 60.9814 47.4644 62.8166L74.231 74.5149C75.84 72.7539 78.0865 71.6177 80.5349 71.3266C82.9834 71.0354 85.4596 71.61 87.4835 72.939C89.5075 74.268 90.9351 76.2568 91.4897 78.5198C92.0443 80.7829 91.6864 83.1592 90.4853 85.1881C89.2843 87.217 87.3256 88.7541 84.9889 89.5014C82.6523 90.2488 80.104 90.1532 77.8379 89.2332C75.5718 88.3132 73.7494 86.6342 72.7238 84.5218C71.6982 82.4094 71.5424 80.0138 72.2866 77.7995L45.5201 66.1011C44.195 67.5543 42.4288 68.5907 40.4591 69.071C38.4894 69.5513 36.4106 69.4524 34.5024 68.7875C32.5942 68.1227 30.9482 66.9239 29.7857 65.3523C28.6232 63.7807 28 61.9118 28 59.997C28 58.0821 28.6232 56.2132 29.7857 54.6416C30.9482 53.0701 32.5942 51.8712 34.5024 51.2064C36.4106 50.5416 38.4894 50.4426 40.4591 50.9229C42.4288 51.4032 44.195 52.4396 45.5201 53.8928L72.2866 42.1945C71.982 41.2821 71.8274 40.3312 71.8285 39.3749Z" fill="#217A92"/>
</g>
<defs>
<filter id="filter0_b_188_626" x="24" y="26" width="71.75" height="68" filterUnits="userSpaceOnUse" color-interpolation-filters="sRGB">
<feFlood flood-opacity="0" result="BackgroundImageFix"/>
<feGaussianBlur in="BackgroundImage" stdDeviation="2"/>
<feComposite in2="SourceAlpha" operator="in" result="effect1_backgroundBlur_188_626"/>
<feBlend mode="normal" in="SourceGraphic" in2="effect1_backgroundBlur_188_626" result="shape"/>
</filter>
</defs>
</svg>
