<svg width="120" height="120" viewBox="0 0 120 120" fill="none" xmlns="http://www.w3.org/2000/svg">
<circle cx="60" cy="60" r="60" fill="white"/>
<path d="M84.7934 33C84.5322 33 84.2641 33.0481 83.996 33.1581L44.3735 49.0786H33.0999C32.4949 49.0786 32 49.5873 32 50.2197V70.7734C32 71.4058 32.4949 71.9145 33.0999 71.9145H40.084C39.8296 72.7119 39.699 73.5574 39.699 74.4167C39.699 78.9468 43.3973 82.6313 47.948 82.6313C51.7563 82.6313 54.9665 80.0466 55.9151 76.5546L84.0029 87.8419C84.271 87.945 84.5391 88 84.8003 88C85.962 88 87 87.0239 87 85.7178V35.2822C86.9931 33.9761 85.962 33 84.7934 33ZM47.948 77.7025C46.1264 77.7025 44.6484 76.2315 44.6484 74.4167C44.6484 73.6468 44.9165 72.9113 45.4046 72.327L51.2407 74.671C51.1032 76.3621 49.6803 77.7025 47.948 77.7025Z" fill="#217A92"/>
</svg>
