<svg width="183" height="180" viewBox="0 0 183 180" fill="none" xmlns="http://www.w3.org/2000/svg">
<circle cx="90" cy="90" r="90" fill="#D7F4FC"/>
<circle cx="156" cy="156" r="15" fill="#B9D4DB"/>
<circle cx="173" cy="124" r="10" fill="#B9D4DB"/>
<circle cx="152.5" cy="130.5" r="7.5" fill="#B9D4DB"/>
<circle cx="161" cy="106" r="5" fill="#B9D4DB"/>
<path d="M81 45H49.5C47.0147 45 45 47.0147 45 49.5V81C45 83.4853 47.0147 85.5 49.5 85.5H81C83.4853 85.5 85.5 83.4853 85.5 81V49.5C85.5 47.0147 83.4853 45 81 45Z" fill="#217A92"/>
<path d="M81 94.5H49.5C47.0147 94.5 45 96.5147 45 99V130.5C45 132.985 47.0147 135 49.5 135H81C83.4853 135 85.5 132.985 85.5 130.5V99C85.5 96.5147 83.4853 94.5 81 94.5Z" fill="#7CB7C7"/>
<path d="M130.5 94.5H98.9998C96.5145 94.5 94.4998 96.5147 94.4998 99V130.5C94.4998 132.985 96.5145 135 98.9998 135H130.5C132.985 135 135 132.985 135 130.5V99C135 96.5147 132.985 94.5 130.5 94.5Z" fill="#7CB7C7"/>
<path d="M130.5 45H99C96.5147 45 94.5 47.0147 94.5 49.5V81C94.5 83.4853 96.5147 85.5 99 85.5H130.5C132.985 85.5 135 83.4853 135 81V49.5C135 47.0147 132.985 45 130.5 45Z" fill="#7CB7C7"/>
</svg>
