<svg width="120" height="120" viewBox="0 0 120 120" fill="none" xmlns="http://www.w3.org/2000/svg">
<circle cx="60" cy="60" r="60" fill="white"/>
<path d="M78.0007 53.5469H76.1733C75.1636 53.5469 74.3459 54.3597 74.3459 55.3633V60.8125C74.3459 69.3042 66.9803 76.118 58.2658 75.2734C50.6706 74.5366 45.1072 67.75 45.1072 60.1654V55.3633C45.1072 54.3597 44.2895 53.5469 43.2798 53.5469H41.4524C40.4428 53.5469 39.625 54.3597 39.625 55.3633V59.9225C39.625 70.0989 46.9312 79.1707 56.9854 80.5489V84.4258H50.5895C49.5798 84.4258 48.7621 85.2386 48.7621 86.2422V88.0586C48.7621 89.0622 49.5798 89.875 50.5895 89.875H68.8636C69.8733 89.875 70.6911 89.0622 70.6911 88.0586V86.2422C70.6911 85.2386 69.8733 84.4258 68.8636 84.4258H62.4677V80.592C72.2569 79.257 79.8281 70.9049 79.8281 60.8125V55.3633C79.8281 54.3597 79.0104 53.5469 78.0007 53.5469ZM59.7266 71.7109C65.7822 71.7109 70.6911 66.8316 70.6911 60.8125H60.9452C60.2725 60.8125 59.7266 60.4061 59.7266 59.9043V58.0879C59.7266 57.5861 60.2725 57.1797 60.9452 57.1797H70.6911V53.5469H60.9452C60.2725 53.5469 59.7266 53.1405 59.7266 52.6387V50.8223C59.7266 50.3205 60.2725 49.9141 60.9452 49.9141H70.6911V46.2812H60.9452C60.2725 46.2812 59.7266 45.8748 59.7266 45.373V43.5566C59.7266 43.0549 60.2725 42.6484 60.9452 42.6484H70.6911C70.6911 36.6293 65.7822 31.75 59.7266 31.75C53.671 31.75 48.7621 36.6293 48.7621 42.6484V60.8125C48.7621 66.8316 53.671 71.7109 59.7266 71.7109Z" fill="#217A92"/>
</svg>
