<svg width="64" height="60" viewBox="0 0 64 60" fill="none" xmlns="http://www.w3.org/2000/svg">
<rect x="0.547485" width="63.3484" height="60" rx="8" fill="#217A92"/>
<path d="M48.0588 12.6088C48.7589 12.6088 49.4302 12.8836 49.9253 13.3728C50.4203 13.8621 50.6983 14.5256 50.6983 15.2175V36.0875C50.6983 36.7794 50.4203 37.443 49.9253 37.9322C49.4302 38.4214 48.7589 38.6963 48.0588 38.6963H41.46C40.6405 38.6963 39.8322 38.8849 39.0992 39.2471C38.3662 39.6093 37.7285 40.1353 37.2368 40.7833L32.2217 47.3912L27.2066 40.7833C26.7149 40.1353 26.0773 39.6093 25.3443 39.2471C24.6113 38.8849 23.803 38.6963 22.9834 38.6963H16.3846C15.6846 38.6963 15.0132 38.4214 14.5182 37.9322C14.0232 37.443 13.7451 36.7794 13.7451 36.0875V15.2175C13.7451 14.5256 14.0232 13.8621 14.5182 13.3728C15.0132 12.8836 15.6846 12.6088 16.3846 12.6088H48.0588ZM16.3846 10C14.9845 10 13.6418 10.5497 12.6518 11.5282C11.6618 12.5066 11.1056 13.8337 11.1056 15.2175L11.1056 36.0875C11.1056 37.4713 11.6618 38.7984 12.6518 39.7769C13.6418 40.7553 14.9845 41.305 16.3846 41.305H22.9834C23.3932 41.305 23.7973 41.3993 24.1638 41.5804C24.5304 41.7616 24.8492 42.0245 25.095 42.3485L30.1101 48.9565C30.356 49.2805 30.6748 49.5435 31.0413 49.7246C31.4078 49.9057 31.812 50 32.2217 50C32.6315 50 33.0356 49.9057 33.4022 49.7246C33.7687 49.5435 34.0875 49.2805 34.3333 48.9565L39.3484 42.3485C39.5943 42.0245 39.9131 41.7616 40.2796 41.5804C40.6461 41.3993 41.0503 41.305 41.46 41.305H48.0588C49.4589 41.305 50.8017 40.7553 51.7917 39.7769C52.7817 38.7984 53.3379 37.4713 53.3379 36.0875V15.2175C53.3379 13.8337 52.7817 12.5066 51.7917 11.5282C50.8017 10.5497 49.4589 10 48.0588 10H16.3846Z" fill="white"/>
<path d="M19.0241 19.1308C19.0241 18.7849 19.1632 18.4531 19.4107 18.2085C19.6582 17.9638 19.9939 17.8264 20.3439 17.8264H44.0996C44.4496 17.8264 44.7853 17.9638 45.0328 18.2085C45.2803 18.4531 45.4193 18.7849 45.4193 19.1308C45.4193 19.4767 45.2803 19.8085 45.0328 20.0531C44.7853 20.2977 44.4496 20.4352 44.0996 20.4352H20.3439C19.9939 20.4352 19.6582 20.2977 19.4107 20.0531C19.1632 19.8085 19.0241 19.4767 19.0241 19.1308ZM19.0241 25.6527C19.0241 25.3067 19.1632 24.975 19.4107 24.7303C19.6582 24.4857 19.9939 24.3483 20.3439 24.3483H44.0996C44.4496 24.3483 44.7853 24.4857 45.0328 24.7303C45.2803 24.975 45.4193 25.3067 45.4193 25.6527C45.4193 25.9986 45.2803 26.3304 45.0328 26.575C44.7853 26.8196 44.4496 26.957 44.0996 26.957H20.3439C19.9939 26.957 19.6582 26.8196 19.4107 26.575C19.1632 26.3304 19.0241 25.9986 19.0241 25.6527ZM19.0241 32.1746C19.0241 31.8286 19.1632 31.4968 19.4107 31.2522C19.6582 31.0076 19.9939 30.8702 20.3439 30.8702H33.5415C33.8915 30.8702 34.2272 31.0076 34.4747 31.2522C34.7222 31.4968 34.8612 31.8286 34.8612 32.1746C34.8612 32.5205 34.7222 32.8523 34.4747 33.0969C34.2272 33.3415 33.8915 33.4789 33.5415 33.4789H20.3439C19.9939 33.4789 19.6582 33.3415 19.4107 33.0969C19.1632 32.8523 19.0241 32.5205 19.0241 32.1746Z" fill="white"/>
</svg>
