<svg width="120" height="120" viewBox="0 0 120 120" fill="none" xmlns="http://www.w3.org/2000/svg">
<circle cx="60" cy="60" r="60" fill="white"/>
<path d="M95.1546 35.4994L76.004 41.1021V49.8847H71.395V41.8592L50.6543 31.8869V39.0687H46.0452V31L23.7605 39.6528C23.5396 39.7372 23.3498 39.8806 23.2147 40.0651C23.0795 40.2496 23.0049 40.4672 23 40.6911V85.4692C22.9987 85.6598 23.0481 85.8477 23.1436 86.0159C23.2391 86.184 23.3778 86.3272 23.5471 86.4324C23.7164 86.5377 23.9109 86.6016 24.1132 86.6185C24.3154 86.6354 24.5189 86.6047 24.7054 86.5292L46.0452 78.2658V69.3534H50.6543V79.1527L71.395 89.125V80.1694H76.004V88.3679L95.8921 82.5273C96.1412 82.4532 96.3585 82.3061 96.512 82.1075C96.6655 81.9089 96.7471 81.6694 96.7447 81.424V36.6027C96.7465 36.4216 96.7025 36.2427 96.6164 36.0807C96.5303 35.9187 96.4045 35.7781 96.2494 35.6704C96.0942 35.5628 95.9142 35.4912 95.7239 35.4615C95.5336 35.4318 95.3385 35.4448 95.1546 35.4994ZM50.6543 65.027H46.0452V56.3743H50.6543V65.027ZM50.6543 52.0479H46.0452V43.3951H50.6543V52.0479ZM76.004 75.843H71.395V67.1902H76.004V75.843ZM76.004 62.8638H71.395V54.2111H76.004V62.8638Z" fill="#217A92"/>
</svg>
