<svg width="183" height="180" viewBox="0 0 183 180" fill="none" xmlns="http://www.w3.org/2000/svg">
<circle cx="90" cy="90" r="90" fill="#D7F4FC"/>
<circle cx="156" cy="156" r="15" fill="#B9D4DB"/>
<circle cx="173" cy="124" r="10" fill="#B9D4DB"/>
<circle cx="152.5" cy="130.5" r="7.5" fill="#B9D4DB"/>
<circle cx="161" cy="106" r="5" fill="#B9D4DB"/>
<g clip-path="url(#clip0_66_1077)">
<path d="M89.9771 35.0229C87.3188 35.0229 84.6696 36.0679 82.575 38.1625L38.1396 82.5979C33.955 86.7825 33.955 93.222 38.1396 97.4066L41.9988 101.27L78.7113 63.9162C81.6618 60.9788 85.6556 59.3297 89.819 59.3297C93.9823 59.3297 97.9762 60.9788 100.927 63.9162L137.955 100.95L141.815 97.0858C146.004 93.222 146.008 86.7825 142.145 82.5979L97.3884 38.1625C96.422 37.175 95.2694 36.3891 93.9973 35.8502C92.7251 35.3112 91.3587 35.0301 89.9771 35.0229ZM89.9771 64.645C87.3188 64.645 84.6696 65.69 82.575 67.78L38.1396 112.22C33.955 116.405 33.955 122.844 38.1396 127.024L52.9483 141.837C57.1375 146.022 63.5725 146.022 67.7617 141.837L89.9771 119.627L112.197 141.837C116.382 146.022 122.821 146.022 127.006 141.837L141.815 127.029C146.004 123.165 146.008 116.405 142.145 112.22L97.3884 67.78C96.4217 66.7933 95.2689 66.0083 93.9967 65.4701C92.7246 64.932 91.3584 64.6515 89.9771 64.645Z" fill="#217A92"/>
</g>
<defs>
<clipPath id="clip0_66_1077">
<rect width="110" height="110" fill="white" transform="translate(35 35)"/>
</clipPath>
</defs>
</svg>
