<svg width="64" height="60" viewBox="0 0 64 60" fill="none" xmlns="http://www.w3.org/2000/svg">
<rect x="0.396729" width="63.3484" height="60" rx="8" fill="#217A92"/>
<path d="M33.7601 30.4C34.6931 30.4 35.4494 29.6836 35.4494 28.8C35.4494 27.9163 34.6931 27.2 33.7601 27.2C32.8271 27.2 32.0708 27.9163 32.0708 28.8C32.0708 29.6836 32.8271 30.4 33.7601 30.4Z" stroke="white" stroke-width="4" stroke-linecap="round" stroke-linejoin="round"/>
<path d="M32.0708 38.4001C37.2022 38.4001 41.3619 34.6393 41.3619 30.0001C41.3619 25.3609 37.2022 21.6001 32.0708 21.6001C26.9395 21.6001 22.7797 25.3609 22.7797 30.0001C22.7797 34.6393 26.9395 38.4001 32.0708 38.4001Z" stroke="white" stroke-width="4" stroke-linecap="round" stroke-linejoin="round"/>
<path d="M10.9548 30C10.9548 30 18.4963 16 32.0709 16C45.6456 16 53.187 30 53.187 30C53.187 30 45.6456 44 32.0709 44C18.4963 44 10.9548 30 10.9548 30Z" stroke="white" stroke-width="4" stroke-linecap="round" stroke-linejoin="round"/>
</svg>
