<svg width="64" height="60" viewBox="0 0 64 60" fill="none" xmlns="http://www.w3.org/2000/svg">
<rect x="0.396729" width="63.3484" height="60" rx="8" fill="#217A92"/>
<path fill-rule="evenodd" clip-rule="evenodd" d="M10.9548 18.9318C10.9548 17.8132 11.2885 16.7404 11.8825 15.9494C12.4765 15.1585 13.2821 14.7141 14.1222 14.7141H35.2383C36.0784 14.7141 36.884 15.1585 37.478 15.9494C38.072 16.7404 38.4058 17.8132 38.4058 18.9318V21.7436H44.4429C45.2392 21.7437 46.0064 22.1433 46.5914 22.8627L52.1682 29.7165C52.4895 30.1115 52.746 30.5909 52.9213 31.1245C53.0967 31.658 53.1872 32.2341 53.187 32.8165V44.238H46.8522V41.4262H51.0754V32.8165C51.0754 32.6223 51.0452 32.4303 50.9867 32.2524C50.9282 32.0746 50.8426 31.9148 50.7355 31.7832L45.1587 24.928C44.9637 24.6885 44.7081 24.5554 44.4429 24.5554H38.4058V41.4262H40.5174V44.238H22.5686V41.4262H36.2941V18.9318C36.2941 18.5589 36.1829 18.2014 35.9849 17.9377C35.7869 17.674 35.5183 17.5259 35.2383 17.5259H14.1222C13.8422 17.5259 13.5736 17.674 13.3756 17.9377C13.1776 18.2014 13.0664 18.5589 13.0664 18.9318V41.4262H16.2338V44.238H10.9548V18.9318Z" fill="white"/>
<path fill-rule="evenodd" clip-rule="evenodd" d="M19.4253 46.1428C19.9885 46.1428 20.5287 45.8418 20.9269 45.306C21.3252 44.7702 21.549 44.0435 21.549 43.2857C21.549 42.5279 21.3252 41.8012 20.9269 41.2654C20.5287 40.7295 19.9885 40.4285 19.4253 40.4285C18.862 40.4285 18.3219 40.7295 17.9236 41.2654C17.5253 41.8012 17.3016 42.5279 17.3016 43.2857C17.3016 44.0435 17.5253 44.7702 17.9236 45.306C18.3219 45.8418 18.862 46.1428 19.4253 46.1428ZM19.4253 49C20.5517 49 21.6321 48.398 22.4286 47.3263C23.2252 46.2547 23.6726 44.8012 23.6726 43.2857C23.6726 41.7702 23.2252 40.3167 22.4286 39.2451C21.6321 38.1734 20.5517 37.5714 19.4253 37.5714C18.2988 37.5714 17.2185 38.1734 16.4219 39.2451C15.6254 40.3167 15.1779 41.7702 15.1779 43.2857C15.1779 44.8012 15.6254 46.2547 16.4219 47.3263C17.2185 48.398 18.2988 49 19.4253 49ZM43.8476 46.1428C44.4108 46.1428 44.951 45.8418 45.3493 45.306C45.7475 44.7702 45.9713 44.0435 45.9713 43.2857C45.9713 42.5279 45.7475 41.8012 45.3493 41.2654C44.951 40.7295 44.4108 40.4285 43.8476 40.4285C43.2844 40.4285 42.7442 40.7295 42.3459 41.2654C41.9477 41.8012 41.7239 42.5279 41.7239 43.2857C41.7239 44.0435 41.9477 44.7702 42.3459 45.306C42.7442 45.8418 43.2844 46.1428 43.8476 46.1428ZM43.8476 49C44.9741 49 46.0544 48.398 46.8509 47.3263C47.6475 46.2547 48.095 44.8012 48.095 43.2857C48.095 41.7702 47.6475 40.3167 46.8509 39.2451C46.0544 38.1734 44.9741 37.5714 43.8476 37.5714C42.7211 37.5714 41.6408 38.1734 40.8443 39.2451C40.0477 40.3167 39.6002 41.7702 39.6002 43.2857C39.6002 44.8012 40.0477 46.2547 40.8443 47.3263C41.6408 48.398 42.7211 49 43.8476 49ZM52.3423 34.7142H37.4766V31.8571H52.3423V34.7142ZM23.6726 33.2856V21.857H25.7963V33.2856H23.6726ZM41.7239 17.5713C42.0055 17.5713 42.2756 17.7218 42.4748 17.9897C42.6739 18.2576 42.7858 18.621 42.7858 18.9999V23.2856H40.6621V18.9999C40.6621 18.621 40.774 18.2576 40.9731 17.9897C41.1722 17.7218 41.4423 17.5713 41.7239 17.5713Z" fill="white"/>
<path fill-rule="evenodd" clip-rule="evenodd" d="M28.7549 29.0001H20.2458V26.1429H28.7549V29.0001ZM43.6457 23.2858H39.3912V20.4286H43.6457V23.2858ZM41.5184 14C41.2363 14 40.9658 13.8495 40.7663 13.5816C40.5668 13.3137 40.4548 12.9503 40.4548 12.5714V10.4286C40.4548 10.0497 40.5668 9.68633 40.7663 9.41842C40.9658 9.15051 41.2363 9 41.5184 9C41.8005 9 42.071 9.15051 42.2705 9.41842C42.47 9.68633 42.582 10.0497 42.582 10.4286V12.5714C42.582 12.9503 42.47 13.3137 42.2705 13.5816C42.071 13.8495 41.8005 14 41.5184 14ZM45.2411 19C45.2411 18.6212 45.3532 18.2578 45.5526 17.9899C45.7521 17.722 46.0226 17.5715 46.3047 17.5715H47.9002C48.1823 17.5715 48.4528 17.722 48.6523 17.9899C48.8517 18.2578 48.9638 18.6212 48.9638 19C48.9638 19.3789 48.8517 19.7423 48.6523 20.0102C48.4528 20.2781 48.1823 20.4286 47.9002 20.4286H46.3047C46.0226 20.4286 45.7521 20.2781 45.5526 20.0102C45.3532 19.7423 45.2411 19.3789 45.2411 19ZM44.453 14.9586C44.2638 14.6778 44.1653 14.3076 44.1793 13.9293C44.1933 13.5511 44.3185 13.1957 44.5274 12.9414L45.4996 11.7586C45.603 11.632 45.724 11.5341 45.8556 11.4705C45.9873 11.4069 46.127 11.3787 46.2667 11.3877C46.4065 11.3967 46.5435 11.4427 46.67 11.5229C46.7966 11.6031 46.91 11.7161 47.004 11.8554C47.0979 11.9946 47.1705 12.1574 47.2176 12.3344C47.2646 12.5113 47.2852 12.699 47.2781 12.8867C47.2711 13.0744 47.2365 13.2584 47.1764 13.4281C47.1163 13.5978 47.0319 13.7499 46.928 13.8757L45.9559 15.0586C45.8523 15.1846 45.7313 15.282 45.5997 15.3452C45.4681 15.4084 45.3286 15.4362 45.189 15.4269C45.0494 15.4176 44.9126 15.3715 44.7863 15.2911C44.66 15.2108 44.5467 15.0978 44.453 14.9586Z" fill="white"/>
</svg>
