<svg width="64" height="60" viewBox="0 0 64 60" fill="none" xmlns="http://www.w3.org/2000/svg">
<rect x="0.547485" width="63.3484" height="60" rx="8" fill="#217A92"/>
<path d="M32.2217 50L21.354 45.2957C18.2558 43.9576 15.6649 41.9598 13.8594 39.5167C12.0538 37.0737 11.1019 34.2776 11.1056 31.4286V12.8571C11.1065 12.0996 11.4776 11.3733 12.1374 10.8377C12.7972 10.302 13.6919 10.0008 14.625 10H49.8185C50.7516 10.0008 51.6462 10.302 52.306 10.8377C52.9658 11.3733 53.3369 12.0996 53.3379 12.8571V31.4286C53.3416 34.2776 52.3896 37.0737 50.5841 39.5167C48.7786 41.9598 46.1877 43.9576 43.0895 45.2957L32.2217 50ZM14.625 12.8571V31.4286C14.622 33.7597 15.4012 36.0475 16.8787 38.0464C18.3562 40.0452 20.4764 41.6797 23.0116 42.7743L32.2217 46.7614L41.4319 42.7757C43.9673 41.681 46.0877 40.0463 47.5652 38.0472C49.0428 36.048 49.8217 33.76 49.8185 31.4286V12.8571H14.625Z" fill="white"/>
<path d="M32.2217 43.2529V15.7144H46.2991V31.1501C46.299 32.9608 45.6933 34.7376 44.5466 36.2907C43.3999 37.8438 41.7553 39.115 39.7883 39.9686L32.2217 43.2529Z" fill="white"/>
</svg>
