<svg width="549" height="381" viewBox="0 0 549 381" fill="none" xmlns="http://www.w3.org/2000/svg">
<path opacity="0.2" d="M164.384 49.3185L163.995 49.2202L40.3307 308.121L476.272 341.774L476.764 341.812L492.737 131.642L492.768 131.229L164.384 49.3185ZM289.617 215.815L42.0465 306.809L164.361 50.7345L289.617 215.815ZM290.343 216.595L474.493 340.648L43.3692 307.37L290.343 216.595ZM290.571 215.447L165.5 50.6077L490.69 131.721L290.571 215.447ZM475.885 340.403L291.44 216.149L491.695 132.366L475.885 340.403Z" fill="white"/>
<path d="M548.454 136.019C548.06 145.986 545.259 155.71 540.289 164.359C535.32 173.007 528.331 180.325 519.919 185.685C511.507 191.045 501.922 194.289 491.983 195.139C482.045 195.99 472.048 194.421 462.848 190.568C458.533 188.76 454.44 186.46 450.651 183.716C443.409 178.487 437.381 171.756 432.98 163.983V163.976C428.287 155.662 425.586 146.373 425.089 136.839C424.592 127.305 426.313 117.785 430.116 109.029C433.919 100.272 439.7 92.5161 447.006 86.3708C454.313 80.2255 462.944 75.858 472.223 73.6115C481.502 71.365 491.175 71.3007 500.483 73.4236C509.791 75.5466 518.48 79.7989 525.867 85.8465C533.254 91.8942 539.139 99.5724 543.058 108.278C546.977 116.983 548.824 126.479 548.454 136.019L548.454 136.019Z" fill="white"/>
<path opacity="0.09" d="M548.454 136.019C548.06 145.986 545.259 155.71 540.289 164.359C535.32 173.007 528.331 180.325 519.919 185.685C511.507 191.045 501.922 194.289 491.983 195.139C482.045 195.99 472.048 194.421 462.848 190.568C458.533 188.76 454.44 186.46 450.651 183.716C443.409 178.487 437.381 171.756 432.98 163.983V163.976C428.287 155.662 425.586 146.373 425.089 136.839C424.592 127.305 426.313 117.785 430.116 109.029C433.919 100.272 439.7 92.5161 447.006 86.3708C454.313 80.2255 462.944 75.858 472.223 73.6115C481.502 71.365 491.175 71.3007 500.483 73.4236C509.791 75.5466 518.48 79.7989 525.867 85.8465C533.254 91.8942 539.139 99.5724 543.058 108.278C546.977 116.983 548.824 126.479 548.454 136.019L548.454 136.019Z" fill="#95C3D0"/>
<path d="M501.353 86.6011C501.353 86.6011 516.115 86.7819 511.025 107.126L509.639 107.193L506.825 107.331" fill="#0C0C0C"/>
<path d="M484.869 128.47C484.938 128.463 485.21 141.153 499.96 140.619C510.171 140.252 514.22 129.59 514.454 129.599C513.365 129.324 511.53 128.911 511.053 128.633C509.483 127.71 507.534 126.737 507.138 123.603C506.91 121.797 507.771 112.636 507.686 110.815L491.922 113.697C491.992 117.54 493.175 126.488 487.757 127.854C486.855 128.08 485.886 128.281 484.869 128.47Z" fill="#E98862"/>
<path opacity="0.52" d="M491.288 124.352C491.564 123.573 491.753 122.765 491.853 121.945C492.098 120.073 492.137 118.179 491.97 116.299C495.163 115.993 498.206 114.798 500.754 112.85C501.003 113.931 502.417 118.678 501.933 119.679C501.025 121.573 496.978 124.573 491.288 124.352Z" fill="#0C0C0C"/>
<path d="M494.867 122.11C501.046 121.668 508.501 117.906 508.76 109.532L508.994 101.978C509.253 93.6054 505.063 86.682 497.183 86.4383C489.3 86.1926 483.197 92.7991 482.938 101.171L482.835 104.516C482.819 105.665 482.882 106.815 483.023 107.955C483.373 110.972 483.916 115.559 485.902 118.692C487.777 121.648 490.919 122.392 494.867 122.11Z" fill="#E98862"/>
<path d="M508.191 112.07C510.587 112.143 512.609 109.64 512.683 107.245C512.757 104.85 510.856 103.468 508.46 103.394L507.176 104.961L506.132 112.006L508.191 112.07Z" fill="#E98862"/>
<path d="M483.344 110.484C483.776 110.997 484.331 111.394 484.956 111.638C485.581 111.882 486.258 111.966 486.923 111.882C488.348 111.703 489.293 112.288 490.483 112.17C491.481 112.072 491.654 111.611 493.358 111.51C499.936 111.12 504.872 110.706 505.192 102.452L509.378 98.7336C509.378 98.7336 511.248 121.606 498.877 124.647C491.275 126.514 484.145 125.831 483.228 118.692C482.483 112.891 483.344 110.484 483.344 110.484Z" fill="#0C0C0C"/>
<path d="M486.46 105.707C486.997 105.707 487.432 105.272 487.432 104.736C487.432 104.199 486.997 103.764 486.46 103.764C485.924 103.764 485.489 104.199 485.489 104.736C485.489 105.272 485.924 105.707 486.46 105.707Z" fill="#0C0C0C"/>
<path d="M495.138 105.526C495.675 105.526 496.109 105.091 496.109 104.555C496.109 104.018 495.675 103.583 495.138 103.583C494.602 103.583 494.167 104.018 494.167 104.555C494.167 105.091 494.602 105.526 495.138 105.526Z" fill="#0C0C0C"/>
<path d="M505.878 108.175C505.878 108.175 505.285 96.3114 501.705 95.5139C499.32 94.9828 493.456 98.2718 488.099 97.1486C485.756 96.6573 483.513 97.1978 483.265 98.3052C483.167 98.7435 481.312 94.8565 485.083 90.1269C488.085 86.3613 497.845 85.302 502.187 86.6335C514.211 90.3215 508.945 103.925 508.945 103.925L508.332 108L505.878 108.175Z" fill="#0C0C0C"/>
<path d="M511.342 98.6088C514.881 98.6088 517.75 95.7398 517.75 92.2007C517.75 88.6617 514.881 85.7927 511.342 85.7927C507.803 85.7927 504.934 88.6617 504.934 92.2007C504.934 95.7398 507.803 98.6088 511.342 98.6088Z" fill="#0C0C0C"/>
<g opacity="0.52">
<path opacity="0.52" d="M490.6 111.789H490.585C489.813 111.767 488.521 111.644 488.536 111.067C488.55 110.588 490.006 105.459 490.172 104.876C490.186 104.826 490.22 104.783 490.266 104.758C490.311 104.732 490.365 104.726 490.415 104.74C490.465 104.755 490.508 104.788 490.533 104.834C490.559 104.879 490.565 104.933 490.551 104.983C489.904 107.255 488.939 110.752 488.929 111.076C489.001 111.215 489.796 111.371 490.596 111.394C490.648 111.393 490.698 111.413 490.735 111.45C490.773 111.486 490.794 111.536 490.794 111.588C490.795 111.64 490.775 111.691 490.738 111.728C490.702 111.765 490.652 111.786 490.6 111.787V111.789Z" fill="#0C0C0C"/>
</g>
<path d="M488.25 101.435C487.453 101.199 486.606 101.182 485.8 101.386C485.403 101.484 485.023 101.641 484.673 101.851C484.326 102.058 484.006 102.307 483.722 102.594C483.673 102.638 483.643 102.7 483.639 102.766C483.636 102.832 483.658 102.897 483.703 102.946C483.747 102.995 483.809 103.025 483.875 103.029C483.941 103.032 484.006 103.01 484.055 102.965L484.07 102.953C484.335 102.714 484.63 102.509 484.946 102.343C485.257 102.178 485.592 102.061 485.938 101.996C486.621 101.862 487.328 101.912 487.986 102.139L488.011 102.148C488.058 102.166 488.107 102.175 488.157 102.174C488.207 102.172 488.256 102.161 488.301 102.14C488.347 102.12 488.388 102.09 488.422 102.054C488.456 102.017 488.482 101.975 488.499 101.928C488.516 101.881 488.524 101.831 488.522 101.781C488.52 101.732 488.507 101.683 488.486 101.638C488.465 101.593 488.435 101.552 488.398 101.519C488.361 101.486 488.317 101.46 488.27 101.444L488.25 101.435Z" fill="#0C0C0C"/>
<path d="M493.973 102.14C494.606 101.849 495.305 101.732 495.998 101.799C496.349 101.829 496.694 101.913 497.019 102.048C497.35 102.182 497.663 102.357 497.95 102.569L497.965 102.58C498.019 102.615 498.084 102.628 498.146 102.616C498.209 102.605 498.265 102.57 498.303 102.518C498.341 102.467 498.357 102.403 498.349 102.34C498.341 102.276 498.309 102.218 498.26 102.178C497.949 101.92 497.607 101.703 497.242 101.531C496.872 101.356 496.479 101.237 496.075 101.178C495.252 101.054 494.411 101.154 493.641 101.466C493.55 101.506 493.478 101.579 493.441 101.67C493.404 101.762 493.405 101.864 493.443 101.955C493.481 102.046 493.553 102.119 493.644 102.157C493.735 102.195 493.837 102.196 493.928 102.16L493.947 102.152L493.973 102.14Z" fill="#0C0C0C"/>
<path d="M533.326 160.154C532.777 164.303 532.24 170.001 531.761 175.892C529.89 177.884 527.889 179.749 525.772 181.477C524.426 182.57 523.037 183.61 521.604 184.595C513.859 189.882 505.014 193.339 495.736 194.705C486.458 196.071 476.991 195.31 468.051 192.479C467.929 187.006 467.763 179.625 467.598 172.862C467.409 165.061 467.218 158.076 467.115 155.781C466.692 146.673 464.277 140.595 466.103 135.626C466.648 134.155 467.526 132.829 468.667 131.753C472.919 127.591 483.483 127.685 487.719 127.85C487.793 127.853 486.484 137.631 500.424 137.513C510.67 137.429 511.438 128.77 511.438 128.77C511.438 128.77 516.487 129.295 519.84 129.878C525.324 130.838 528.89 132.85 531.665 135.854C534.254 138.655 535.781 141.628 533.326 160.154Z" fill="#95C3D0"/>
<path d="M451.374 128.814L451.796 118.381C451.805 118.151 451.767 117.922 451.683 117.708C451.6 117.495 451.472 117.301 451.309 117.139C451.146 116.977 450.951 116.851 450.737 116.769C450.522 116.686 450.293 116.65 450.064 116.661C449.641 116.695 449.247 116.885 448.956 117.194C448.666 117.502 448.5 117.908 448.492 118.331L448.401 120.569L445.455 113.404C445.141 112.602 444.243 111.817 443.366 112.229C443.018 112.365 442.727 112.615 442.539 112.938C442.352 113.261 442.28 113.638 442.334 114.007C442.326 114.008 442.318 114.01 442.31 114.013C442.304 114.016 442.299 114.019 442.294 114.023L441.81 112.786C441.721 112.557 441.581 112.351 441.402 112.182C441.222 112.014 441.007 111.888 440.773 111.813C440.538 111.738 440.29 111.717 440.046 111.75C439.803 111.783 439.569 111.871 439.364 112.006C439.044 112.224 438.809 112.547 438.698 112.918C438.587 113.289 438.607 113.688 438.755 114.046L438.961 114.572C438.948 114.585 438.938 114.6 438.931 114.617C438.709 114.294 438.38 114.06 438.002 113.957C437.624 113.854 437.222 113.889 436.867 114.055C436.484 114.249 436.188 114.58 436.039 114.983C435.889 115.385 435.897 115.829 436.06 116.226L436.571 117.534C436.551 117.52 436.528 117.512 436.504 117.509C436.48 117.506 436.455 117.509 436.433 117.518C436.406 117.53 436.384 117.549 436.368 117.573C436.091 117.34 435.744 117.204 435.382 117.187C435.02 117.169 434.663 117.271 434.364 117.477C434.055 117.7 433.831 118.02 433.727 118.386C433.622 118.752 433.645 119.143 433.79 119.495L438.103 130.53C438.706 132.074 439.757 133.402 441.12 134.345C442.483 135.288 444.097 135.802 445.754 135.822C447.183 135.839 448.562 135.298 449.599 134.314C450.636 133.33 451.248 131.981 451.306 130.553L451.374 128.814Z" fill="#E98862"/>
<g opacity="0.2">
<path opacity="0.2" d="M445.214 121.115C445.177 121.129 445.136 121.128 445.099 121.112C445.062 121.097 445.033 121.067 445.018 121.03L442.226 114.212C442.217 114.193 442.212 114.173 442.211 114.152C442.21 114.131 442.214 114.111 442.221 114.091C442.229 114.072 442.24 114.054 442.255 114.04C442.269 114.025 442.287 114.013 442.306 114.005C442.325 113.997 442.346 113.994 442.367 113.994C442.387 113.994 442.408 113.999 442.427 114.007C442.445 114.016 442.462 114.028 442.476 114.043C442.491 114.059 442.501 114.077 442.508 114.096L445.3 120.915C445.308 120.933 445.312 120.953 445.312 120.973C445.312 120.993 445.308 121.013 445.3 121.031C445.292 121.05 445.281 121.067 445.267 121.081C445.252 121.095 445.235 121.106 445.217 121.114L445.214 121.115Z" fill="#0C0C0C"/>
</g>
<g opacity="0.2">
<path opacity="0.2" d="M442.241 122.429C442.204 122.444 442.162 122.443 442.126 122.427C442.089 122.411 442.06 122.381 442.045 122.344L438.929 114.735C438.914 114.698 438.915 114.656 438.93 114.619C438.946 114.583 438.975 114.554 439.012 114.538C439.049 114.525 439.09 114.526 439.127 114.541C439.163 114.557 439.192 114.585 439.209 114.621L442.325 122.231C442.34 122.268 442.34 122.31 442.324 122.347C442.309 122.385 442.279 122.414 442.241 122.43V122.429Z" fill="#0C0C0C"/>
</g>
<g opacity="0.2">
<path opacity="0.2" d="M439.029 123.871C438.992 123.886 438.95 123.885 438.914 123.869C438.877 123.853 438.848 123.824 438.833 123.786L436.347 117.717C436.332 117.68 436.332 117.638 436.348 117.6C436.363 117.563 436.393 117.534 436.431 117.518C436.468 117.503 436.51 117.503 436.547 117.519C436.584 117.534 436.614 117.564 436.629 117.601L439.116 123.669C439.132 123.707 439.131 123.749 439.116 123.786C439.1 123.824 439.07 123.853 439.033 123.868L439.029 123.871Z" fill="#0C0C0C"/>
</g>
<path d="M485.912 145.172L460.52 184.211C459.596 185.63 458.359 186.819 456.904 187.685C454.74 186.492 452.651 185.166 450.651 183.716C446.386 180.638 442.532 177.029 439.183 172.974L433.849 131.621L455.194 128.201L457.628 148.106L467.38 133.114L485.912 145.172Z" fill="#95C3D0"/>
<path d="M488.889 113.919C491.218 114.073 493.532 113.447 495.466 112.14C495.533 112.095 495.611 112.07 495.692 112.068C495.773 112.065 495.853 112.086 495.922 112.128C495.991 112.17 496.047 112.23 496.083 112.302C496.12 112.375 496.134 112.456 496.126 112.536C495.97 113.912 495.291 116.442 492.404 116.764C490.541 116.972 489.19 115.541 488.51 114.589C488.462 114.523 488.435 114.446 488.431 114.365C488.427 114.284 488.446 114.204 488.485 114.133C488.525 114.063 488.584 114.005 488.656 113.967C488.727 113.929 488.808 113.912 488.889 113.919Z" fill="white"/>
<path d="M540.211 164.542C536.459 171.012 531.567 176.749 525.772 181.477C524.426 182.571 523.037 183.61 521.604 184.595L511.687 146.865L534.022 140.99L540.211 164.542Z" fill="#95C3D0"/>
<path d="M521.822 184.448C521.751 184.494 521.674 184.546 521.604 184.595C521.535 184.644 521.463 184.693 521.392 184.739L513.834 155.996L514.311 155.872L521.822 184.448Z" fill="#0C0C0C"/>
<path d="M467.658 174.639C467.597 174.637 467.538 174.611 467.495 174.568C467.451 174.524 467.426 174.466 467.423 174.405L466.935 163.694C466.932 163.629 466.956 163.565 467 163.517C467.044 163.469 467.105 163.44 467.17 163.437C467.235 163.434 467.299 163.457 467.347 163.501C467.395 163.545 467.424 163.606 467.427 163.672L467.914 174.383C467.917 174.448 467.894 174.511 467.85 174.559C467.806 174.607 467.745 174.636 467.68 174.639H467.658Z" fill="#0C0C0C"/>
<path d="M283.962 273.756C318.727 273.756 346.91 245.573 346.91 210.808C346.91 176.043 318.727 147.861 283.962 147.861C249.197 147.861 221.014 176.043 221.014 210.808C221.014 245.573 249.197 273.756 283.962 273.756Z" fill="white"/>
<path opacity="0.09" d="M346.91 210.807C346.91 223.256 343.218 235.426 336.302 245.778C329.385 256.129 319.554 264.198 308.052 268.962C296.55 273.726 283.894 274.973 271.683 272.544C259.473 270.115 248.257 264.12 239.454 255.317C230.65 246.513 224.655 235.297 222.226 223.087C219.798 210.877 221.044 198.22 225.808 186.718C230.573 175.216 238.641 165.385 248.992 158.468C259.344 151.552 271.514 147.86 283.964 147.86C292.238 147.829 300.438 149.437 308.088 152.589C315.739 155.742 322.691 160.377 328.542 166.228C334.393 172.08 339.028 179.031 342.181 186.682C345.334 194.333 346.941 202.532 346.91 210.807Z" fill="#367CFF"/>
<path d="M256.098 173.68C256.098 173.68 255.465 183.183 253.327 186.63C247.173 196.555 245.39 207.721 251.553 213.556C257.716 219.39 297.029 219.47 300.007 206.053C302.512 194.757 297.133 193.542 295.824 184.224C295.232 180.008 293.602 171.167 293.602 171.167" fill="#0A0A0A"/>
<path d="M289.831 204.084C289.763 204.075 289.011 216.57 274.494 215.483C264.446 214.73 260.863 204.068 260.632 204.068C261.716 203.838 263.54 203.503 264.023 203.247C265.605 202.396 267.563 201.512 268.073 198.439C268.367 196.67 267.868 187.607 268.024 185.815L283.449 189.257C283.233 193.041 281.724 201.816 287.012 203.369C287.889 203.624 288.837 203.86 289.831 204.084Z" fill="#E98862"/>
<path opacity="0.5" d="M283.662 199.781C283.42 199.003 283.265 198.2 283.198 197.387C283.028 195.533 283.062 193.666 283.299 191.819C280.164 191.396 277.21 190.102 274.774 188.085C274.487 189.143 272.912 193.765 273.349 194.77C274.175 196.669 278.046 199.781 283.662 199.781Z" fill="#0C0C0C"/>
<path d="M281.667 195.888C275.586 196.478 267.717 194.044 266.087 185.945L264.616 178.638C262.986 170.539 265.919 163.117 273.544 161.583C281.169 160.048 288.19 165.464 289.82 173.565L290.472 176.8C291.097 179.908 292.518 194.838 281.667 195.888Z" fill="#E98862"/>
<path opacity="0.1" d="M277.801 185.278C278.802 185.158 279.542 184.466 279.455 183.732C279.367 182.998 278.485 182.499 277.484 182.619C276.483 182.738 275.743 183.43 275.831 184.164C275.918 184.899 276.801 185.397 277.801 185.278Z" fill="#0C0C0C"/>
<path opacity="0.1" d="M288.377 182.341C288.467 183.074 289.349 183.57 290.349 183.454C290.522 183.433 290.693 183.394 290.858 183.339C290.904 182.465 290.907 181.623 290.882 180.845C290.604 180.776 290.315 180.759 290.031 180.796C289.03 180.913 288.29 181.605 288.377 182.341Z" fill="#0C0C0C"/>
<path opacity="0.5" d="M283.955 184.606H283.969C284.278 184.541 284.583 184.459 284.883 184.361C285.331 184.213 285.915 183.965 285.835 183.56C285.743 183.099 283.477 178.374 283.218 177.837C283.194 177.793 283.154 177.76 283.106 177.744C283.058 177.729 283.006 177.732 282.961 177.754C282.915 177.776 282.88 177.814 282.862 177.861C282.844 177.908 282.845 177.96 282.864 178.007C283.831 180.021 285.388 183.327 285.45 183.638C285.401 183.782 284.659 184.065 283.892 184.22C283.843 184.231 283.801 184.261 283.773 184.302C283.745 184.344 283.734 184.394 283.742 184.443C283.75 184.493 283.776 184.537 283.816 184.567C283.855 184.598 283.905 184.612 283.955 184.607V184.606Z" fill="#0C0C0C"/>
<path d="M258.532 181.261L265.368 179.926C270.532 177.764 271.997 168.766 271.997 168.766C271.997 168.766 278.371 174.836 293.602 171.166C293.602 171.166 290.293 149.902 267.803 156.357C260.551 158.437 255.414 165.83 256.178 175.62C256.713 182.483 258.532 181.261 258.532 181.261Z" fill="#0A0A0A"/>
<path d="M267.057 188.318C264.74 188.784 262.362 186.683 261.898 184.365C261.434 182.048 263.053 180.392 265.37 179.926L266.877 181.238L269.051 187.917L267.057 188.318Z" fill="#E98862"/>
<path d="M284.862 174.069C285.441 173.659 286.119 173.41 286.827 173.347C287.182 173.313 287.54 173.333 287.89 173.406C288.242 173.477 288.584 173.593 288.908 173.75L288.918 173.754C288.954 173.768 288.994 173.769 289.029 173.755C289.065 173.741 289.094 173.713 289.111 173.679C289.127 173.644 289.129 173.604 289.117 173.568C289.105 173.531 289.08 173.501 289.046 173.482C288.703 173.301 288.339 173.164 287.961 173.074C287.582 172.982 287.19 172.947 286.8 172.971C286.011 173.015 285.247 173.27 284.589 173.708C284.564 173.724 284.542 173.746 284.525 173.771C284.508 173.795 284.496 173.824 284.49 173.853C284.483 173.883 284.483 173.913 284.489 173.943C284.495 173.973 284.507 174.001 284.524 174.026C284.541 174.051 284.563 174.072 284.589 174.088C284.614 174.105 284.642 174.116 284.672 174.121C284.702 174.126 284.732 174.125 284.762 174.118C284.791 174.111 284.819 174.099 284.843 174.081L284.848 174.077L284.862 174.069Z" fill="#0C0C0C"/>
<path d="M278.617 174.932C277.841 174.778 277.037 174.835 276.29 175.097C275.921 175.224 275.573 175.406 275.258 175.637C274.945 175.865 274.661 176.131 274.413 176.429C274.388 176.459 274.375 176.497 274.378 176.536C274.38 176.575 274.398 176.611 274.426 176.638C274.455 176.664 274.493 176.678 274.532 176.677C274.571 176.676 274.608 176.66 274.635 176.632L274.643 176.623C274.881 176.354 275.153 176.116 275.451 175.915C275.746 175.714 276.069 175.559 276.411 175.454C277.088 175.242 277.81 175.212 278.503 175.369L278.52 175.373C278.549 175.381 278.579 175.383 278.609 175.378C278.639 175.374 278.667 175.364 278.693 175.349C278.719 175.333 278.741 175.313 278.759 175.289C278.777 175.265 278.79 175.237 278.797 175.208C278.804 175.179 278.805 175.149 278.8 175.119C278.796 175.089 278.785 175.061 278.769 175.035C278.753 175.01 278.732 174.988 278.708 174.971C278.683 174.953 278.655 174.941 278.626 174.935L278.617 174.932Z" fill="#0C0C0C"/>
<path d="M265.373 179.813C269.968 178.103 271.493 174.93 271.963 172.568C272.267 170.993 272.238 169.372 271.88 167.808L271.737 167.847C272.091 169.39 272.118 170.99 271.817 172.545C271.354 174.867 269.852 177.99 265.321 179.675L265.373 179.813Z" fill="#0C0C0C"/>
<path d="M323.474 201.595L326.226 192.26C326.286 192.055 326.389 191.865 326.527 191.701C326.665 191.538 326.835 191.405 327.027 191.311C327.22 191.218 327.429 191.165 327.643 191.156C327.856 191.148 328.069 191.184 328.268 191.263C328.631 191.419 328.923 191.704 329.087 192.063C329.251 192.422 329.276 192.83 329.157 193.206L328.568 195.208L333.31 189.765C333.827 189.15 334.854 188.727 335.505 189.352C335.771 189.576 335.954 189.884 336.023 190.225C336.091 190.566 336.043 190.921 335.884 191.231C335.891 191.234 335.898 191.238 335.904 191.243C335.908 191.247 335.911 191.252 335.914 191.257L336.711 190.309C336.859 190.134 337.044 189.994 337.253 189.899C337.462 189.804 337.689 189.757 337.918 189.761C338.147 189.765 338.373 189.821 338.578 189.923C338.783 190.025 338.963 190.172 339.104 190.353C339.321 190.641 339.432 190.996 339.419 191.357C339.405 191.718 339.269 192.063 339.031 192.335L338.692 192.739C338.7 192.754 338.704 192.771 338.705 192.788C338.997 192.569 339.358 192.461 339.723 192.483C340.087 192.505 340.432 192.657 340.695 192.91C340.975 193.195 341.137 193.576 341.149 193.976C341.161 194.376 341.021 194.765 340.759 195.066L339.916 196.068C339.938 196.062 339.961 196.061 339.983 196.066C340.005 196.071 340.026 196.081 340.043 196.095C340.063 196.114 340.077 196.137 340.084 196.164C340.399 196.041 340.745 196.025 341.07 196.119C341.395 196.213 341.68 196.41 341.881 196.682C342.087 196.971 342.189 197.321 342.171 197.675C342.153 198.029 342.016 198.367 341.783 198.634L334.676 207.085C333.682 208.267 332.357 209.125 330.872 209.549C329.387 209.974 327.809 209.945 326.34 209.466C325.074 209.054 324.019 208.164 323.398 206.985C322.778 205.807 322.641 204.433 323.017 203.156L323.474 201.595Z" fill="#E98862"/>
<g opacity="0.2">
<path opacity="0.2" d="M331.214 196.644C331.242 196.667 331.279 196.678 331.315 196.675C331.352 196.672 331.386 196.655 331.41 196.628L335.914 191.446C335.939 191.417 335.951 191.38 335.948 191.342C335.946 191.305 335.928 191.27 335.9 191.245C335.871 191.221 335.834 191.208 335.797 191.211C335.759 191.213 335.724 191.231 335.699 191.259L331.196 196.441C331.183 196.455 331.174 196.472 331.168 196.489C331.162 196.507 331.16 196.526 331.161 196.544C331.163 196.563 331.168 196.581 331.176 196.598C331.184 196.614 331.196 196.629 331.21 196.642L331.214 196.644Z" fill="#0C0C0C"/>
</g>
<g opacity="0.2">
<path opacity="0.2" d="M333.445 198.693C333.473 198.716 333.509 198.727 333.546 198.724C333.583 198.721 333.617 198.704 333.641 198.676L338.667 192.893C338.679 192.879 338.689 192.863 338.694 192.845C338.7 192.827 338.703 192.809 338.701 192.79C338.7 192.772 338.695 192.753 338.687 192.737C338.678 192.72 338.667 192.705 338.653 192.693C338.624 192.669 338.587 192.658 338.55 192.661C338.512 192.663 338.478 192.68 338.452 192.707L333.43 198.49C333.418 198.504 333.408 198.521 333.402 198.538C333.396 198.556 333.394 198.575 333.395 198.593C333.397 198.612 333.402 198.63 333.41 198.647C333.418 198.664 333.43 198.678 333.444 198.691L333.445 198.693Z" fill="#0C0C0C"/>
</g>
<g opacity="0.2">
<path opacity="0.2" d="M335.848 200.926C335.876 200.95 335.913 200.961 335.949 200.958C335.986 200.955 336.02 200.938 336.044 200.91L340.054 196.298C340.076 196.269 340.086 196.233 340.083 196.196C340.079 196.16 340.062 196.126 340.034 196.103C340.007 196.079 339.971 196.066 339.935 196.068C339.899 196.069 339.864 196.085 339.839 196.111L335.83 200.724C335.817 200.738 335.808 200.754 335.802 200.772C335.796 200.79 335.794 200.809 335.795 200.827C335.796 200.846 335.801 200.864 335.81 200.881C335.818 200.897 335.83 200.912 335.844 200.924L335.848 200.926Z" fill="#0C0C0C"/>
</g>
<path d="M340.22 205.671L329.582 253.93C329.558 254.038 329.533 254.151 329.504 254.259C327.114 256.759 324.526 259.061 321.765 261.142C321.21 261.555 320.655 261.963 320.085 262.356C319.732 262.396 319.378 262.415 319.023 262.415C317.127 262.415 315.265 261.915 313.623 260.968C311.981 260.02 310.617 258.657 309.668 257.015L289.396 221.937L308.116 211.123L314.459 222.1L319.107 201.016L340.22 205.671Z" fill="#217A92"/>
<path d="M307.482 227.673C307.418 228.439 307.29 229.805 307.113 231.603C306.229 240.796 304.16 261.285 303.202 270.753C291.098 274.622 278.109 274.754 265.929 271.131H265.925C256.93 268.439 248.652 263.765 241.702 257.452C241.741 248.987 241.618 239.465 241.048 233.343C239.343 215.05 240.955 212.186 243.603 209.537C243.819 209.321 244.045 209.11 244.271 208.903C247.008 206.417 250.443 204.796 255.449 204.117C258.761 203.671 263.743 203.346 263.743 203.346C263.743 203.346 264.166 211.885 274.223 212.357C287.917 213.001 287.003 203.346 287.072 203.346C290.516 203.346 298.181 203.563 303.016 206.024C303.02 206.024 303.02 206.024 303.025 206.029C303.999 206.503 304.885 207.139 305.644 207.911C311.182 213.778 308.45 216.286 307.482 227.673Z" fill="#217A92"/>
<path d="M285.993 186.203C284.017 187.207 281.763 187.525 279.586 187.106C279.511 187.092 279.433 187.099 279.362 187.128C279.29 187.156 279.229 187.204 279.184 187.266C279.139 187.328 279.112 187.402 279.108 187.479C279.103 187.555 279.121 187.631 279.158 187.698C279.808 188.842 281.346 190.797 283.987 190C285.692 189.486 286.336 187.732 286.575 186.647C286.591 186.571 286.586 186.493 286.56 186.421C286.533 186.349 286.487 186.286 286.426 186.239C286.364 186.193 286.291 186.164 286.215 186.158C286.138 186.151 286.061 186.167 285.993 186.203Z" fill="white"/>
<path d="M286.117 177.415C286.644 177.415 287.072 176.987 287.072 176.46C287.072 175.933 286.644 175.505 286.117 175.505C285.59 175.505 285.162 175.933 285.162 176.46C285.162 176.987 285.59 177.415 286.117 177.415Z" fill="#0C0C0C"/>
<path d="M276.942 179.021C277.469 179.021 277.896 178.594 277.896 178.066C277.896 177.539 277.469 177.112 276.942 177.112C276.415 177.112 275.987 177.539 275.987 178.066C275.987 178.594 276.415 179.021 276.942 179.021Z" fill="#0C0C0C"/>
<path d="M305.371 248.282C305.364 248.282 305.358 248.282 305.352 248.282C305.313 248.276 305.278 248.256 305.255 248.225C305.231 248.194 305.221 248.154 305.226 248.116L306.914 231.111C306.916 231.092 306.922 231.073 306.932 231.056C306.942 231.039 306.955 231.024 306.97 231.013C306.986 231.001 307.004 230.992 307.023 230.988C307.041 230.983 307.061 230.982 307.08 230.985C307.119 230.991 307.154 231.011 307.178 231.042C307.201 231.073 307.212 231.113 307.206 231.151L305.518 248.156C305.513 248.191 305.495 248.224 305.468 248.247C305.441 248.27 305.406 248.282 305.371 248.282Z" fill="#0C0C0C"/>
<path d="M295.155 247.463L304.38 243.343C304.582 243.253 304.801 243.206 305.023 243.205C305.245 243.204 305.464 243.249 305.667 243.338C305.871 243.426 306.053 243.556 306.204 243.719C306.354 243.882 306.469 244.074 306.541 244.284C306.663 244.675 306.634 245.098 306.462 245.47C306.289 245.841 305.985 246.136 305.608 246.296L303.63 247.18L311.126 247.257C311.961 247.252 312.986 247.777 312.931 248.713C312.933 249.074 312.813 249.426 312.59 249.71C312.367 249.994 312.054 250.195 311.702 250.278C311.705 250.286 311.706 250.294 311.706 250.302C311.705 250.308 311.704 250.314 311.702 250.32L312.988 250.311C313.226 250.31 313.461 250.361 313.676 250.462C313.892 250.563 314.082 250.71 314.233 250.894C314.384 251.077 314.493 251.292 314.55 251.523C314.608 251.754 314.613 251.994 314.566 252.227C314.484 252.593 314.279 252.919 313.985 253.152C313.691 253.385 313.326 253.509 312.951 253.505L312.404 253.509C312.397 253.525 312.387 253.539 312.375 253.551C312.745 253.635 313.073 253.847 313.301 254.15C313.53 254.453 313.642 254.827 313.62 255.206C313.583 255.619 313.392 256.004 313.084 256.282C312.776 256.561 312.375 256.714 311.959 256.709L310.601 256.719C310.62 256.732 310.636 256.75 310.647 256.771C310.658 256.791 310.664 256.814 310.664 256.838C310.663 256.866 310.654 256.893 310.638 256.916C310.948 257.081 311.194 257.344 311.339 257.664C311.485 257.984 311.521 258.342 311.442 258.684C311.353 259.042 311.146 259.359 310.854 259.584C310.563 259.809 310.204 259.929 309.835 259.924L298.373 260.006C296.769 260.017 295.199 259.549 293.863 258.662C292.527 257.775 291.486 256.51 290.874 255.027C290.346 253.749 290.337 252.316 290.85 251.031C291.362 249.747 292.355 248.713 293.618 248.149L295.155 247.463Z" fill="#E98862"/>
<g opacity="0.2">
<path opacity="0.2" d="M304.283 250.238C304.283 250.277 304.298 250.314 304.326 250.342C304.354 250.37 304.391 250.385 304.43 250.385L311.558 250.449C311.598 250.45 311.635 250.435 311.663 250.407C311.691 250.38 311.707 250.342 311.707 250.303C311.707 250.264 311.692 250.227 311.665 250.199C311.637 250.171 311.6 250.155 311.561 250.155L304.432 250.09C304.393 250.09 304.355 250.106 304.327 250.134C304.3 250.161 304.284 250.199 304.284 250.238H304.283Z" fill="#0C0C0C"/>
</g>
<g opacity="0.2">
<path opacity="0.2" d="M304.168 253.382C304.168 253.421 304.183 253.459 304.211 253.486C304.239 253.514 304.276 253.53 304.315 253.53L312.27 253.601C312.309 253.601 312.346 253.586 312.374 253.558C312.402 253.531 312.417 253.493 312.417 253.454C312.416 253.415 312.4 253.378 312.373 253.351C312.346 253.324 312.309 253.308 312.27 253.307L304.315 253.235C304.276 253.235 304.238 253.25 304.21 253.278C304.183 253.306 304.167 253.343 304.167 253.382H304.168Z" fill="#0C0C0C"/>
</g>
<g opacity="0.2">
<path opacity="0.2" d="M304.023 256.784C304.023 256.823 304.039 256.86 304.066 256.888C304.094 256.916 304.132 256.931 304.171 256.931L310.516 256.989C310.555 256.989 310.593 256.973 310.621 256.946C310.648 256.918 310.664 256.88 310.664 256.841C310.664 256.802 310.648 256.765 310.621 256.737C310.593 256.71 310.555 256.694 310.516 256.694L304.171 256.637C304.132 256.637 304.094 256.653 304.066 256.68C304.039 256.708 304.023 256.745 304.023 256.784V256.784Z" fill="#0C0C0C"/>
</g>
<path d="M297.798 263.889L265.929 271.131H265.925C256.93 268.439 248.652 263.765 241.702 257.453C240.955 256.775 240.224 256.08 239.51 255.369C238.266 254.126 237.075 252.834 235.938 251.493L240.4 215.606C240.886 212.713 242.502 210.132 244.892 208.43C247.282 206.729 250.25 206.046 253.142 206.533C256.035 207.02 258.616 208.636 260.318 211.025C262.019 213.415 262.702 216.383 262.215 219.276L259.395 252.972L294.928 244.928L297.798 263.889Z" fill="#217A92"/>
<path d="M252.207 254.295C252.188 254.297 252.168 254.294 252.15 254.288C252.131 254.282 252.114 254.273 252.099 254.26C252.085 254.247 252.073 254.232 252.064 254.214C252.055 254.197 252.05 254.178 252.048 254.159C252.047 254.14 252.049 254.12 252.055 254.102C252.062 254.083 252.071 254.066 252.084 254.051C252.096 254.037 252.112 254.025 252.129 254.016C252.147 254.007 252.165 254.002 252.185 254L259.309 252.477C259.328 252.474 259.348 252.475 259.367 252.48C259.386 252.485 259.403 252.493 259.419 252.504C259.435 252.516 259.448 252.53 259.458 252.547C259.468 252.564 259.474 252.582 259.477 252.601C259.48 252.62 259.479 252.64 259.474 252.659C259.47 252.677 259.461 252.695 259.45 252.711C259.438 252.726 259.424 252.739 259.407 252.749C259.391 252.759 259.372 252.766 259.353 252.769L252.226 254.292C252.22 254.294 252.213 254.295 252.207 254.295Z" fill="#0C0C0C"/>
<path d="M297.798 263.889C297.806 263.927 297.799 263.966 297.779 263.999C297.759 264.032 297.727 264.056 297.689 264.066L266.73 271.362C266.534 271.308 266.342 271.254 266.151 271.195L297.473 263.82L294.682 245.15L259.36 252.77C259.337 252.773 259.314 252.772 259.292 252.765C259.27 252.758 259.249 252.747 259.233 252.731C259.218 252.713 259.207 252.693 259.2 252.671C259.193 252.649 259.191 252.626 259.193 252.603L261.173 233.348C261.177 233.329 261.184 233.31 261.195 233.294C261.205 233.278 261.219 233.264 261.235 233.253C261.251 233.242 261.269 233.234 261.288 233.23C261.307 233.226 261.326 233.226 261.345 233.229C261.384 233.235 261.418 233.256 261.441 233.288C261.464 233.319 261.474 233.358 261.468 233.397L259.518 252.456L294.746 244.82C294.765 244.815 294.786 244.814 294.805 244.817C294.825 244.821 294.843 244.829 294.859 244.84C294.876 244.849 294.891 244.862 294.903 244.877C294.915 244.892 294.923 244.909 294.928 244.928L297.798 263.889Z" fill="#0C0C0C"/>
<path d="M58.2193 346.283C90.0968 346.283 115.939 320.441 115.939 288.564C115.939 256.686 90.0968 230.844 58.2193 230.844C26.3418 230.844 0.5 256.686 0.5 288.564C0.5 320.441 26.3418 346.283 58.2193 346.283Z" fill="white"/>
<path opacity="0.09" d="M58.2193 346.283C90.0968 346.283 115.939 320.441 115.939 288.564C115.939 256.686 90.0968 230.844 58.2193 230.844C26.3418 230.844 0.5 256.686 0.5 288.564C0.5 320.441 26.3418 346.283 58.2193 346.283Z" fill="#367CFF"/>
<path d="M42.3241 255.825C42.3241 255.825 42.9495 273.209 54.5525 274.008L56.5178 251.084L42.3241 255.825Z" fill="#0A0A0A"/>
<path d="M44.5587 277.559C48.355 277.559 51.4325 274.482 51.4325 270.685C51.4325 266.889 48.355 263.812 44.5587 263.812C40.7624 263.812 37.6849 266.889 37.6849 270.685C37.6849 274.482 40.7624 277.559 44.5587 277.559Z" fill="#0A0A0A"/>
<path d="M71.4539 282.076C71.3925 282.068 70.7135 293.34 57.6184 292.358C48.5527 291.68 45.3207 282.062 45.1134 282.062C46.1493 281.89 47.1713 281.642 48.171 281.32C49.5983 280.553 51.3646 279.755 51.8245 276.983C52.0899 275.385 51.6403 267.211 51.7784 265.594L65.694 268.701C65.4975 272.115 64.1384 280.029 68.9083 281.431C69.7013 281.662 70.5563 281.875 71.4539 282.076Z" fill="#E98862"/>
<path opacity="0.5" d="M65.8886 278.195C65.6704 277.492 65.5301 276.767 65.47 276.033C65.3171 274.361 65.3476 272.676 65.5608 271.01C62.7325 270.628 60.068 269.461 57.87 267.641C57.6115 268.595 56.1906 272.765 56.5841 273.671C57.328 275.389 60.8229 278.195 65.8886 278.195Z" fill="#0C0C0C"/>
<path d="M63.7085 275.158C58.1972 275.228 51.3072 272.447 50.4532 265.044L49.6828 258.362C48.8284 250.958 52.0245 244.506 58.9956 243.704C65.9662 242.9 71.8686 248.3 72.7231 255.704L73.064 258.661C73.3918 261.504 73.5421 275.033 63.7085 275.158Z" fill="#E98862"/>
<path d="M71.0663 258.463C71.5436 258.463 71.9306 258.076 71.9306 257.598C71.9306 257.121 71.5436 256.734 71.0663 256.734C70.589 256.734 70.202 257.121 70.202 257.598C70.202 258.076 70.589 258.463 71.0663 258.463Z" fill="#0C0C0C"/>
<path d="M62.2325 259.473C62.7099 259.473 63.0968 259.086 63.0968 258.609C63.0968 258.132 62.7099 257.745 62.2325 257.745C61.7552 257.745 61.3683 258.132 61.3683 258.609C61.3683 259.086 61.7552 259.473 62.2325 259.473Z" fill="#0C0C0C"/>
<path opacity="0.5" d="M66.6163 265.189H66.63C66.9124 265.154 67.1928 265.104 67.4697 265.039C67.8834 264.938 68.4288 264.761 68.3861 264.39C68.3369 263.969 66.657 259.55 66.4654 259.048C66.4571 259.026 66.4446 259.007 66.4287 258.99C66.4127 258.973 66.3936 258.959 66.3724 258.95C66.3511 258.94 66.3283 258.935 66.305 258.934C66.2818 258.934 66.2587 258.938 66.237 258.946C66.2152 258.954 66.1954 258.967 66.1785 258.983C66.1616 258.999 66.148 259.018 66.1385 259.039C66.129 259.06 66.1238 259.083 66.1232 259.106C66.1225 259.13 66.1265 259.153 66.1348 259.174C66.8516 261.056 68.0018 264.147 68.0343 264.432C67.592 264.681 67.0965 264.82 66.5892 264.838C66.5425 264.841 66.499 264.863 66.4685 264.899C66.4379 264.934 66.4228 264.981 66.4264 265.027C66.4299 265.074 66.452 265.118 66.4876 265.148C66.5232 265.179 66.5695 265.194 66.6163 265.19V265.189Z" fill="#0C0C0C"/>
<path opacity="0.5" d="M65.3702 268.27C66.5024 268.205 67.6036 267.875 68.585 267.307C68.6237 267.283 68.6516 267.245 68.6631 267.201C68.6746 267.157 68.6687 267.111 68.6467 267.071C68.6247 267.031 68.5882 267.001 68.5448 266.987C68.5014 266.974 68.4544 266.977 68.4136 266.997C66.2939 268.17 64.2667 268.238 62.5519 267.194C62.5173 267.172 62.4815 267.151 62.4448 267.133C62.4023 267.116 62.3551 267.117 62.3129 267.134C62.2707 267.152 62.2369 267.184 62.2184 267.226C62.1998 267.268 62.1981 267.315 62.2134 267.358C62.2288 267.401 62.2601 267.436 62.3008 267.457C62.3141 267.464 62.3367 267.477 62.3677 267.496C63.2692 268.047 64.3147 268.317 65.3702 268.27Z" fill="#0C0C0C"/>
<path d="M44.0153 260.261L50.2616 259.577C55.0664 258.025 57.0627 250.045 57.0627 250.045C57.0627 250.045 61.3683 254.941 74.1273 252.705C74.1273 252.705 73.633 236.256 54.2282 238.572C47.4718 239.379 42.3771 246.155 42.3246 255.014C42.2882 261.222 44.0153 260.261 44.0153 260.261Z" fill="#0A0A0A"/>
<path d="M51.1465 267.249C49.0279 267.495 47.0493 265.426 46.8051 263.307C46.5609 261.188 48.143 259.822 50.2616 259.578L51.517 260.871L52.9679 267.039L51.1465 267.249Z" fill="#E98862"/>
<path d="M68.0097 255.442C68.6346 255.096 69.3408 254.925 70.0546 254.945C70.4071 254.953 70.7565 255.014 71.0909 255.125C71.4231 255.235 71.7402 255.385 72.0347 255.574C72.0642 255.593 72.0853 255.622 72.0937 255.656C72.102 255.69 72.0969 255.726 72.0795 255.756C72.0621 255.786 72.0337 255.809 72.0002 255.818C71.9666 255.828 71.9306 255.825 71.8996 255.809L71.8908 255.804C71.6117 255.638 71.3129 255.508 71.0014 255.417C70.6929 255.325 70.3722 255.28 70.0502 255.284C69.4095 255.287 68.7811 255.46 68.2288 255.785L68.2156 255.793C68.1927 255.808 68.1671 255.818 68.1403 255.823C68.1134 255.828 68.0858 255.827 68.0592 255.821C68.0325 255.815 68.0074 255.804 67.9852 255.788C67.963 255.772 67.9443 255.752 67.9301 255.729C67.9159 255.705 67.9065 255.679 67.9026 255.652C67.8986 255.625 67.9002 255.598 67.9071 255.571C67.914 255.545 67.9262 255.52 67.9429 255.499C67.9596 255.477 67.9805 255.459 68.0043 255.446L68.0097 255.442Z" fill="#0C0C0C"/>
<path d="M62.4114 256.472C61.8006 256.278 61.1493 256.25 60.5242 256.391C60.2093 256.459 59.9066 256.575 59.6265 256.735C59.3434 256.893 59.0812 257.086 58.8462 257.31L58.8389 257.317C58.8122 257.337 58.7791 257.346 58.746 257.343C58.7129 257.34 58.682 257.325 58.6593 257.301C58.6365 257.276 58.6235 257.245 58.6226 257.211C58.6218 257.178 58.6332 257.146 58.6546 257.12C58.8996 256.871 59.1749 256.653 59.4742 256.472C59.7753 256.289 60.1022 256.152 60.4441 256.065C61.1354 255.886 61.8621 255.896 62.5485 256.093C62.575 256.1 62.5999 256.112 62.6216 256.129C62.6434 256.145 62.6616 256.166 62.675 256.19C62.6885 256.214 62.6971 256.24 62.7002 256.267C62.7033 256.294 62.7009 256.322 62.693 256.348C62.6852 256.374 62.6722 256.399 62.6547 256.42C62.6373 256.441 62.6157 256.458 62.5914 256.471C62.5671 256.483 62.5405 256.491 62.5132 256.493C62.4859 256.495 62.4584 256.492 62.4325 256.483H62.4271L62.4114 256.472Z" fill="#0C0C0C"/>
<path opacity="0.52" d="M65.4886 269.944C65.6935 269.935 65.8973 269.91 66.0979 269.867C66.1425 269.856 66.1811 269.828 66.2055 269.789C66.2299 269.75 66.2382 269.703 66.2287 269.658C66.2192 269.613 66.1926 269.573 66.1546 269.548C66.1165 269.522 66.07 269.512 66.0247 269.52C65.7115 269.611 65.3825 269.635 65.0595 269.589C64.7365 269.543 64.427 269.429 64.1517 269.254C64.1153 269.224 64.0687 269.21 64.022 269.215C63.9752 269.22 63.9323 269.243 63.9026 269.279C63.8729 269.315 63.8588 269.362 63.8635 269.409C63.8682 269.456 63.8913 269.498 63.9276 269.528C64.3843 269.843 64.9359 269.99 65.4886 269.944Z" fill="#0C0C0C"/>
<path opacity="0.1" d="M61.0355 265.326C61.9443 265.294 62.6621 264.728 62.6387 264.061C62.6154 263.395 61.8598 262.88 60.951 262.912C60.0422 262.944 59.3245 263.51 59.3478 264.176C59.3711 264.843 60.1267 265.358 61.0355 265.326Z" fill="#0C0C0C"/>
<path opacity="0.1" d="M70.7612 263.486C70.7867 264.152 71.5419 264.665 72.4509 264.635C72.608 264.63 72.7641 264.608 72.9167 264.57C73.0243 263.788 73.0901 263.032 73.126 262.33C72.8813 262.247 72.6232 262.21 72.3649 262.221C71.4579 262.252 70.7405 262.816 70.7612 263.486Z" fill="#0C0C0C"/>
<path d="M91.0116 293.949C90.9723 297.885 89.6211 302.577 89.1396 308.247C89.0119 309.76 85.7637 314.138 85.292 319.007C84.6975 325.208 86.0196 334.877 86.1965 339.059C77.0665 344.111 66.7388 346.596 56.31 346.25C45.8812 345.904 35.7409 342.74 26.9659 337.093C26.73 326.353 26.45 313.092 26.0913 309.913C24.9268 299.418 25.2413 292.78 26.9216 289.675C29.6682 284.604 34.557 283.056 39.6718 282.359C42.7967 281.936 47.489 281.636 47.489 281.636C47.489 281.636 47.887 289.679 57.3698 290.127C70.2772 290.736 69.4174 281.636 69.4812 281.636C74.1637 281.636 83.0372 282.756 86.4373 285.076C90.0437 287.527 91.0558 290.436 91.0116 293.949Z" fill="#BBDCE4"/>
<path d="M46.4179 300.071L28.9066 338.285C22.1831 334.316 16.3333 329.026 11.7098 322.735L26.3173 290.857L46.4179 300.071Z" fill="#BBDCE4"/>
<path d="M105.157 322.157C101.727 326.943 97.5862 331.178 92.8787 334.715C91.3292 335.885 89.7204 336.974 88.0587 337.978L70.0856 298.464L90.2107 289.306L105.157 322.157Z" fill="#BBDCE4"/>
<path d="M178.342 120.19C211.532 120.19 238.437 93.2844 238.437 60.0949C238.437 26.9054 211.532 0 178.342 0C145.153 0 118.247 26.9054 118.247 60.0949C118.247 93.2844 145.153 120.19 178.342 120.19Z" fill="white"/>
<path opacity="0.09" d="M178.342 120.19C211.532 120.19 238.437 93.2844 238.437 60.0949C238.437 26.9054 211.532 0 178.342 0C145.153 0 118.247 26.9054 118.247 60.0949C118.247 93.2844 145.153 120.19 178.342 120.19Z" fill="#367CFF"/>
<path d="M189.962 24.109C189.962 24.109 193.768 19.9848 193.474 12.1293C193.246 6.04701 188.472 10.8783 188.472 10.8783C188.472 10.8783 188.265 6.50051 185.229 7.4881C182.193 8.47569 181.26 13.2829 181.26 13.2829" fill="#0C0C0C"/>
<path d="M169.219 10.9026C169.219 10.9026 154.064 15.3566 163.442 35.2881L164.826 35.1319L167.635 34.8155" fill="#0C0C0C"/>
<path d="M190.696 55.9633C190.628 55.9545 189.861 68.6693 175.09 67.5588C164.864 66.7929 161.218 55.9436 160.984 55.9436C162.086 55.7093 163.449 55.354 163.99 55.2317C165.171 54.9578 166.239 54.3311 167.055 53.4348C167.87 52.5386 168.393 51.4154 168.554 50.2147C168.854 48.4124 168.346 39.192 168.502 37.3687L184.199 40.8719C183.979 44.7235 182.444 53.6516 187.825 55.2317C188.72 55.4936 189.685 55.7343 190.696 55.9633Z" fill="#E98862"/>
<path opacity="0.52" d="M184.419 51.5835C184.174 50.7911 184.015 49.9743 183.947 49.1475C183.775 47.2607 183.809 45.3607 184.05 43.4814C180.859 43.0508 177.854 41.7339 175.375 39.6804C175.083 40.7569 173.48 45.4605 173.924 46.4835C174.763 48.4174 178.705 51.5835 184.419 51.5835Z" fill="#0C0C0C"/>
<path d="M181.857 47.5356C175.666 48.0923 167.674 45.5624 166.072 37.3099L164.626 29.8637C163.024 21.6092 166.059 14.0795 173.829 12.5711C181.599 11.0622 188.706 16.6246 190.309 24.8771L190.948 28.1735C191.148 29.3091 191.27 30.4571 191.314 31.6094C191.453 34.6557 191.652 39.2855 190.187 42.7082C188.806 45.9402 185.813 47.1803 181.857 47.5356Z" fill="#E98862"/>
<path opacity="0.5" d="M182.793 39.3767C183.927 39.3554 185.04 39.0679 186.042 38.5375C186.064 38.5277 186.083 38.5135 186.1 38.4959C186.116 38.4782 186.128 38.4575 186.136 38.435C186.144 38.4124 186.147 38.3885 186.146 38.3646C186.144 38.3407 186.138 38.3174 186.127 38.2961C186.116 38.2747 186.101 38.2557 186.083 38.2403C186.065 38.2249 186.044 38.2134 186.021 38.2064C185.998 38.1994 185.974 38.1971 185.95 38.1996C185.926 38.2021 185.903 38.2095 185.882 38.2211C183.72 39.3124 181.692 39.3021 180.018 38.1946C179.984 38.1712 179.949 38.1495 179.913 38.1297C179.892 38.1195 179.87 38.1134 179.846 38.1119C179.823 38.1104 179.8 38.1135 179.778 38.121C179.756 38.1286 179.735 38.1403 179.718 38.1557C179.701 38.171 179.686 38.1897 179.676 38.2106C179.666 38.2314 179.66 38.2541 179.658 38.2773C179.657 38.3005 179.66 38.3238 179.667 38.3458C179.675 38.3678 179.687 38.3882 179.702 38.4056C179.717 38.4231 179.736 38.4374 179.757 38.4476C179.77 38.455 179.792 38.4697 179.822 38.4899C180.702 39.0746 181.736 39.3834 182.793 39.3767Z" fill="#0C0C0C"/>
<path opacity="0.52" d="M182.847 41.0557C183.052 41.0551 183.257 41.037 183.459 41.0016C183.482 40.9977 183.504 40.9893 183.524 40.977C183.543 40.9646 183.56 40.9485 183.574 40.9295C183.587 40.9106 183.597 40.8891 183.602 40.8665C183.607 40.8438 183.608 40.8204 183.604 40.7975C183.6 40.7746 183.591 40.7527 183.579 40.733C183.567 40.7133 183.551 40.6963 183.532 40.6828C183.513 40.6694 183.491 40.6598 183.469 40.6547C183.446 40.6495 183.423 40.6489 183.4 40.6528C183.083 40.732 182.753 40.743 182.432 40.6849C182.111 40.6267 181.807 40.5009 181.538 40.3157C181.503 40.2858 181.457 40.271 181.411 40.2744C181.365 40.2778 181.322 40.2991 181.291 40.3338C181.26 40.3686 181.245 40.4139 181.247 40.4601C181.25 40.5063 181.27 40.5497 181.304 40.581C181.748 40.913 182.294 41.0808 182.847 41.0557Z" fill="#0C0C0C"/>
<path d="M188.449 30.2526C188.987 30.2526 189.424 29.8162 189.424 29.2778C189.424 28.7394 188.987 28.303 188.449 28.303C187.911 28.303 187.474 28.7394 187.474 29.2778C187.474 29.8162 187.911 30.2526 188.449 30.2526Z" fill="#0C0C0C"/>
<path d="M178.97 31.3608C179.509 31.3608 179.945 30.9243 179.945 30.3859C179.945 29.8476 179.509 29.4111 178.97 29.4111C178.432 29.4111 177.995 29.8476 177.995 30.3859C177.995 30.9243 178.432 31.3608 178.97 31.3608Z" fill="#0C0C0C"/>
<path d="M167.043 39.7299C164.682 40.1884 162.277 38.0338 161.818 35.6725C161.359 33.3111 163.021 31.6376 165.382 31.1792L166.905 32.525L169.072 39.3359L167.043 39.7299Z" fill="#E98862"/>
<path d="M168.709 35.5004C168.709 35.5004 167.39 23.6518 170.808 22.2869C173.085 21.3774 179.423 23.6926 184.549 21.7194C186.792 20.8556 189.101 21.0315 189.524 22.0884C189.691 22.5065 190.009 16.0017 185.513 11.9221C181.934 8.67439 172.265 9.32443 168.177 11.3419C156.858 16.9279 164.988 31.7815 164.988 31.7815L166.251 35.72L168.709 35.5004Z" fill="#0C0C0C"/>
<g opacity="0.52">
<path opacity="0.52" d="M184.246 36.4424H184.261C185.023 36.295 186.284 35.9673 186.178 35.3978C186.087 34.9256 183.819 30.0791 183.562 29.5283C183.551 29.5048 183.535 29.4838 183.516 29.4663C183.497 29.4489 183.475 29.4353 183.45 29.4265C183.426 29.4177 183.4 29.4138 183.374 29.415C183.348 29.4162 183.323 29.4225 183.299 29.4335C183.276 29.4445 183.255 29.46 183.237 29.4791C183.22 29.4983 183.206 29.5206 183.198 29.545C183.189 29.5694 183.185 29.5952 183.186 29.6211C183.187 29.647 183.194 29.6724 183.205 29.6958C184.21 31.842 185.728 35.1497 185.79 35.4715C185.741 35.6189 184.978 35.9034 184.19 36.0542C184.138 36.062 184.091 36.0901 184.06 36.1325C184.028 36.1748 184.015 36.2279 184.023 36.28C184.031 36.3321 184.059 36.379 184.101 36.4104C184.143 36.4418 184.197 36.4551 184.249 36.4473L184.246 36.4424Z" fill="#0C0C0C"/>
</g>
<path d="M184.785 24.5669C185.547 24.2016 186.393 24.0488 187.235 24.1247C187.647 24.1594 188.053 24.2558 188.437 24.4106C188.816 24.5615 189.175 24.7596 189.505 25.0002C189.566 25.0426 189.609 25.107 189.623 25.18C189.638 25.253 189.624 25.3288 189.584 25.3915C189.544 25.4542 189.481 25.4989 189.408 25.5162C189.336 25.5335 189.26 25.522 189.195 25.4842L189.173 25.4763C188.874 25.2853 188.552 25.1327 188.215 25.0218C187.884 24.9112 187.537 24.8514 187.188 24.8445C186.499 24.8253 185.817 24.9885 185.212 25.3176L185.187 25.3319C185.137 25.36 185.083 25.3782 185.027 25.3853C184.97 25.3924 184.913 25.3884 184.859 25.3735C184.804 25.3585 184.753 25.333 184.708 25.2982C184.663 25.2635 184.625 25.2202 184.597 25.171C184.569 25.1217 184.551 25.0674 184.544 25.0111C184.537 24.9548 184.541 24.8977 184.556 24.843C184.571 24.7882 184.596 24.737 184.631 24.6921C184.666 24.6473 184.709 24.6097 184.758 24.5816L184.785 24.5669Z" fill="#0C0C0C"/>
<path d="M179.196 26.0771C178.532 25.8914 177.831 25.8841 177.164 26.0559C176.825 26.1403 176.501 26.2757 176.202 26.4574C175.897 26.6403 175.617 26.8607 175.367 27.1133L175.351 27.129C175.297 27.1812 175.225 27.2102 175.15 27.2099C175.075 27.2097 175.003 27.1802 174.95 27.1277C174.896 27.0752 174.865 27.0039 174.864 26.929C174.862 26.8541 174.89 26.7815 174.941 26.7266C175.208 26.4179 175.514 26.1444 175.85 25.9125C176.191 25.6759 176.564 25.4916 176.959 25.3656C177.354 25.2355 177.765 25.1601 178.18 25.1416C178.605 25.1182 179.031 25.1552 179.446 25.2516C179.557 25.2777 179.654 25.347 179.714 25.4443C179.775 25.5416 179.794 25.6589 179.768 25.7705C179.742 25.882 179.673 25.9786 179.575 26.0391C179.478 26.0995 179.361 26.1189 179.249 26.0928L179.224 26.0859L179.196 26.0771Z" fill="#0C0C0C"/>
<path d="M182.185 16.717C183.871 16.0339 184.422 13.469 183.417 10.988C182.411 8.50708 180.23 7.04961 178.544 7.73268C176.859 8.41575 176.308 10.9807 177.313 13.4616C178.318 15.9426 180.5 17.4001 182.185 16.717Z" fill="#0C0C0C"/>
<path d="M211.112 69.1021C211.17 73.1753 209.579 77.7546 209.048 83.9552C208.94 85.2131 208.684 87.9842 208.345 91.5955C207.79 97.5751 207.004 105.844 206.316 113.298C196.479 118.461 185.404 120.8 174.32 120.056C163.235 119.312 152.572 115.514 143.513 109.082C143.297 108.92 143.081 108.763 142.865 108.611C142.29 100.184 141.612 91.34 140.993 85.7535C139.828 75.3225 138.241 70.129 139.131 66.6209C139.202 66.3221 139.297 66.0297 139.416 65.7463C141.976 59.5358 150.127 56.7647 155.649 56.0178C159.02 55.5609 164.091 55.2317 164.091 55.2317C164.091 55.2317 164.518 63.9185 174.753 64.4C188.687 65.0584 187.758 55.2317 187.827 55.2317C190.082 55.2317 202.371 56.8728 205.441 58.8774C205.956 59.2116 206.449 59.5793 206.916 59.978C208.25 61.0908 209.319 62.4874 210.045 64.0658C210.771 65.6443 211.135 67.3649 211.112 69.1021Z" fill="#0A252C"/>
<path d="M159.806 75.4011L143.513 109.082C143.297 108.92 143.081 108.763 142.865 108.611C136.549 103.979 131.192 98.1657 127.093 91.4924L139.131 66.6209L139.607 65.6333L159.806 75.4011Z" fill="#0A252C"/>
<path d="M158.234 79.2778L143.415 109.009C143.317 108.935 143.224 108.866 143.125 108.802L157.924 79.1255C157.946 79.0842 157.982 79.0529 158.026 79.0382C158.07 79.0235 158.118 79.0266 158.16 79.0469C158.201 79.0678 158.231 79.1038 158.245 79.1471C158.259 79.1904 158.255 79.2374 158.234 79.2778Z" fill="white"/>
<path d="M233.369 84.2892C230.416 90.983 226.268 97.0833 221.13 102.292L208.345 91.5954L192.107 78.005L206.916 59.9779L206.96 59.9238L233.369 84.2892Z" fill="#0A252C"/>
<path d="M208.542 91.727C208.584 91.7249 208.624 91.7077 208.654 91.6787C208.684 91.6497 208.702 91.6109 208.706 91.5692L209.55 81.6786C209.554 81.633 209.539 81.5876 209.51 81.5525C209.48 81.5174 209.438 81.4954 209.392 81.4914C209.347 81.4881 209.302 81.5027 209.267 81.5321C209.232 81.5615 209.21 81.6033 209.206 81.6486L208.362 91.5398C208.358 91.5853 208.373 91.6306 208.402 91.6656C208.432 91.7006 208.474 91.7225 208.519 91.7265L208.542 91.727Z" fill="white"/>
<path d="M461.314 380.417C492.97 380.417 518.632 354.755 518.632 323.099C518.632 291.444 492.97 265.781 461.314 265.781C429.658 265.781 403.996 291.444 403.996 323.099C403.996 354.755 429.658 380.417 461.314 380.417Z" fill="white"/>
<path opacity="0.09" d="M403.995 323.098C403.995 334.434 407.357 345.516 413.655 354.942C419.953 364.368 428.904 371.714 439.378 376.052C449.851 380.391 461.375 381.526 472.494 379.314C483.612 377.103 493.825 371.644 501.841 363.628C509.857 355.612 515.316 345.399 517.528 334.281C519.739 323.162 518.604 311.638 514.266 301.164C509.928 290.691 502.581 281.739 493.156 275.441C483.73 269.143 472.648 265.782 461.312 265.782C453.777 265.754 446.312 267.218 439.345 270.088C432.379 272.959 426.049 277.18 420.721 282.507C415.393 287.835 411.172 294.165 408.302 301.131C405.431 308.098 403.967 315.563 403.995 323.098Z" fill="#367CFF"/>
<path d="M487.322 291.47C486.407 302.083 487.255 305.681 491.662 311.762C495.379 316.889 474.23 312.531 464.873 310.864L473.13 286.731C473.13 286.731 487.643 287.743 487.322 291.47Z" fill="#0A0A0A"/>
<path d="M455.039 287.054C452.278 297.342 452.588 300.525 447.185 305.928C442.708 310.406 460.159 311.316 469.523 312.943L469.996 287.443C469.996 287.443 456.009 283.441 455.039 287.054Z" fill="#0A0A0A"/>
<path d="M455.969 316.977C456.031 316.969 456.717 328.347 469.934 327.355C479.084 326.67 482.347 316.961 482.556 316.961C481.511 316.787 480.479 316.537 479.47 316.213C478.03 315.439 476.247 314.633 475.782 311.835C475.515 310.222 475.969 301.972 475.829 300.338L461.783 303.473C461.98 306.919 463.356 314.908 458.54 316.322C457.738 316.558 456.875 316.773 455.969 316.977Z" fill="#E98862"/>
<path opacity="0.5" d="M461.586 313.059C461.806 312.35 461.948 311.619 462.009 310.879C462.163 309.191 462.133 307.491 461.917 305.809C464.772 305.424 467.462 304.245 469.681 302.408C469.941 303.371 471.376 307.58 470.979 308.495C470.227 310.226 466.7 313.059 461.586 313.059Z" fill="#0C0C0C"/>
<path d="M463.403 309.515C468.941 310.05 476.105 307.835 477.59 300.461L478.929 293.807C480.413 286.432 477.743 279.674 470.8 278.277C463.856 276.879 457.463 281.814 455.979 289.187L455.386 292.135C454.817 294.963 453.522 308.559 463.403 309.515Z" fill="#E98862"/>
<path d="M485.631 295.907L479.384 295.222C467.162 292.975 464.169 283.112 464.169 283.112C464.169 283.112 459.042 289.957 454.688 288.386C454.688 288.386 456.092 271.881 475.417 274.781C483.01 275.921 487.321 282.215 487.321 290.658C487.321 296.866 485.631 295.907 485.631 295.907Z" fill="#0A0A0A"/>
<path opacity="0.1" d="M468.714 298.835C468.794 298.166 468.12 297.536 467.209 297.427C466.297 297.319 465.494 297.772 465.414 298.441C465.334 299.109 466.008 299.74 466.92 299.848C467.831 299.957 468.634 299.503 468.714 298.835Z" fill="#0C0C0C"/>
<path opacity="0.1" d="M457.296 297.179C457.214 297.846 456.411 298.299 455.5 298.192C455.342 298.173 455.187 298.137 455.037 298.087C454.994 297.291 454.992 296.525 455.015 295.816C455.268 295.753 455.531 295.738 455.789 295.771C456.698 295.879 457.373 296.508 457.296 297.179Z" fill="#0C0C0C"/>
<path opacity="0.5" d="M461.32 299.242H461.307C461.025 299.183 460.748 299.109 460.475 299.02C460.067 298.883 459.533 298.66 459.608 298.291C459.692 297.87 461.756 293.568 461.991 293.079C462 293.058 462.014 293.038 462.032 293.022C462.049 293.005 462.07 292.993 462.092 292.984C462.115 292.976 462.139 292.972 462.163 292.974C462.186 292.975 462.21 292.981 462.231 292.991C462.253 293.001 462.272 293.016 462.288 293.034C462.304 293.052 462.316 293.073 462.324 293.095C462.331 293.118 462.334 293.142 462.332 293.166C462.33 293.19 462.324 293.213 462.313 293.234C461.432 295.066 460.015 298.078 459.958 298.361C460.382 298.649 460.868 298.831 461.377 298.891C461.422 298.901 461.462 298.927 461.488 298.965C461.514 299.003 461.524 299.049 461.517 299.095C461.51 299.14 461.485 299.181 461.449 299.209C461.412 299.237 461.366 299.249 461.32 299.244V299.242Z" fill="#0C0C0C"/>
<path d="M476.706 302.621C478.816 303.045 480.981 301.132 481.406 299.022C481.831 296.912 480.354 295.404 478.244 294.979L476.872 296.174L474.892 302.256L476.706 302.621Z" fill="#E98862"/>
<path d="M460.495 289.646C460.234 289.462 459.95 289.313 459.65 289.204C459.346 289.09 459.028 289.019 458.705 288.991C458.381 288.961 458.055 288.979 457.737 289.045C457.416 289.11 457.104 289.216 456.81 289.359L456.801 289.363C456.769 289.374 456.734 289.374 456.702 289.361C456.671 289.348 456.646 289.323 456.631 289.293C456.617 289.262 456.614 289.227 456.624 289.195C456.634 289.162 456.655 289.135 456.684 289.117C456.996 288.952 457.328 288.828 457.671 288.745C458.017 288.661 458.374 288.63 458.729 288.652C459.449 288.692 460.144 288.924 460.744 289.325C460.787 289.356 460.817 289.403 460.826 289.456C460.835 289.508 460.823 289.562 460.793 289.607C460.763 289.651 460.717 289.682 460.665 289.692C460.612 289.703 460.558 289.693 460.513 289.664L460.508 289.661L460.495 289.646Z" fill="#0C0C0C"/>
<path d="M466.181 290.432C466.887 290.292 467.619 290.343 468.299 290.582C468.636 290.698 468.953 290.863 469.24 291.074C469.526 291.281 469.785 291.523 470.01 291.794C470.035 291.821 470.047 291.857 470.046 291.893C470.044 291.929 470.028 291.963 470.001 291.987C469.975 292.012 469.939 292.025 469.903 292.023C469.867 292.021 469.833 292.005 469.808 291.979L469.801 291.971C469.583 291.726 469.336 291.51 469.064 291.327C468.795 291.143 468.501 291.002 468.19 290.907C467.573 290.713 466.916 290.686 466.285 290.829L466.27 290.833C466.217 290.846 466.161 290.837 466.114 290.809C466.068 290.781 466.034 290.735 466.021 290.682C466.008 290.63 466.017 290.574 466.045 290.527C466.073 290.48 466.118 290.447 466.171 290.434L466.181 290.432Z" fill="#0C0C0C"/>
<path d="M434.682 373.863C432.428 372.88 430.743 371.829 426.895 368.93C424.118 366.846 421.538 364.513 419.186 361.959L438.943 324.365L439.802 322.732L457.622 332.1L442.164 361.517L442.093 361.646L442.227 362.17" fill="#4892A7"/>
<path d="M500.386 343.621C499.867 349.196 499.755 357.866 499.791 365.574C492.342 372.331 483.244 377.008 473.414 379.134C463.584 381.26 453.367 380.76 443.791 377.685C442.619 366.06 440.876 348.977 439.894 338.458C438.899 327.562 435.971 323.963 443.961 318.745C448.363 316.504 455.342 316.307 458.479 316.307C457.414 326.635 479.18 327.906 479.721 316.307C496 317.83 503.537 318.208 500.386 343.621Z" fill="#4892A7"/>
<path d="M459.464 300.695C461.263 301.61 463.316 301.899 465.298 301.517C465.367 301.504 465.438 301.511 465.503 301.537C465.568 301.563 465.624 301.607 465.665 301.663C465.706 301.72 465.73 301.787 465.734 301.857C465.738 301.927 465.722 301.996 465.688 302.058C465.098 303.099 463.695 304.879 461.291 304.154C459.738 303.685 459.152 302.09 458.933 301.1C458.917 301.031 458.922 300.96 458.946 300.894C458.97 300.828 459.012 300.77 459.068 300.727C459.124 300.685 459.191 300.659 459.261 300.653C459.331 300.648 459.402 300.662 459.464 300.695Z" fill="white"/>
<path d="M459.351 292.693C459.831 292.693 460.22 292.304 460.22 291.824C460.22 291.344 459.831 290.955 459.351 290.955C458.871 290.955 458.482 291.344 458.482 291.824C458.482 292.304 458.871 292.693 459.351 292.693Z" fill="#0C0C0C"/>
<path d="M467.706 294.155C468.186 294.155 468.575 293.766 468.575 293.286C468.575 292.806 468.186 292.417 467.706 292.417C467.226 292.417 466.837 292.806 466.837 293.286C466.837 293.766 467.226 294.155 467.706 294.155Z" fill="#0C0C0C"/>
<path d="M441.819 357.222H441.836C441.871 357.217 441.903 357.198 441.924 357.17C441.946 357.141 441.955 357.105 441.95 357.07L440.413 341.587C440.411 341.569 440.405 341.552 440.397 341.537C440.388 341.521 440.376 341.508 440.362 341.497C440.348 341.486 440.332 341.479 440.314 341.474C440.297 341.47 440.279 341.469 440.262 341.472C440.244 341.475 440.227 341.48 440.212 341.489C440.197 341.498 440.184 341.51 440.173 341.524C440.162 341.538 440.155 341.554 440.15 341.571C440.146 341.588 440.145 341.606 440.147 341.623L441.684 357.107C441.689 357.14 441.705 357.169 441.73 357.19C441.755 357.211 441.786 357.222 441.819 357.222Z" fill="#0C0C0C"/>
<path d="M439.81 345.43H424.122V364.67H439.81V345.43Z" fill="white"/>
<path d="M433.385 355.05C433.386 353.78 433.763 352.538 434.469 351.481C435.175 350.425 436.179 349.602 437.353 349.116C438.527 348.63 439.818 348.503 441.065 348.751C442.311 348.999 443.456 349.611 444.354 350.509C445.252 351.408 445.864 352.553 446.112 353.799C446.359 355.045 446.232 356.337 445.746 357.511C445.259 358.685 444.436 359.688 443.379 360.394C442.323 361.1 441.08 361.477 439.81 361.476C438.106 361.474 436.473 360.797 435.269 359.592C434.064 358.387 433.387 356.754 433.385 355.05ZM436.017 355.05C436.017 355.8 436.239 356.534 436.656 357.158C437.073 357.781 437.665 358.267 438.358 358.555C439.051 358.842 439.814 358.917 440.55 358.77C441.286 358.624 441.961 358.263 442.492 357.732C443.022 357.202 443.384 356.526 443.53 355.79C443.676 355.054 443.601 354.292 443.314 353.599C443.027 352.906 442.541 352.313 441.917 351.896C441.293 351.48 440.56 351.257 439.81 351.257C438.804 351.258 437.84 351.658 437.129 352.369C436.418 353.08 436.018 354.045 436.017 355.05Z" fill="white"/>
<path d="M439.685 357.431C439.738 357.106 439.903 356.809 440.153 356.594C440.402 356.378 440.72 356.257 441.049 356.252C441.04 356.239 441.034 356.224 441.03 356.208L440.563 356.107C440.237 356.043 439.944 355.868 439.732 355.612C439.521 355.356 439.404 355.035 439.402 354.703C439.405 354.495 439.455 354.29 439.546 354.103C439.638 353.916 439.77 353.752 439.933 353.622C440.096 353.493 440.286 353.401 440.489 353.353C440.692 353.306 440.902 353.304 441.106 353.348L442.208 353.586C442.208 353.582 442.208 353.578 442.208 353.574C442.21 353.565 442.214 353.556 442.218 353.548C441.931 353.413 441.698 353.185 441.557 352.901C441.416 352.616 441.376 352.292 441.442 351.982C441.563 351.167 442.541 350.899 443.257 351.054L446.112 351.565L445.149 350.926C444.845 350.715 444.632 350.397 444.553 350.036C444.475 349.675 444.536 349.297 444.726 348.979C444.829 348.819 444.964 348.681 445.122 348.574C445.281 348.467 445.459 348.394 445.647 348.359C445.834 348.323 446.027 348.326 446.214 348.368C446.4 348.409 446.576 348.489 446.731 348.6L458.237 361.768L455.682 360.609C454.889 361.775 453.766 362.678 452.457 363.202C451.147 363.726 449.711 363.846 448.333 363.548L442.093 362.188C441.767 362.124 441.474 361.949 441.262 361.693C441.051 361.437 440.934 361.116 440.932 360.784C440.937 360.485 441.037 360.194 441.218 359.956C441.399 359.717 441.651 359.543 441.939 359.457C441.93 359.436 441.926 359.413 441.929 359.391C441.933 359.369 441.941 359.349 441.955 359.332C441.968 359.315 441.985 359.301 442.005 359.292L440.853 359.044C440.49 358.973 440.168 358.767 439.951 358.468C439.734 358.168 439.639 357.798 439.685 357.431Z" fill="#E98862"/>
<path opacity="0.2" d="M444.292 354.05C444.322 354.044 444.349 354.027 444.368 354.003C444.387 353.979 444.397 353.949 444.397 353.918C444.396 353.888 444.385 353.858 444.365 353.835C444.345 353.811 444.317 353.796 444.287 353.791L442.36 353.464C442.342 353.461 442.324 353.46 442.307 353.464C442.289 353.467 442.273 353.474 442.258 353.484C442.243 353.494 442.231 353.507 442.221 353.522C442.212 353.537 442.205 353.554 442.202 353.571C442.199 353.589 442.2 353.607 442.204 353.624C442.208 353.642 442.216 353.658 442.226 353.672C442.237 353.686 442.25 353.699 442.266 353.708C442.281 353.717 442.298 353.722 442.316 353.725L444.243 354.051C444.259 354.054 444.276 354.053 444.292 354.05Z" fill="#0C0C0C"/>
<path opacity="0.2" d="M443.827 356.776C443.857 356.77 443.884 356.753 443.903 356.729C443.922 356.705 443.932 356.676 443.932 356.645C443.931 356.614 443.92 356.585 443.9 356.561C443.88 356.538 443.853 356.522 443.823 356.517L441.183 356.049C441.165 356.045 441.147 356.044 441.129 356.047C441.112 356.05 441.095 356.057 441.08 356.067C441.065 356.077 441.052 356.09 441.042 356.105C441.032 356.12 441.026 356.137 441.023 356.154C441.019 356.172 441.02 356.19 441.024 356.207C441.028 356.225 441.036 356.241 441.046 356.256C441.057 356.27 441.07 356.282 441.086 356.291C441.101 356.3 441.119 356.306 441.136 356.308L443.777 356.777C443.793 356.78 443.81 356.78 443.827 356.776Z" fill="#0C0C0C"/>
<path opacity="0.2" d="M443.342 359.732C443.372 359.726 443.399 359.709 443.418 359.685C443.437 359.661 443.447 359.63 443.447 359.599C443.446 359.568 443.434 359.539 443.414 359.516C443.393 359.492 443.365 359.477 443.335 359.472L442.082 359.281C442.049 359.278 442.015 359.287 441.988 359.308C441.962 359.329 441.944 359.359 441.939 359.393C441.934 359.426 441.942 359.46 441.961 359.488C441.98 359.515 442.009 359.535 442.042 359.542L443.295 359.734C443.31 359.736 443.326 359.736 443.342 359.732Z" fill="#0C0C0C"/>
<path d="M508.379 355.803C501.319 365.955 491.175 373.56 479.45 377.489L479.446 377.484C476.842 376.975 452 367.166 448.714 366.522L452.31 349.748C461.542 351.585 478.38 358.667 487.665 360.511L481.114 330.812C480.877 329.5 480.903 328.154 481.189 326.852C481.476 325.55 482.019 324.318 482.785 323.227C483.552 322.136 484.527 321.208 485.655 320.498C486.783 319.787 488.041 319.307 489.355 319.086C490.67 318.864 492.016 318.907 493.314 319.209C494.612 319.512 495.837 320.07 496.919 320.85C498 321.63 498.916 322.617 499.612 323.753C500.309 324.89 500.774 326.153 500.979 327.47L508.379 355.803Z" fill="#4892A7"/>
<path d="M494.702 362.698C494.736 362.697 494.768 362.684 494.792 362.661C494.817 362.638 494.831 362.607 494.834 362.573C494.836 362.54 494.826 362.507 494.806 362.48C494.785 362.454 494.756 362.436 494.723 362.431L487.742 360.062C487.724 360.059 487.706 360.06 487.689 360.064C487.672 360.068 487.656 360.076 487.641 360.087C487.627 360.097 487.615 360.11 487.606 360.126C487.597 360.141 487.591 360.158 487.589 360.175C487.584 360.21 487.593 360.246 487.614 360.275C487.635 360.303 487.667 360.322 487.702 360.328L494.683 362.696C494.689 362.697 494.696 362.698 494.702 362.698Z" fill="#0C0C0C"/>
<path d="M487.849 360.176C487.853 360.218 487.84 360.26 487.813 360.292C487.798 360.307 487.779 360.318 487.759 360.324C487.739 360.33 487.717 360.332 487.696 360.328L452.533 349.95L449.01 366.459L479.289 377.537C479.195 377.569 479.097 377.6 479.003 377.631C478.935 377.654 478.869 377.676 478.797 377.694L448.812 366.685C448.779 366.675 448.749 366.654 448.731 366.624C448.713 366.594 448.707 366.558 448.714 366.523L452.31 349.75C452.314 349.733 452.322 349.717 452.333 349.703C452.343 349.689 452.357 349.678 452.372 349.669C452.387 349.659 452.404 349.652 452.422 349.649C452.44 349.646 452.458 349.647 452.475 349.651L487.553 360.043L483.582 343.67C483.578 343.635 483.587 343.6 483.608 343.571C483.628 343.543 483.66 343.524 483.694 343.518C483.712 343.515 483.73 343.515 483.747 343.518C483.764 343.522 483.781 343.529 483.795 343.539C483.81 343.549 483.822 343.562 483.832 343.576C483.842 343.591 483.848 343.608 483.851 343.625L487.849 360.176Z" fill="#0C0C0C"/>
<path d="M29.3252 338.78C29.2925 338.78 29.2601 338.773 29.2299 338.761C29.2002 338.748 29.1732 338.73 29.1505 338.707C29.1278 338.684 29.1098 338.657 29.0976 338.627C29.0855 338.597 29.0793 338.565 29.0795 338.533C29.0797 338.501 29.0862 338.469 29.0987 338.439L38.726 315.556C38.7513 315.496 38.7995 315.448 38.8599 315.424C38.9203 315.399 38.988 315.4 39.0481 315.425C39.1081 315.45 39.1557 315.499 39.1802 315.559C39.2048 315.619 39.2043 315.687 39.179 315.747L29.5517 338.629C29.5331 338.674 29.5016 338.712 29.4613 338.739C29.421 338.766 29.3737 338.78 29.3252 338.78Z" fill="#0C0C0C"/>
<path d="M85.9754 339.04H85.9646C85.9324 339.042 85.9002 339.037 85.8698 339.026C85.8395 339.015 85.8116 338.998 85.7878 338.976C85.764 338.954 85.7447 338.928 85.731 338.899C85.7174 338.87 85.7096 338.838 85.7081 338.806L84.635 315.402C84.6342 315.337 84.6579 315.275 84.7013 315.227C84.7447 315.179 84.8046 315.15 84.8689 315.145C84.9012 315.143 84.9334 315.148 84.9638 315.159C84.9942 315.17 85.0221 315.187 85.046 315.208C85.0699 315.23 85.0892 315.256 85.1029 315.286C85.1166 315.315 85.1244 315.347 85.1259 315.379L86.199 338.783C86.2021 338.847 86.1806 338.909 86.1389 338.957C86.0973 339.005 86.0386 339.035 85.9754 339.04Z" fill="#0C0C0C"/>
</svg>
