<svg width="183" height="180" viewBox="0 0 183 180" fill="none" xmlns="http://www.w3.org/2000/svg">
<circle cx="90" cy="90" r="90" fill="#D7F4FC"/>
<circle cx="156" cy="156" r="15" fill="#B9D4DB"/>
<circle cx="173" cy="124" r="10" fill="#B9D4DB"/>
<circle cx="152.5" cy="130.5" r="7.5" fill="#B9D4DB"/>
<circle cx="161" cy="106" r="5" fill="#B9D4DB"/>
<path d="M110.625 35C113.907 35 117.055 36.3038 119.375 38.6246C121.696 40.9453 123 44.0929 123 47.375V132.625C123 135.907 121.696 139.055 119.375 141.375C117.055 143.696 113.907 145 110.625 145H69.375C66.0929 145 62.9453 143.696 60.6246 141.375C58.3038 139.055 57 135.907 57 132.625V47.375C57 44.0929 58.3038 40.9453 60.6246 38.6246C62.9453 36.3038 66.0929 35 69.375 35H110.625ZM96.875 123H83.125C82.031 123 80.9818 123.435 80.2082 124.208C79.4346 124.982 79 126.031 79 127.125C79 128.219 79.4346 129.268 80.2082 130.042C80.9818 130.815 82.031 131.25 83.125 131.25H96.875C97.969 131.25 99.0182 130.815 99.7918 130.042C100.565 129.268 101 128.219 101 127.125C101 126.031 100.565 124.982 99.7918 124.208C99.0182 123.435 97.969 123 96.875 123Z" fill="#217A92"/>
</svg>
