<svg width="41" height="40" viewBox="0 0 41 40" fill="none" xmlns="http://www.w3.org/2000/svg">
<path d="M26.5428 20C26.5428 21.2658 26.1675 22.5032 25.4642 23.5556C24.761 24.6081 23.7614 25.4284 22.592 25.9128C21.4225 26.3972 20.1357 26.524 18.8942 26.277C17.6528 26.0301 16.5124 25.4205 15.6173 24.5255C14.7223 23.6304 14.1127 22.4901 13.8658 21.2486C13.6189 20.0071 13.7456 18.7203 14.23 17.5508C14.7144 16.3814 15.5347 15.3818 16.5872 14.6786C17.6396 13.9754 18.877 13.6 20.1428 13.6C21.8396 13.6019 23.4664 14.2768 24.6662 15.4767C25.866 16.6765 26.5409 18.3032 26.5428 20ZM40.1428 11.2V28.8C40.1395 31.7694 38.9584 34.6162 36.8587 36.7159C34.759 38.8156 31.9122 39.9966 28.9428 40H11.3428C8.37343 39.9966 5.52662 38.8156 3.42694 36.7159C1.32726 34.6162 0.146185 31.7694 0.142822 28.8V11.2C0.146185 8.23061 1.32726 5.3838 3.42694 3.28412C5.52662 1.18444 8.37343 0.00336295 11.3428 0H28.9428C31.9122 0.00336295 34.759 1.18444 36.8587 3.28412C38.9584 5.3838 40.1395 8.23061 40.1428 11.2ZM29.7428 20C29.7428 18.1013 29.1798 16.2452 28.1249 14.6665C27.0701 13.0878 25.5708 11.8574 23.8166 11.1308C22.0624 10.4042 20.1322 10.214 18.27 10.5845C16.4077 10.9549 14.6972 11.8692 13.3546 13.2118C12.012 14.5544 11.0977 16.2649 10.7273 18.1271C10.3569 19.9894 10.547 21.9196 11.2736 23.6738C12.0002 25.4279 13.2306 26.9272 14.8093 27.9821C16.3881 29.037 18.2441 29.6 20.1428 29.6C22.688 29.5971 25.1281 28.5848 26.9279 26.785C28.7276 24.9853 29.7399 22.5452 29.7428 20ZM32.9428 9.6C32.9428 9.12533 32.8021 8.66131 32.5383 8.26663C32.2746 7.87195 31.8998 7.56434 31.4613 7.38269C31.0227 7.20104 30.5402 7.15351 30.0746 7.24612C29.6091 7.33872 29.1814 7.5673 28.8458 7.90294C28.5101 8.23859 28.2815 8.66623 28.1889 9.13178C28.0963 9.59734 28.1439 10.0799 28.3255 10.5184C28.5072 10.957 28.8148 11.3318 29.2095 11.5955C29.6041 11.8592 30.0681 12 30.5428 12C31.1793 12 31.7898 11.7471 32.2399 11.2971C32.69 10.847 32.9428 10.2365 32.9428 9.6Z" fill="white"/>
</svg>
