<svg width="41" height="40" viewBox="0 0 41 40" fill="none" xmlns="http://www.w3.org/2000/svg">
<path fill-rule="evenodd" clip-rule="evenodd" d="M10.1428 0C4.61998 0 0.142822 4.47715 0.142822 10V30C0.142822 35.5228 4.61998 40 10.1428 40H30.1428C35.6657 40 40.1428 35.5228 40.1428 30V10C40.1428 4.47715 35.6657 0 30.1428 0H10.1428ZM12.5843 30.2636C12.5843 31.9024 11.2558 33.2309 9.61702 33.2309C7.97823 33.2309 6.64972 31.9024 6.64972 30.2636V18.3436C6.64972 16.7049 7.97823 15.3764 9.61702 15.3764C11.2558 15.3764 12.5843 16.7049 12.5843 18.3437V30.2636ZM9.61702 12.9394H9.57781C7.58704 12.9394 6.29667 11.5679 6.29667 9.85363C6.29667 8.10171 7.62476 6.76906 9.65588 6.76906C11.6874 6.76906 12.9359 8.10171 12.9747 9.85363C12.9747 11.5679 11.6874 12.9394 9.61702 12.9394ZM33.989 30.2629C33.989 31.9021 32.6601 33.2309 31.0209 33.2309C29.3817 33.2309 28.0528 31.9021 28.0528 30.2629V23.6787C28.0528 21.2795 27.1951 19.6418 25.0466 19.6418C23.4059 19.6418 22.4308 20.7444 22.0013 21.8126C21.8452 22.1941 21.8044 22.7245 21.8044 23.2595V30.2697C21.8044 31.9052 20.4785 33.231 18.843 33.231C17.2018 33.231 15.8734 31.9012 15.8799 30.26C15.8927 26.9913 15.9092 21.7584 15.8994 18.4109C15.8946 16.7563 17.2516 15.3764 18.9062 15.3764H21.2259C21.5454 15.3764 21.8044 15.6354 21.8044 15.9549C21.8044 16.5307 22.6179 16.7937 23.0464 16.4091C23.9276 15.6179 25.2087 14.9573 27.1543 14.9573C31.0609 14.9573 33.989 17.5085 33.989 22.9923V30.2629Z" fill="white"/>
</svg>
