<svg width="153" height="51" viewBox="0 0 153 51" fill="none" xmlns="http://www.w3.org/2000/svg">
<path d="M14.7245 19.6938V26.2343" stroke="#85B4D7"/>
<path d="M29.2282 19.6938V27.5666" stroke="#85B4D7"/>
<path d="M27.7174 21.2683V24.7808" stroke="#85B4D7"/>
<path d="M16.2354 20.905V28.4144" stroke="#85B4D7"/>
<path d="M24.6958 27.6877V21.874" stroke="#85B4D7"/>
<path d="M17.7462 20.1784V27.2033" stroke="#85B4D7"/>
<path d="M19.257 19.6937C19.257 15.5757 24.6958 15.5757 24.6958 19.6937" stroke="#85B4D7"/>
<path d="M23.0339 19.6938C23.0339 17.3925 20.9188 17.3925 20.9188 19.6938V25.2653V27.2032" stroke="#85B4D7"/>
<path d="M23.0339 28.1419C23.0339 30.4432 20.9188 30.4432 20.9188 28.1419V22.5704V20.6325" stroke="#85B4D7"/>
<path d="M23.0339 19.6938V25.2653V25.6287" stroke="#85B4D7"/>
<path d="M19.257 28.1721C19.257 32.2902 24.6958 32.2902 24.6958 28.1721" stroke="#85B4D7"/>
<path d="M19.257 28.1722V19.6938" stroke="#85B4D7"/>
<path d="M26.2066 19.6938V25.5555V28.1722" stroke="#85B4D7"/>
<path d="M17.7462 19.6938C17.7462 13.8801 26.2066 13.8801 26.2066 19.6938" stroke="#85B4D7"/>
<path d="M16.2354 19.6938C16.2354 12.1844 27.7174 12.1844 27.7174 19.6938" stroke="#85B4D7"/>
<path d="M14.7245 19.6938C14.7245 10.4888 29.2281 10.4888 29.2281 19.6938" stroke="#85B4D7"/>
<path d="M13.2137 19.4516C13.2137 8.91421 30.7389 8.91421 30.7389 19.4516" stroke="#85B4D7"/>
<path d="M30.739 19.4515V15.0912L29.5303 16.0602" stroke="#85B4D7"/>
<path d="M13.2137 20.1784V28.1722" stroke="#85B4D7"/>
<path d="M30.739 21.874V28.1722" stroke="#85B4D7"/>
<path d="M14.7245 28.1721C14.7245 37.3772 29.2281 37.3772 29.2281 28.1721" stroke="#85B4D7"/>
<path d="M14.3551 32.5325C16.3865 36.4083 22.7318 37.6195 27.2642 34.9549" stroke="#85B4D7"/>
<path d="M16.2354 28.1721C16.2354 35.6815 27.7174 35.6815 27.7174 28.1721" stroke="#85B4D7"/>
<path d="M17.7462 28.1721C17.7462 33.9858 26.2066 33.9858 26.2066 28.1721" stroke="#85B4D7"/>
<path d="M29.8325 16.3025L31.1922 17.0292" stroke="#85B4D7"/>
<path d="M30.1347 15.8179H29.2282V16.5446H30.1347V15.8179Z" fill="#85B4D7"/>
<path d="M30.4368 16.5447H29.5303V17.2714H30.4368V16.5447Z" fill="#85B4D7"/>
<path d="M31.0412 18.7249H30.1347V19.4516H31.0412V18.7249Z" fill="#85B4D7"/>
<path d="M30.739 17.9981H29.8325V18.7248H30.739V17.9981Z" fill="#85B4D7"/>
<path d="M30.739 17.2715H29.8325V17.9982H30.739V17.2715Z" fill="#85B4D7"/>
<path d="M30.5812 15.4834L30.1389 14.8491L28.9261 15.3925L29.3684 16.0269L30.5812 15.4834Z" fill="#85B4D7"/>
<path d="M13.9692 16.5447L12.6095 17.2714" stroke="#85B4D7"/>
<path d="M13.667 16.0602H14.5735V16.7869H13.667V16.0602Z" fill="#85B4D7"/>
<path d="M13.3649 16.7869H14.2714V17.5136H13.3649V16.7869Z" fill="#85B4D7"/>
<path d="M12.7606 18.9671H13.6671V19.6938H12.7606V18.9671Z" fill="#85B4D7"/>
<path d="M13.0627 18.2404H13.9692V18.9671H13.0627V18.2404Z" fill="#85B4D7"/>
<path d="M13.0627 17.5136H13.9692V18.2404H13.0627V17.5136Z" fill="#85B4D7"/>
<path d="M13.2205 15.7256L13.6628 15.0912L14.8755 15.6347L14.4332 16.269L13.2205 15.7256Z" fill="#85B4D7"/>
<path d="M14.1203 15.5759H12.9116V16.7871H14.1203V15.5759Z" fill="#85B4D7"/>
<path d="M13.8181 17.0291H12.3073V19.6938H13.8181V17.0291Z" fill="#85B4D7"/>
<path d="M13.2138 20.1783C13.209 18.8166 13.2138 17.7559 13.7909 17.5083" stroke="#85B4D7"/>
<path d="M12.9893 16.7868L12.6095 17.4257L14.0426 17.9733L14.4224 17.3343L12.9893 16.7868Z" fill="#85B4D7"/>
<path d="M30.739 21.874V18.9671" stroke="#85B4D7"/>
<path d="M11.703 19.9361C11.703 7.09741 32.2498 7.09741 32.2498 19.9361" stroke="#85B4D7"/>
<path d="M11.703 27.9905C11.703 40.8291 32.2498 40.8291 32.2498 27.9905" stroke="#85B4D7"/>
<path d="M32.2498 19.936V28.051" stroke="#85B4D7"/>
<path d="M11.703 19.936V28.051" stroke="#85B4D7"/>
<path d="M21.3818 1C28.5925 6.36369 33.3273 8.47197 43 10.6371" stroke="#3C57B7" stroke-width="2"/>
<path d="M22.6182 1C15.4075 6.36369 10.6727 8.47197 1 10.6371" stroke="#3C57B7" stroke-width="2"/>
<path d="M42.3465 9.9628C43.056 28.1968 38.4468 36.835 21.3401 49.4295" stroke="#3C57B7" stroke-width="2"/>
<path d="M1.56096 9.9628C0.851617 28.1968 5.46071 36.835 22.5672 49.4295" stroke="#3C57B7" stroke-width="2"/>
<path d="M49.7216 31.4545V14H56.4034C57.6648 14 58.7131 14.1989 59.5483 14.5966C60.3892 14.9886 61.0171 15.5256 61.4318 16.2074C61.8523 16.8892 62.0625 17.6619 62.0625 18.5256C62.0625 19.2358 61.9262 19.8438 61.6534 20.3494C61.3807 20.8494 61.0142 21.2557 60.554 21.5682C60.0938 21.8807 59.5796 22.1051 59.0114 22.2415V22.4119C59.6307 22.446 60.2245 22.6364 60.7926 22.983C61.3665 23.3239 61.8353 23.8068 62.1989 24.4318C62.5625 25.0568 62.7443 25.8125 62.7443 26.6989C62.7443 27.6023 62.5256 28.4148 62.0881 29.1364C61.6506 29.8523 60.9915 30.4176 60.1108 30.8324C59.2301 31.2472 58.1222 31.4545 56.787 31.4545H49.7216ZM52.8836 28.8125H56.2841C57.4318 28.8125 58.2586 28.5938 58.7642 28.1562C59.2756 27.7131 59.5313 27.1449 59.5313 26.4517C59.5313 25.9347 59.4034 25.4688 59.1478 25.054C58.8921 24.6335 58.5284 24.304 58.0568 24.0653C57.5853 23.821 57.0228 23.6989 56.3693 23.6989H52.8836V28.8125ZM52.8836 21.4233H56.0114C56.5568 21.4233 57.0483 21.3239 57.4858 21.125C57.9233 20.9205 58.2671 20.6335 58.5171 20.2642C58.7728 19.8892 58.9006 19.446 58.9006 18.9347C58.9006 18.2585 58.662 17.7017 58.1847 17.2642C57.7131 16.8267 57.0114 16.608 56.0796 16.608H52.8836V21.4233Z" fill="white"/>
<path d="M70.2166 31.6847C69.1882 31.6847 68.2678 31.4205 67.4553 30.892C66.6428 30.3636 66.0007 29.5966 65.5291 28.5909C65.0576 27.5852 64.8218 26.3636 64.8218 24.9261C64.8218 23.4716 65.0604 22.2443 65.5377 21.2443C66.0206 20.2386 66.6712 19.4801 67.4894 18.9688C68.3076 18.4517 69.2195 18.1932 70.2252 18.1932C70.9922 18.1932 71.6229 18.3239 72.1172 18.5852C72.6115 18.8409 73.0036 19.1506 73.2934 19.5142C73.5831 19.8722 73.8076 20.2102 73.9666 20.5284H74.0945V18.3636H77.1882V31.4545H74.1541V29.392H73.9666C73.8076 29.7102 73.5774 30.0483 73.2763 30.4062C72.9752 30.7585 72.5774 31.0597 72.0831 31.3097C71.5888 31.5597 70.9666 31.6847 70.2166 31.6847ZM71.0774 29.1534C71.7309 29.1534 72.2877 28.9773 72.7479 28.625C73.2081 28.267 73.5576 27.7699 73.7962 27.1335C74.0348 26.4972 74.1541 25.7557 74.1541 24.9091C74.1541 24.0625 74.0348 23.3267 73.7962 22.7017C73.5632 22.0767 73.2166 21.5909 72.7564 21.2443C72.3019 20.8977 71.7422 20.7244 71.0774 20.7244C70.3899 20.7244 69.8161 20.9034 69.3559 21.2614C68.8956 21.6193 68.549 22.1136 68.3161 22.7443C68.0831 23.375 67.9666 24.0966 67.9666 24.9091C67.9666 25.7273 68.0831 26.4574 68.3161 27.0994C68.5547 27.7358 68.9041 28.2386 69.3644 28.608C69.8303 28.9716 70.4013 29.1534 71.0774 29.1534Z" fill="white"/>
<path d="M86.1861 31.7102C84.8793 31.7102 83.7571 31.4233 82.8196 30.8494C81.8878 30.2756 81.1691 29.483 80.6634 28.4716C80.1634 27.4545 79.9134 26.2841 79.9134 24.9602C79.9134 23.6307 80.1691 22.4574 80.6804 21.4403C81.1918 20.4176 81.9134 19.6222 82.8452 19.054C83.7827 18.4801 84.8907 18.1932 86.1691 18.1932C87.2316 18.1932 88.1719 18.3892 88.9901 18.7812C89.8139 19.1676 90.4702 19.7159 90.9588 20.4261C91.4475 21.1307 91.7259 21.9545 91.7941 22.8977H88.8452C88.7259 22.267 88.4418 21.7415 87.9929 21.321C87.5497 20.8949 86.956 20.6818 86.2117 20.6818C85.581 20.6818 85.027 20.8523 84.5497 21.1932C84.0725 21.5284 83.7003 22.0114 83.4333 22.642C83.1719 23.2727 83.0412 24.0284 83.0412 24.9091C83.0412 25.8011 83.1719 26.5682 83.4333 27.2102C83.6946 27.8466 84.0611 28.3381 84.5327 28.6847C85.01 29.0256 85.5696 29.196 86.2117 29.196C86.6662 29.196 87.0725 29.1108 87.4304 28.9403C87.7941 28.7642 88.098 28.5114 88.3424 28.1818C88.5867 27.8523 88.7543 27.4517 88.8452 26.9801H91.7941C91.7202 27.9062 91.4475 28.7273 90.9759 29.4432C90.5043 30.1534 89.8622 30.7102 89.0497 31.1136C88.2372 31.5114 87.2827 31.7102 86.1861 31.7102Z" fill="white"/>
<path d="M97.1399 27.3466L97.1314 23.6222H97.6257L102.33 18.3636H105.935L100.148 24.8068H99.5093L97.1399 27.3466ZM94.3274 31.4545V14H97.4127V31.4545H94.3274ZM102.543 31.4545L98.282 25.4972L100.362 23.3239L106.234 31.4545H102.543Z" fill="white"/>
<path d="M110.369 31.4545H106.994L113.139 14H117.043L123.196 31.4545H119.821L115.159 17.5795H115.023L110.369 31.4545ZM110.48 24.6108H119.685V27.1506H110.48V24.6108Z" fill="white"/>
<path d="M125.359 36.3636V18.3636H128.393V20.5284H128.572C128.731 20.2102 128.955 19.8722 129.245 19.5142C129.535 19.1506 129.927 18.8409 130.421 18.5852C130.916 18.3239 131.546 18.1932 132.313 18.1932C133.325 18.1932 134.237 18.4517 135.049 18.9688C135.867 19.4801 136.515 20.2386 136.992 21.2443C137.475 22.2443 137.717 23.4716 137.717 24.9261C137.717 26.3636 137.481 27.5852 137.009 28.5909C136.538 29.5966 135.896 30.3636 135.083 30.892C134.271 31.4205 133.35 31.6847 132.322 31.6847C131.572 31.6847 130.95 31.5597 130.455 31.3097C129.961 31.0597 129.563 30.7585 129.262 30.4062C128.967 30.0483 128.737 29.7102 128.572 29.392H128.444V36.3636H125.359ZM128.384 24.9091C128.384 25.7557 128.504 26.4972 128.742 27.1335C128.987 27.7699 129.336 28.267 129.791 28.625C130.251 28.9773 130.808 29.1534 131.461 29.1534C132.143 29.1534 132.714 28.9716 133.174 28.608C133.634 28.2386 133.981 27.7358 134.214 27.0994C134.452 26.4574 134.572 25.7273 134.572 24.9091C134.572 24.0966 134.455 23.375 134.222 22.7443C133.989 22.1136 133.643 21.6193 133.183 21.2614C132.722 20.9034 132.148 20.7244 131.461 20.7244C130.802 20.7244 130.242 20.8977 129.782 21.2443C129.322 21.5909 128.972 22.0767 128.734 22.7017C128.501 23.3267 128.384 24.0625 128.384 24.9091Z" fill="white"/>
<path d="M140.359 36.3636V18.3636H143.393V20.5284H143.572C143.731 20.2102 143.955 19.8722 144.245 19.5142C144.535 19.1506 144.927 18.8409 145.421 18.5852C145.916 18.3239 146.546 18.1932 147.313 18.1932C148.325 18.1932 149.237 18.4517 150.049 18.9688C150.867 19.4801 151.515 20.2386 151.992 21.2443C152.475 22.2443 152.717 23.4716 152.717 24.9261C152.717 26.3636 152.481 27.5852 152.009 28.5909C151.538 29.5966 150.896 30.3636 150.083 30.892C149.271 31.4205 148.35 31.6847 147.322 31.6847C146.572 31.6847 145.95 31.5597 145.455 31.3097C144.961 31.0597 144.563 30.7585 144.262 30.4062C143.967 30.0483 143.737 29.7102 143.572 29.392H143.444V36.3636H140.359ZM143.384 24.9091C143.384 25.7557 143.504 26.4972 143.742 27.1335C143.987 27.7699 144.336 28.267 144.791 28.625C145.251 28.9773 145.808 29.1534 146.461 29.1534C147.143 29.1534 147.714 28.9716 148.174 28.608C148.634 28.2386 148.981 27.7358 149.214 27.0994C149.452 26.4574 149.572 25.7273 149.572 24.9091C149.572 24.0966 149.455 23.375 149.222 22.7443C148.989 22.1136 148.643 21.6193 148.183 21.2614C147.722 20.9034 147.148 20.7244 146.461 20.7244C145.802 20.7244 145.242 20.8977 144.782 21.2443C144.322 21.5909 143.972 22.0767 143.734 22.7017C143.501 23.3267 143.384 24.0625 143.384 24.9091Z" fill="white"/>
</svg>
