<svg width="50" height="40" viewBox="0 0 50 40" fill="none" xmlns="http://www.w3.org/2000/svg">
<path d="M49.0952 4.73512C47.3081 5.53826 45.3876 6.08107 43.3718 6.3252C45.4293 5.07539 47.0093 3.09644 47.7533 0.738507C45.828 1.8956 43.6953 2.736 41.4255 3.18897C39.6076 1.2264 37.0178 0 34.1518 0C28.6483 0 24.1865 4.52124 24.1865 10.0978C24.1865 10.8893 24.2747 11.66 24.4446 12.3991C16.1626 11.978 8.81998 7.95776 3.9051 1.84843C3.04734 3.33984 2.55592 5.07449 2.55592 6.92508C2.55592 10.4284 4.31532 13.5193 6.98916 15.3301C5.35554 15.2777 3.81911 14.8234 2.47544 14.0671C2.47473 14.1092 2.47473 14.1515 2.47473 14.194C2.47473 19.0867 5.90967 23.1681 10.4683 24.0956C9.63208 24.3264 8.75176 24.4498 7.84283 24.4498C7.20075 24.4498 6.57644 24.3866 5.96812 24.2686C7.23611 28.2806 10.9162 31.2 15.2768 31.2816C11.8664 33.9899 7.56958 35.6042 2.90094 35.6042C2.09666 35.6042 1.30339 35.5565 0.523804 35.4633C4.93377 38.3284 10.1718 40 15.7993 40C34.1285 40 44.1516 24.6129 44.1516 11.2688C44.1516 10.831 44.142 10.3954 44.1228 9.96246C46.0696 8.53874 47.7592 6.76017 49.0952 4.73512Z" fill="white"/>
</svg>
